<svg width="55" height="27" viewBox="0 0 55 27" fill="none" xmlns="http://www.w3.org/2000/svg">
<path d="M49.5002 6.01578L34.9933 25.2186C34.2839 26.1576 33.1752 26.7095 31.9985 26.7095C28.8995 26.7095 27.1357 23.1664 29.0037 20.6937L43.5106 1.49088C44.22 0.551919 45.3287 0 46.5054 0C49.6044 0 51.3682 3.54312 49.5002 6.01578Z" fill="#EC011A"/>
<path d="M25.0413 6.01578L10.5343 25.2186C9.82493 26.1576 8.71626 26.7095 7.53948 26.7095C4.44053 26.7095 2.67668 23.1664 4.54467 20.6937L19.0517 1.49088C19.761 0.551919 20.8697 0 22.0465 0C25.1454 0 26.9093 3.54312 25.0413 6.01578Z" fill="#EC011A"/>
<path d="M37.5172 6.28891L22.6404 25.2238C21.9035 26.1618 20.7766 26.7095 19.5837 26.7095C16.3401 26.7095 14.5231 22.9712 16.527 20.4206L31.4037 1.48572C32.1407 0.547704 33.2675 0 34.4604 0C37.7041 0 39.5211 3.73832 37.5172 6.28891Z" fill="white"/>
<path d="M29.984 14.728C29.6994 14.5563 29.1744 14.2745 29.0336 14.1593C29.0336 14.1593 28.8877 14.0391 29.0388 13.9007C29.1888 13.7624 29.5042 13.8987 29.61 13.9785C29.7158 14.0583 29.9018 14.0937 29.9491 14.0189C29.9973 13.9442 29.8771 13.831 29.7415 13.7603C29.6049 13.6896 29.3901 13.429 29.2494 13.3209C29.1086 13.2129 29.0007 13.1492 28.7377 13.1593C28.7377 13.1593 28.6155 13.1523 28.6401 13.0422C28.6638 12.9321 28.7953 12.929 28.9031 12.929C29.011 12.929 29.4456 12.9452 29.5484 12.9169C29.5484 12.9169 29.646 12.8977 29.6367 12.8371C29.6367 12.8371 29.6275 12.7553 29.3624 12.6937C29.3624 12.6937 28.8394 12.5644 28.7172 12.5321C28.5949 12.4987 28.6144 12.33 28.712 12.3068C28.8096 12.2836 28.896 12.3351 29.0819 12.3745C29.2679 12.4149 29.3737 12.4078 29.3758 12.3411C29.3778 12.2755 29.3038 12.2139 29.1754 12.1553C29.046 12.0967 28.6668 11.8613 28.4973 11.723C28.3278 11.5846 28.1028 11.3775 27.8737 11.2603C27.8737 11.2603 27.7422 11.1927 27.7905 11.0815C27.8377 10.9714 28.0175 11.025 28.1182 11.0815C28.2189 11.1381 28.562 11.2411 28.6391 11.1684C28.7151 11.0957 28.5384 11.0765 28.4285 11.0159C28.3185 10.9553 28.0124 10.7533 28.0339 10.6805C28.0555 10.6078 28.1655 10.6472 28.261 10.6401C28.3566 10.6331 28.3761 10.5836 28.3083 10.5179C28.2405 10.4522 27.8716 10.2129 27.735 10.1512C27.5983 10.0906 27.3846 10.0735 27.1904 10.0058C26.8514 9.88861 26.7271 9.59265 26.5863 9.2876C26.5863 9.2876 26.3469 9.628 26.1394 9.82093C25.9319 10.0139 25.75 10.129 25.7212 10.1735C25.6925 10.2179 25.9195 10.1381 25.9503 10.2623C25.9812 10.3866 25.561 10.5139 25.3462 10.6735C25.3462 10.6735 25.2558 10.7533 25.2887 10.7957C25.3226 10.8381 25.4202 10.8331 25.4562 10.831C25.4921 10.829 25.5497 10.8785 25.5301 10.9624C25.5106 11.0472 25.451 11.0704 25.3873 11.0795C25.3226 11.0886 25.2394 11.0745 25.1531 11.1543C25.0668 11.2341 25.0719 11.3634 24.8716 11.4785C24.6712 11.5937 24.1791 11.826 24.1832 11.9462C24.1883 12.0664 24.362 12.0613 24.4287 12.0209C24.4955 11.9805 24.7277 11.8866 24.8418 12.0017C24.9568 12.1169 24.8561 12.3987 24.7195 12.5159C24.5829 12.6331 24.4637 12.6826 24.3394 12.73C24.215 12.7775 24.1102 12.826 23.9592 12.9815C23.8092 13.1361 23.7322 13.1977 23.6869 13.2401C23.6417 13.2826 23.6037 13.3482 23.6417 13.3947C23.6798 13.4422 23.8904 13.4694 24.0907 13.3129C24.2911 13.1553 24.437 13.1603 24.5017 13.2634C24.5664 13.3664 24.5541 13.5078 24.4226 13.5947C24.2911 13.6816 23.8924 13.8432 23.7065 14.029C23.5205 14.2149 23.3931 14.3816 23.2811 14.4209C23.1691 14.4614 23.1044 14.4937 23.1167 14.5452C23.1291 14.5967 23.2318 14.6442 23.4845 14.5715C23.7373 14.4987 24.1298 14.3321 24.2726 14.2523C24.4154 14.1725 24.6743 14.0502 24.7842 14.2189C24.8942 14.3876 24.4565 14.5715 24.3589 14.6088C24.2613 14.6462 23.7568 14.8129 23.6448 14.8482C23.6448 14.8482 23.4753 14.8886 23.4589 14.9543C23.4424 15.0199 23.4681 15.1139 23.6911 15.1018C23.913 15.0896 24.3147 15.0007 24.5294 14.9068C24.7442 14.8129 24.9979 14.7169 25.1438 14.6482C25.2897 14.5805 25.562 14.6007 25.6791 14.7512C25.7962 14.9018 25.751 15.2018 25.6575 15.3502C25.564 15.4977 25.3493 15.8664 25.0863 16.0169C24.8233 16.1674 24.3486 16.2654 24.4339 16.4139C24.4339 16.4139 24.4935 16.4725 24.5603 16.3856C24.627 16.2987 24.7349 16.2422 24.8633 16.2351C24.9928 16.228 25.2671 16.1977 25.4223 16.1038C25.5774 16.0098 25.7592 15.8098 25.9719 15.7583C25.9719 15.7583 26.0798 15.723 26.1795 15.7775C26.1795 15.7775 26.2339 15.827 26.3058 15.8179C26.3778 15.8088 26.4517 15.7452 26.5473 15.7805C26.6428 15.8159 26.6552 15.8624 26.686 15.9351C26.7168 16.0078 26.836 16.1088 26.9295 16.1422C27.023 16.1755 27.0374 16.2311 27.0774 16.2765C27.1185 16.321 27.1535 16.326 27.175 16.2957C27.1966 16.2654 27.1606 16.0846 27.2367 16.0583C27.3127 16.0321 27.4298 16.0654 27.5449 16.0775C27.66 16.0896 27.8192 16.122 27.9076 16.225C27.9959 16.328 28.1274 16.5331 28.2394 16.4785C28.3514 16.425 28.2343 16.3068 28.1531 16.2482C28.072 16.1896 27.7041 15.9331 27.5747 15.7341C27.4452 15.5341 27.4175 15.1755 27.4175 14.9755C27.4175 14.7755 27.4175 14.5836 27.547 14.5078C27.6764 14.4321 27.85 14.5028 28.0175 14.6038C28.185 14.7048 28.3165 14.7028 28.4932 14.6957C28.6699 14.6886 29.2196 14.6462 29.4148 14.7492C29.611 14.8523 30.0004 15.1108 30.0744 15.1513C30.1484 15.1917 30.2583 15.2078 30.3035 15.1513C30.3487 15.0947 30.2676 14.8977 29.983 14.726L29.984 14.728ZM24.8181 13.3341C24.6322 13.3432 24.5849 13.1108 24.6013 13.0472C24.6178 12.9836 24.9579 12.9543 25.1048 12.9472C25.2517 12.9401 25.2579 12.9765 25.2856 13.0159C25.4017 13.1805 25.0041 13.325 24.8181 13.3341ZM25.2733 12.124C25.1418 12.1826 25.0246 12.0866 24.9651 11.9714C24.9055 11.8563 25.001 11.7674 25.001 11.7674C25.0894 11.73 25.1849 11.7674 25.2609 11.8381C25.337 11.9088 25.4038 12.0654 25.2733 12.124ZM26.9593 10.7704C27.06 10.7644 27.0713 10.8472 27.0743 10.8805C27.0764 10.9149 27.0651 10.9916 26.9798 10.9967C26.8945 11.0017 26.8791 10.925 26.8709 10.8947C26.8709 10.8947 26.8586 10.7765 26.9593 10.7704ZM26.0541 11.0502C26.1117 11.0603 26.0932 11.1704 26.0932 11.1704C26.0932 11.1704 26.0932 11.2674 25.9822 11.3381C25.8712 11.4088 25.749 11.4543 25.713 11.4159C25.6771 11.3775 25.6647 11.3189 25.7654 11.2149C25.8661 11.1108 25.9966 11.0391 26.0541 11.0502ZM25.7315 10.6411C25.8178 10.6341 25.8425 10.7129 25.8445 10.7543C25.8466 10.7947 25.8281 10.8674 25.75 10.8755C25.6709 10.8846 25.6493 10.8169 25.639 10.7664C25.639 10.7664 25.6452 10.6482 25.7315 10.6411ZM25.4428 11.8886C25.4428 11.8886 25.3904 11.7432 25.5075 11.6795C25.6247 11.6159 25.7459 11.6916 25.7562 11.7512C25.7654 11.8108 25.7849 11.9007 25.6658 11.9462C25.5466 11.9916 25.4664 11.9381 25.4428 11.8886ZM25.674 14.1391C25.5558 14.1583 25.5034 13.9684 25.486 13.8553C25.4685 13.7422 25.5589 13.723 25.5589 13.723C25.6555 13.7068 25.7161 13.8129 25.7449 13.8816C25.7736 13.9502 25.7921 14.1189 25.674 14.1391ZM25.9308 12.7442C25.8219 12.7704 25.7356 12.5947 25.8291 12.5502C25.9226 12.5058 25.976 12.6119 25.976 12.6119C25.976 12.6119 26.0408 12.7179 25.9308 12.7442ZM26.1887 14.1007C26.1599 14.124 26.0757 14.1502 26.0243 14.0462C25.973 13.9422 26.0243 13.8805 26.0243 13.8805C26.0582 13.8543 26.0849 13.8735 26.1497 13.931C26.2144 13.9886 26.2175 14.0775 26.1887 14.1007ZM26.2617 11.0644C26.2617 11.0644 26.2349 10.9856 26.2863 10.929C26.3387 10.8725 26.5411 10.7795 26.6428 10.8199C26.7445 10.8603 26.7024 11.0048 26.6305 11.0351C26.5586 11.0654 26.2956 11.1502 26.2617 11.0644ZM26.726 11.6492C26.7189 11.728 26.651 11.7634 26.5791 11.7583C26.5072 11.7533 26.461 11.6947 26.4795 11.6189C26.498 11.5432 26.6028 11.5118 26.6695 11.5401C26.7363 11.5684 26.726 11.6492 26.726 11.6492ZM26.2945 12.5714C26.2966 12.5199 26.3048 12.4502 26.3962 12.4512C26.4877 12.4533 26.4641 12.5714 26.4641 12.5714C26.4476 12.628 26.4332 12.6563 26.3798 12.6613C26.3264 12.6664 26.2925 12.623 26.2945 12.5714ZM26.6613 14.0694C26.5504 14.122 26.4661 14.0452 26.4373 13.9422C26.4086 13.8401 26.4949 13.7886 26.4949 13.7886C26.6182 13.7482 26.7723 14.0169 26.6613 14.0694ZM26.799 12.9644C26.6623 12.9805 26.6356 12.8533 26.6346 12.7321C26.6326 12.6108 26.7291 12.5805 26.7291 12.5805C26.7743 12.5523 26.8658 12.6826 26.8884 12.7472C26.912 12.8119 26.9346 12.9492 26.799 12.9644ZM27.061 12.9452C26.986 12.9361 27.0014 12.8482 27.0014 12.8482C27.0014 12.8482 27.0035 12.7482 27.0764 12.7512C27.1493 12.7543 27.1812 12.9593 27.061 12.9452ZM27.1411 11.6755C27.1093 11.7613 27.0322 11.8058 26.9459 11.7684C26.8596 11.731 26.9028 11.6068 26.9582 11.5573C27.0137 11.5078 27.0713 11.5139 27.1031 11.529C27.1031 11.529 27.173 11.5896 27.1411 11.6755ZM28.1141 12.2129C28.2446 12.1967 28.2559 12.3664 28.2559 12.3664C28.2631 12.4704 28.2364 12.4846 28.186 12.5038C28.1357 12.523 27.9908 12.5179 27.9661 12.423C27.9415 12.328 27.9826 12.229 28.1141 12.2129ZM27.2511 10.9028C27.2511 10.9028 27.2685 10.7937 27.3856 10.7997C27.5028 10.8058 27.5017 10.9169 27.4904 10.9563C27.4791 10.9957 27.4689 11.0644 27.363 11.0664C27.2572 11.0684 27.2408 10.9704 27.2511 10.9028ZM27.4175 11.9411C27.3333 11.8957 27.3446 11.7583 27.3446 11.7583C27.3394 11.6846 27.4699 11.624 27.622 11.6442C27.774 11.6644 27.8346 11.8149 27.7668 11.8987C27.699 11.9836 27.5017 11.9866 27.4175 11.9411ZM28.1141 13.7189C28.0411 13.7381 27.8223 13.7381 27.7884 13.6482C27.7884 13.6482 27.7689 13.5422 27.8819 13.4725C27.9949 13.4018 28.26 13.3401 28.3134 13.4725C28.3668 13.6048 28.1881 13.6997 28.1141 13.7189ZM28.8261 13.8927C28.7614 13.923 28.559 13.9583 28.5014 13.8502C28.5014 13.8502 28.449 13.7714 28.5394 13.6725C28.6288 13.5735 28.8312 13.4836 28.937 13.5917C29.0429 13.6987 28.8908 13.8634 28.8261 13.8927Z" fill="#00953F"/>
</svg>
