<svg width="48" height="23" viewBox="0 0 48 23" fill="none" xmlns="http://www.w3.org/2000/svg">
<g id="Group 35519">
<path id="Vector 494" d="M44.7786 4.72336L33.2132 21.6811C32.6504 22.5063 31.7161 23 30.7173 23C28.2899 23 26.8537 20.2821 28.2214 18.2766L39.7868 1.31888C40.3496 0.49369 41.2839 0 42.2827 0C44.7101 0 46.1463 2.71795 44.7786 4.72336Z" fill="#EC011A"/>
<path id="Vector 496" d="M17.7786 4.72336L6.21322 21.6811C5.65043 22.5063 4.71615 23 3.71731 23C1.28989 23 -0.146328 20.2821 1.22139 18.2766L12.7868 1.31888C13.3496 0.49369 14.2839 0 15.2827 0C17.7101 0 19.1463 2.71795 17.7786 4.72336Z" fill="#00953F"/>
<path id="Vector 495" d="M31.4903 4.94821L19.6234 21.6789C19.0356 22.5076 18.0826 23 17.0665 23C14.5216 23 13.0374 20.1276 14.5097 18.0518L26.3766 1.32115C26.9644 0.492429 27.9174 0 28.9335 0C31.4784 0 32.9626 2.87244 31.4903 4.94821Z" fill="#FEEB08"/>
</g>
</svg>
