<svg xmlns="http://www.w3.org/2000/svg" width="150" height="150" viewBox="0 0 150 150" fill="none">
  <path opacity="0.08" d="M115.921 75.5315C115.925 97.944 97.7599 116.116 75.3474 116.12C52.9349 116.124 34.7631 97.9584 34.7591 75.5459C34.7552 53.1334 52.9205 34.9616 75.333 34.9577C97.7455 34.9537 115.917 53.119 115.921 75.5315Z" fill="#1D2025"/>
  <path opacity="0.06" d="M117.363 79.9348C117.367 102.347 99.2013 120.519 76.7888 120.523C54.3763 120.527 36.2045 102.362 36.2006 79.9492C36.1966 57.5367 54.3619 39.3649 76.7744 39.361C99.1869 39.357 117.359 57.5223 117.363 79.9348Z" fill="#1D2025"/>
  <path d="M116.618 73.3371C116.654 96.1355 98.2019 114.647 75.4035 114.683C52.6052 114.719 34.0941 96.2668 34.0579 73.4685C34.0216 50.6701 52.4738 32.1591 75.2722 32.1228C98.0705 32.0865 116.582 50.5388 116.618 73.3371Z" fill="#00953F"/>
  <path d="M61.1529 75.9328L71.1765 84.9404C71.1765 84.9404 85.7671 66.2445 90.0107 60.8085" stroke="white" stroke-width="2.5" stroke-linecap="round" stroke-linejoin="round"/>
  <path d="M25.6299 125.562C26.4024 124.782 27.5373 123.636 28.9297 122.232" stroke="#00953F" stroke-width="2.5" stroke-linecap="round"/>
  <path d="M4.34375 75.8489C5.44104 75.8441 7.0541 75.8361 9.03125 75.8281" stroke="#00953F" stroke-width="2.5" stroke-linecap="round"/>
  <path d="M24.4384 25.6385C25.2177 26.4111 26.3639 27.546 27.7676 28.9385" stroke="#00953F" stroke-width="2.5" stroke-linecap="round"/>
  <path d="M74.1218 4.34375C74.1266 5.44104 74.1346 7.0541 74.1426 9.03125" stroke="#00953F" stroke-width="2.5" stroke-linecap="round"/>
  <path d="M124.351 24.4372C123.578 25.2165 122.443 26.3628 121.051 27.7666" stroke="#00953F" stroke-width="2.5" stroke-linecap="round"/>
  <path d="M145.656 74.1481C144.559 74.1529 142.946 74.1609 140.969 74.1689" stroke="#00953F" stroke-width="2.5" stroke-linecap="round"/>
  <path d="M125.552 124.364C124.773 123.592 123.626 122.457 122.223 121.064" stroke="#00953F" stroke-width="2.5" stroke-linecap="round"/>
  <path d="M75.8216 145.656C75.8168 144.559 75.8088 142.946 75.8008 140.969" stroke="#00953F" stroke-width="2.5" stroke-linecap="round"/>
</svg>