<svg xmlns="http://www.w3.org/2000/svg" width="20" height="20" viewBox="0 0 20 20" fill="none">
  <path d="M10.0171 1.66699C6.9504 1.66699 4.46707 4.15033 4.46707 7.21699V8.96699C4.46707 9.53366 4.23374 10.3837 3.94207 10.867L2.88374 12.6337C2.23374 13.7253 2.68374 14.942 3.88374 15.342C7.86707 16.667 12.1754 16.667 16.1587 15.342C17.2837 14.967 17.7671 13.6503 17.1587 12.6337L16.1004 10.867C15.8087 10.3837 15.5754 9.52532 15.5754 8.96699V7.21699C15.5671 4.16699 13.0671 1.66699 10.0171 1.66699Z" stroke="#20294C" stroke-width="1.5" stroke-miterlimit="10" stroke-linecap="round"/>
  <path d="M12.55 16C12.55 17.525 11.3 18.775 9.775 18.775C9.01667 18.775 8.31667 18.4583 7.81667 17.9583C7.31667 17.4583 7 16.7583 7 16" stroke="#20294C" stroke-width="1.5" stroke-miterlimit="10"/>
</svg>