<svg xmlns="http://www.w3.org/2000/svg" fill="none" viewBox="95 42 371 300">
    <g opacity="0.8">
        <rect x="229" y="70" width="103" height="30" rx="15" stroke="#20294C" stroke-width="2"/>
        <rect x="96" y="188" width="4" height="28" rx="1" stroke="#20294C" stroke-width="2"/>
        <rect x="96" y="244" width="4" height="53" rx="1" stroke="#20294C" stroke-width="2"/>
        <rect x="461" y="282" width="4" height="53" rx="1" stroke="#20294C" stroke-width="2"/>
        <rect x="116" y="59" width="329" height="514" rx="49" stroke="#20294C" stroke-width="2"/>
        <rect x="105" y="48" width="351" height="536" rx="58" stroke="#20294C" stroke-width="2"/>
        <rect x="100" y="43" width="361" height="546" rx="63" stroke="#20294C" stroke-width="2"/>
    </g>

    <g opacity="0.8">
        <rect x="179.5" y="236.5" width="199" height="47" rx="23.5" stroke="#1D2025"/>
        <path d="M271.98 260.24C271.98 261.093 271.841 261.875 271.564 262.584C271.287 263.288 270.895 263.893 270.388 264.4C269.887 264.907 269.281 265.301 268.572 265.584C267.868 265.861 267.084 266 266.22 266H261.868V254.48H266.22C267.084 254.48 267.868 254.621 268.572 254.904C269.281 255.181 269.887 255.573 270.388 256.08C270.895 256.587 271.287 257.195 271.564 257.904C271.841 258.608 271.98 259.387 271.98 260.24ZM270.068 260.24C270.068 259.579 269.977 258.984 269.796 258.456C269.62 257.928 269.364 257.483 269.028 257.12C268.697 256.757 268.295 256.48 267.82 256.288C267.345 256.091 266.812 255.992 266.22 255.992H263.748V264.488H266.22C266.812 264.488 267.345 264.392 267.82 264.2C268.295 264.008 268.697 263.731 269.028 263.368C269.364 263 269.62 262.555 269.796 262.032C269.977 261.504 270.068 260.907 270.068 260.24ZM275.92 266H274.04V254.48H275.92V266ZM284.745 261.68L283.161 257.472C283.033 257.147 282.903 256.733 282.769 256.232C282.711 256.483 282.647 256.715 282.577 256.928C282.508 257.136 282.444 257.32 282.385 257.48L280.801 261.68H284.745ZM288.289 266H286.841C286.676 266 286.543 265.96 286.441 265.88C286.34 265.795 286.263 265.691 286.209 265.568L285.249 263.024H280.289L279.329 265.568C279.287 265.675 279.212 265.773 279.105 265.864C278.999 265.955 278.865 266 278.705 266H277.257L281.825 254.48H283.721L288.289 266ZM296.29 264.432V266H289.634V254.48H291.506V264.432H296.29Z" fill="#1D2025"/>
    </g>
    <rect x="179" y="152.25" width="200" height="54" rx="27" fill="#FFF"/>
    <path d="M248.966 175.365L248.306 176.49L245.711 174.99C245.531 174.88 245.371 174.77 245.231 174.66C245.091 174.55 244.966 174.41 244.856 174.24C245.016 174.57 245.096 174.935 245.096 175.335L245.096 178.305L243.776 178.305L243.776 175.35C243.776 175.15 243.786 174.965 243.806 174.795C243.836 174.625 243.891 174.46 243.971 174.3C243.861 174.44 243.741 174.565 243.611 174.675C243.481 174.785 243.331 174.89 243.161 174.99L240.581 176.475L239.921 175.35L242.501 173.85C242.881 173.62 243.261 173.5 243.641 173.49C243.441 173.47 243.246 173.435 243.056 173.385C242.876 173.325 242.691 173.235 242.501 173.115L239.906 171.6L240.566 170.475L243.161 171.975C243.341 172.085 243.501 172.2 243.641 172.32C243.781 172.44 243.906 172.585 244.016 172.755C243.856 172.405 243.776 172.03 243.776 171.63L243.776 168.66L245.096 168.66L245.096 171.615C245.096 171.815 245.081 172.005 245.051 172.185C245.031 172.355 244.981 172.52 244.901 172.68C245.011 172.54 245.131 172.415 245.261 172.305C245.391 172.195 245.541 172.085 245.711 171.975L248.291 170.49L248.951 171.615L246.371 173.115C246.201 173.225 246.031 173.31 245.861 173.37C245.691 173.43 245.511 173.47 245.321 173.49C245.511 173.51 245.691 173.55 245.861 173.61C246.031 173.66 246.201 173.74 246.371 173.85L248.966 175.365ZM261.755 178.05L258.05 178.05L257.075 182.94L260.78 182.94L261.755 178.05ZM267.425 176.085L267.23 177.21C267.18 177.5 267.06 177.715 266.87 177.855C266.69 177.985 266.41 178.05 266.03 178.05L263.96 178.05L262.985 182.94L265.67 182.94C265.96 182.94 266.165 183.025 266.285 183.195C266.415 183.355 266.45 183.64 266.39 184.05L266.255 184.905L262.7 184.905L261.44 191.25L260.225 191.25C260.095 191.25 259.975 191.22 259.865 191.16C259.755 191.1 259.66 191.02 259.58 190.92C259.51 190.82 259.46 190.7 259.43 190.56C259.4 190.42 259.4 190.265 259.43 190.095L260.495 184.905L256.79 184.905L255.725 190.23C255.665 190.6 255.52 190.865 255.29 191.025C255.06 191.175 254.8 191.25 254.51 191.25L253.31 191.25L254.585 184.905L252.395 184.905C252.115 184.905 251.91 184.825 251.78 184.665C251.66 184.495 251.63 184.205 251.69 183.795L251.81 182.94L254.87 182.94L255.845 178.05L252.365 178.05L252.56 176.94C252.61 176.65 252.725 176.435 252.905 176.295C253.095 176.155 253.38 176.085 253.76 176.085L256.13 176.085L257.21 170.715C257.27 170.415 257.405 170.18 257.615 170.01C257.835 169.84 258.095 169.755 258.395 169.755L259.595 169.755L258.335 176.085L262.04 176.085L263.3 169.755L264.485 169.755C264.775 169.755 265 169.85 265.16 170.04C265.33 170.23 265.39 170.47 265.34 170.76L264.245 176.085L267.425 176.085ZM284.707 180.51C284.707 182.39 284.502 184.02 284.092 185.4C283.692 186.77 283.142 187.905 282.442 188.805C281.742 189.705 280.912 190.375 279.952 190.815C279.002 191.255 277.982 191.475 276.892 191.475C275.792 191.475 274.767 191.255 273.817 190.815C272.877 190.375 272.057 189.705 271.357 188.805C270.657 187.905 270.107 186.77 269.707 185.4C269.307 184.02 269.107 182.39 269.107 180.51C269.107 178.63 269.307 177 269.707 175.62C270.107 174.24 270.657 173.1 271.357 172.2C272.057 171.29 272.877 170.615 273.817 170.175C274.767 169.735 275.792 169.515 276.892 169.515C277.982 169.515 279.002 169.735 279.952 170.175C280.912 170.615 281.742 171.29 282.442 172.2C283.142 173.1 283.692 174.24 284.092 175.62C284.502 177 284.707 178.63 284.707 180.51ZM281.932 180.51C281.932 178.87 281.792 177.495 281.512 176.385C281.242 175.265 280.872 174.365 280.402 173.685C279.942 173.005 279.407 172.52 278.797 172.23C278.187 171.93 277.552 171.78 276.892 171.78C276.232 171.78 275.597 171.93 274.987 172.23C274.377 172.52 273.842 173.005 273.382 173.685C272.922 174.365 272.552 175.265 272.272 176.385C272.002 177.495 271.867 178.87 271.867 180.51C271.867 182.15 272.002 183.525 272.272 184.635C272.552 185.745 272.922 186.64 273.382 187.32C273.842 188 274.377 188.49 274.987 188.79C275.597 189.08 276.232 189.225 276.892 189.225C277.552 189.225 278.187 189.08 278.797 188.79C279.407 188.49 279.942 188 280.402 187.32C280.872 186.64 281.242 185.745 281.512 184.635C281.792 183.525 281.932 182.15 281.932 180.51ZM294.279 189.27C294.999 189.27 295.649 189.155 296.229 188.925C296.819 188.695 297.319 188.375 297.729 187.965C298.149 187.555 298.469 187.07 298.689 186.51C298.919 185.95 299.034 185.34 299.034 184.68C299.034 183.98 298.924 183.35 298.704 182.79C298.484 182.22 298.169 181.74 297.759 181.35C297.359 180.95 296.879 180.645 296.319 180.435C295.759 180.225 295.144 180.12 294.474 180.12C293.754 180.12 293.104 180.245 292.524 180.495C291.944 180.735 291.449 181.065 291.039 181.485C290.639 181.895 290.329 182.375 290.109 182.925C289.899 183.465 289.794 184.03 289.794 184.62C289.794 185.31 289.894 185.94 290.094 186.51C290.294 187.08 290.584 187.57 290.964 187.98C291.354 188.39 291.824 188.71 292.374 188.94C292.934 189.16 293.569 189.27 294.279 189.27ZM292.719 177.81C292.529 178.05 292.344 178.285 292.164 178.515C291.994 178.735 291.829 178.955 291.669 179.175C292.179 178.825 292.739 178.555 293.349 178.365C293.959 178.175 294.624 178.08 295.344 178.08C296.214 178.08 297.034 178.225 297.804 178.515C298.574 178.795 299.244 179.21 299.814 179.76C300.394 180.3 300.854 180.97 301.194 181.77C301.534 182.56 301.704 183.465 301.704 184.485C301.704 185.475 301.524 186.395 301.164 187.245C300.804 188.095 300.299 188.835 299.649 189.465C299.009 190.095 298.234 190.59 297.324 190.95C296.424 191.31 295.429 191.49 294.339 191.49C293.259 191.49 292.279 191.32 291.399 190.98C290.519 190.63 289.769 190.14 289.149 189.51C288.539 188.87 288.064 188.1 287.724 187.2C287.394 186.29 287.229 185.275 287.229 184.155C287.229 183.215 287.434 182.215 287.844 181.155C288.264 180.085 288.929 178.945 289.839 177.735L295.299 170.4C295.439 170.22 295.629 170.07 295.869 169.95C296.119 169.82 296.404 169.755 296.724 169.755L299.094 169.755L292.719 177.81ZM313.962 178.05L310.257 178.05L309.282 182.94L312.987 182.94L313.962 178.05ZM319.632 176.085L319.437 177.21C319.387 177.5 319.267 177.715 319.077 177.855C318.897 177.985 318.617 178.05 318.237 178.05L316.167 178.05L315.192 182.94L317.877 182.94C318.167 182.94 318.372 183.025 318.492 183.195C318.622 183.355 318.657 183.64 318.597 184.05L318.462 184.905L314.907 184.905L313.647 191.25L312.432 191.25C312.302 191.25 312.182 191.22 312.072 191.16C311.962 191.1 311.867 191.02 311.787 190.92C311.717 190.82 311.667 190.7 311.637 190.56C311.607 190.42 311.607 190.265 311.637 190.095L312.702 184.905L308.997 184.905L307.932 190.23C307.872 190.6 307.727 190.865 307.497 191.025C307.267 191.175 307.007 191.25 306.717 191.25L305.517 191.25L306.792 184.905L304.602 184.905C304.322 184.905 304.117 184.825 303.987 184.665C303.867 184.495 303.837 184.205 303.897 183.795L304.017 182.94L307.077 182.94L308.052 178.05L304.572 178.05L304.767 176.94C304.817 176.65 304.932 176.435 305.112 176.295C305.302 176.155 305.587 176.085 305.967 176.085L308.337 176.085L309.417 170.715C309.477 170.415 309.612 170.18 309.822 170.01C310.042 169.84 310.302 169.755 310.602 169.755L311.802 169.755L310.542 176.085L314.247 176.085L315.507 169.755L316.692 169.755C316.982 169.755 317.207 169.85 317.367 170.04C317.537 170.23 317.597 170.47 317.547 170.76L316.452 176.085L319.632 176.085Z" fill="#797F94"/>
</svg>