<svg width="718" height="278" viewBox="0 0 718 278" fill="none" xmlns="http://www.w3.org/2000/svg">
<g filter="url(#filter0_d_45_603)">
<g clip-path="url(#clip0_45_603)">
<rect x="65" y="65.0195" width="588" height="265" rx="24" fill="white"/>
<path opacity="0.3" d="M105.35 92.8195C105.35 93.8862 105.177 94.8629 104.83 95.7495C104.483 96.6295 103.993 97.3862 103.36 98.0195C102.733 98.6529 101.977 99.1462 101.09 99.4995C100.21 99.8462 99.23 100.02 98.15 100.02H92.71V85.6195H98.15C99.23 85.6195 100.21 85.7962 101.09 86.1495C101.977 86.4962 102.733 86.9862 103.36 87.6195C103.993 88.2529 104.483 89.0129 104.83 89.8995C105.177 90.7795 105.35 91.7529 105.35 92.8195ZM102.96 92.8195C102.96 91.9929 102.847 91.2495 102.62 90.5895C102.4 89.9295 102.08 89.3729 101.66 88.9195C101.247 88.4662 100.743 88.1195 100.15 87.8795C99.5567 87.6329 98.89 87.5095 98.15 87.5095H95.06V98.1295H98.15C98.89 98.1295 99.5567 98.0095 100.15 97.7695C100.743 97.5295 101.247 97.1829 101.66 96.7295C102.08 96.2695 102.4 95.7129 102.62 95.0595C102.847 94.3995 102.96 93.6529 102.96 92.8195ZM114.078 93.7695C114.078 93.4095 114.025 93.0762 113.918 92.7695C113.818 92.4562 113.668 92.1862 113.468 91.9595C113.268 91.7262 113.018 91.5462 112.718 91.4195C112.425 91.2862 112.085 91.2195 111.698 91.2195C110.918 91.2195 110.305 91.4429 109.858 91.8895C109.411 92.3362 109.128 92.9629 109.008 93.7695H114.078ZM108.948 95.0895C108.975 95.6695 109.065 96.1729 109.218 96.5995C109.371 97.0195 109.575 97.3695 109.828 97.6495C110.088 97.9295 110.395 98.1395 110.748 98.2795C111.108 98.4129 111.508 98.4795 111.948 98.4795C112.368 98.4795 112.731 98.4329 113.038 98.3395C113.345 98.2395 113.611 98.1329 113.838 98.0195C114.065 97.8995 114.258 97.7929 114.418 97.6995C114.578 97.5995 114.725 97.5495 114.858 97.5495C115.031 97.5495 115.165 97.6162 115.258 97.7495L115.868 98.5395C115.615 98.8395 115.328 99.0929 115.008 99.2995C114.688 99.5062 114.348 99.6762 113.988 99.8095C113.628 99.9362 113.258 100.026 112.878 100.08C112.498 100.14 112.128 100.17 111.768 100.17C111.061 100.17 110.405 100.053 109.798 99.8195C109.198 99.5795 108.675 99.2295 108.228 98.7695C107.788 98.3095 107.441 97.7395 107.188 97.0595C106.941 96.3795 106.818 95.5962 106.818 94.7095C106.818 94.0029 106.928 93.3429 107.148 92.7295C107.375 92.1162 107.695 91.5829 108.108 91.1295C108.528 90.6762 109.035 90.3195 109.628 90.0595C110.228 89.7929 110.905 89.6595 111.658 89.6595C112.285 89.6595 112.865 89.7629 113.398 89.9695C113.931 90.1695 114.391 90.4662 114.778 90.8595C115.165 91.2529 115.465 91.7362 115.678 92.3095C115.898 92.8762 116.008 93.5229 116.008 94.2495C116.008 94.5829 115.971 94.8062 115.898 94.9195C115.825 95.0329 115.691 95.0895 115.498 95.0895H108.948ZM126.759 89.8195L122.659 100.02H120.719L116.619 89.8195H118.389C118.555 89.8195 118.692 89.8629 118.799 89.9495C118.912 90.0295 118.985 90.1262 119.019 90.2395L121.279 96.1795C121.372 96.4595 121.455 96.7362 121.529 97.0095C121.602 97.2829 121.665 97.5595 121.719 97.8395C121.772 97.5595 121.835 97.2862 121.909 97.0195C121.989 96.7462 122.075 96.4662 122.169 96.1795L124.469 90.2395C124.509 90.1195 124.582 90.0195 124.689 89.9395C124.795 89.8595 124.925 89.8195 125.079 89.8195H126.759ZM130.468 89.8195V100.02H128.318V89.8195H130.468ZM130.828 86.7395C130.828 86.9329 130.788 87.1162 130.708 87.2895C130.635 87.4629 130.531 87.6162 130.398 87.7495C130.265 87.8762 130.108 87.9795 129.928 88.0595C129.755 88.1329 129.568 88.1695 129.368 88.1695C129.175 88.1695 128.991 88.1329 128.818 88.0595C128.651 87.9795 128.505 87.8762 128.378 87.7495C128.251 87.6162 128.148 87.4629 128.068 87.2895C127.995 87.1162 127.958 86.9329 127.958 86.7395C127.958 86.5395 127.995 86.3529 128.068 86.1795C128.148 86.0062 128.251 85.8562 128.378 85.7295C128.505 85.5962 128.651 85.4929 128.818 85.4195C128.991 85.3395 129.175 85.2995 129.368 85.2995C129.568 85.2995 129.755 85.3395 129.928 85.4195C130.108 85.4929 130.265 85.5962 130.398 85.7295C130.531 85.8562 130.635 86.0062 130.708 86.1795C130.788 86.3529 130.828 86.5395 130.828 86.7395ZM140.379 91.8195C140.313 91.9062 140.249 91.9729 140.189 92.0195C140.129 92.0662 140.043 92.0895 139.929 92.0895C139.816 92.0895 139.696 92.0495 139.569 91.9695C139.449 91.8895 139.303 91.8029 139.129 91.7095C138.963 91.6095 138.759 91.5195 138.519 91.4395C138.279 91.3595 137.979 91.3195 137.619 91.3195C137.153 91.3195 136.743 91.4029 136.389 91.5695C136.043 91.7362 135.749 91.9762 135.509 92.2895C135.276 92.5962 135.099 92.9729 134.979 93.4195C134.866 93.8595 134.809 94.3562 134.809 94.9095C134.809 95.4829 134.873 95.9929 134.999 96.4395C135.126 96.8862 135.306 97.2629 135.539 97.5695C135.779 97.8762 136.066 98.1095 136.399 98.2695C136.739 98.4295 137.119 98.5095 137.539 98.5095C137.953 98.5095 138.289 98.4595 138.549 98.3595C138.809 98.2595 139.026 98.1495 139.199 98.0295C139.373 97.9095 139.519 97.7995 139.639 97.6995C139.766 97.5995 139.899 97.5495 140.039 97.5495C140.213 97.5495 140.346 97.6162 140.439 97.7495L141.049 98.5395C140.803 98.8395 140.529 99.0929 140.229 99.2995C139.929 99.5062 139.613 99.6762 139.279 99.8095C138.946 99.9362 138.599 100.026 138.239 100.08C137.879 100.14 137.516 100.17 137.149 100.17C136.516 100.17 135.923 100.053 135.369 99.8195C134.823 99.5795 134.343 99.2362 133.929 98.7895C133.523 98.3362 133.199 97.7862 132.959 97.1395C132.726 96.4862 132.609 95.7429 132.609 94.9095C132.609 94.1562 132.716 93.4595 132.929 92.8195C133.143 92.1729 133.453 91.6162 133.859 91.1495C134.273 90.6829 134.783 90.3195 135.389 90.0595C135.996 89.7929 136.696 89.6595 137.489 89.6595C138.229 89.6595 138.879 89.7795 139.439 90.0195C140.006 90.2595 140.509 90.5995 140.949 91.0395L140.379 91.8195ZM149.293 93.7695C149.293 93.4095 149.24 93.0762 149.133 92.7695C149.033 92.4562 148.883 92.1862 148.683 91.9595C148.483 91.7262 148.233 91.5462 147.933 91.4195C147.64 91.2862 147.3 91.2195 146.913 91.2195C146.133 91.2195 145.52 91.4429 145.073 91.8895C144.626 92.3362 144.343 92.9629 144.223 93.7695H149.293ZM144.163 95.0895C144.19 95.6695 144.28 96.1729 144.433 96.5995C144.586 97.0195 144.79 97.3695 145.043 97.6495C145.303 97.9295 145.61 98.1395 145.963 98.2795C146.323 98.4129 146.723 98.4795 147.163 98.4795C147.583 98.4795 147.946 98.4329 148.253 98.3395C148.56 98.2395 148.826 98.1329 149.053 98.0195C149.28 97.8995 149.473 97.7929 149.633 97.6995C149.793 97.5995 149.94 97.5495 150.073 97.5495C150.246 97.5495 150.38 97.6162 150.473 97.7495L151.083 98.5395C150.83 98.8395 150.543 99.0929 150.223 99.2995C149.903 99.5062 149.563 99.6762 149.203 99.8095C148.843 99.9362 148.473 100.026 148.093 100.08C147.713 100.14 147.343 100.17 146.983 100.17C146.276 100.17 145.62 100.053 145.013 99.8195C144.413 99.5795 143.89 99.2295 143.443 98.7695C143.003 98.3095 142.656 97.7395 142.403 97.0595C142.156 96.3795 142.033 95.5962 142.033 94.7095C142.033 94.0029 142.143 93.3429 142.363 92.7295C142.59 92.1162 142.91 91.5829 143.323 91.1295C143.743 90.6762 144.25 90.3195 144.843 90.0595C145.443 89.7929 146.12 89.6595 146.873 89.6595C147.5 89.6595 148.08 89.7629 148.613 89.9695C149.146 90.1695 149.606 90.4662 149.993 90.8595C150.38 91.2529 150.68 91.7362 150.893 92.3095C151.113 92.8762 151.223 93.5229 151.223 94.2495C151.223 94.5829 151.186 94.8062 151.113 94.9195C151.04 95.0329 150.906 95.0895 150.713 95.0895H144.163ZM171.248 92.8195C171.248 93.8862 171.075 94.8629 170.728 95.7495C170.382 96.6295 169.892 97.3862 169.258 98.0195C168.632 98.6529 167.875 99.1462 166.988 99.4995C166.108 99.8462 165.128 100.02 164.048 100.02H158.608V85.6195H164.048C165.128 85.6195 166.108 85.7962 166.988 86.1495C167.875 86.4962 168.632 86.9862 169.258 87.6195C169.892 88.2529 170.382 89.0129 170.728 89.8995C171.075 90.7795 171.248 91.7529 171.248 92.8195ZM168.858 92.8195C168.858 91.9929 168.745 91.2495 168.518 90.5895C168.298 89.9295 167.978 89.3729 167.558 88.9195C167.145 88.4662 166.642 88.1195 166.048 87.8795C165.455 87.6329 164.788 87.5095 164.048 87.5095H160.958V98.1295H164.048C164.788 98.1295 165.455 98.0095 166.048 97.7695C166.642 97.5295 167.145 97.1829 167.558 96.7295C167.978 96.2695 168.298 95.7129 168.518 95.0595C168.745 94.3995 168.858 93.6529 168.858 92.8195ZM179.977 93.7695C179.977 93.4095 179.923 93.0762 179.817 92.7695C179.717 92.4562 179.567 92.1862 179.367 91.9595C179.167 91.7262 178.917 91.5462 178.617 91.4195C178.323 91.2862 177.983 91.2195 177.597 91.2195C176.817 91.2195 176.203 91.4429 175.757 91.8895C175.31 92.3362 175.027 92.9629 174.907 93.7695H179.977ZM174.847 95.0895C174.873 95.6695 174.963 96.1729 175.117 96.5995C175.27 97.0195 175.473 97.3695 175.727 97.6495C175.987 97.9295 176.293 98.1395 176.647 98.2795C177.007 98.4129 177.407 98.4795 177.847 98.4795C178.267 98.4795 178.63 98.4329 178.937 98.3395C179.243 98.2395 179.51 98.1329 179.737 98.0195C179.963 97.8995 180.157 97.7929 180.317 97.6995C180.477 97.5995 180.623 97.5495 180.757 97.5495C180.93 97.5495 181.063 97.6162 181.157 97.7495L181.767 98.5395C181.513 98.8395 181.227 99.0929 180.907 99.2995C180.587 99.5062 180.247 99.6762 179.887 99.8095C179.527 99.9362 179.157 100.026 178.777 100.08C178.397 100.14 178.027 100.17 177.667 100.17C176.96 100.17 176.303 100.053 175.697 99.8195C175.097 99.5795 174.573 99.2295 174.127 98.7695C173.687 98.3095 173.34 97.7395 173.087 97.0595C172.84 96.3795 172.717 95.5962 172.717 94.7095C172.717 94.0029 172.827 93.3429 173.047 92.7295C173.273 92.1162 173.593 91.5829 174.007 91.1295C174.427 90.6762 174.933 90.3195 175.527 90.0595C176.127 89.7929 176.803 89.6595 177.557 89.6595C178.183 89.6595 178.763 89.7629 179.297 89.9695C179.83 90.1695 180.29 90.4662 180.677 90.8595C181.063 91.2529 181.363 91.7362 181.577 92.3095C181.797 92.8762 181.907 93.5229 181.907 94.2495C181.907 94.5829 181.87 94.8062 181.797 94.9195C181.723 95.0329 181.59 95.0895 181.397 95.0895H174.847ZM187.084 100.18C186.237 100.18 185.584 99.9429 185.124 99.4695C184.671 98.9895 184.444 98.3162 184.444 97.4495V91.5095H183.324C183.204 91.5095 183.101 91.4729 183.014 91.3995C182.927 91.3195 182.884 91.2029 182.884 91.0495V90.1795L184.534 89.9395L185.004 86.9895C185.037 86.8762 185.094 86.7862 185.174 86.7195C185.254 86.6462 185.361 86.6095 185.494 86.6095H186.594V89.9595H189.424V91.5095H186.594V97.2995C186.594 97.6662 186.684 97.9462 186.864 98.1395C187.044 98.3329 187.284 98.4295 187.584 98.4295C187.751 98.4295 187.894 98.4095 188.014 98.3695C188.134 98.3229 188.237 98.2762 188.324 98.2295C188.411 98.1762 188.484 98.1295 188.544 98.0895C188.611 98.0429 188.674 98.0195 188.734 98.0195C188.854 98.0195 188.951 98.0862 189.024 98.2195L189.664 99.2695C189.331 99.5629 188.937 99.7895 188.484 99.9495C188.031 100.103 187.564 100.18 187.084 100.18ZM196.569 95.5595C195.802 95.5862 195.155 95.6495 194.629 95.7495C194.102 95.8429 193.675 95.9662 193.349 96.1195C193.022 96.2662 192.785 96.4429 192.639 96.6495C192.499 96.8562 192.429 97.0829 192.429 97.3295C192.429 97.5695 192.465 97.7762 192.539 97.9495C192.619 98.1162 192.725 98.2562 192.859 98.3695C192.999 98.4762 193.159 98.5562 193.339 98.6095C193.525 98.6562 193.729 98.6795 193.949 98.6795C194.509 98.6795 194.989 98.5762 195.389 98.3695C195.795 98.1562 196.189 97.8495 196.569 97.4495V95.5595ZM190.869 91.2395C192.022 90.1662 193.395 89.6295 194.989 89.6295C195.575 89.6295 196.095 89.7262 196.549 89.9195C197.009 90.1062 197.392 90.3729 197.699 90.7195C198.012 91.0662 198.249 91.4795 198.409 91.9595C198.575 92.4329 198.659 92.9595 198.659 93.5395V100.02H197.699C197.492 100.02 197.335 99.9895 197.229 99.9295C197.122 99.8629 197.032 99.7329 196.959 99.5395L196.749 98.7095C196.489 98.9429 196.232 99.1529 195.979 99.3395C195.725 99.5195 195.462 99.6729 195.189 99.7995C194.922 99.9262 194.632 100.02 194.319 100.08C194.012 100.146 193.672 100.18 193.299 100.18C192.885 100.18 192.499 100.123 192.139 100.01C191.785 99.8962 191.479 99.7262 191.219 99.4995C190.959 99.2662 190.752 98.9795 190.599 98.6395C190.452 98.2995 190.379 97.8995 190.379 97.4395C190.379 97.0462 190.482 96.6629 190.689 96.2895C190.902 95.9162 191.249 95.5829 191.729 95.2895C192.215 94.9895 192.852 94.7429 193.639 94.5495C194.432 94.3562 195.409 94.2462 196.569 94.2195V93.5395C196.569 92.8062 196.412 92.2595 196.099 91.8995C195.785 91.5395 195.325 91.3595 194.719 91.3595C194.305 91.3595 193.959 91.4129 193.679 91.5195C193.399 91.6195 193.155 91.7295 192.949 91.8495C192.742 91.9695 192.559 92.0829 192.399 92.1895C192.239 92.2895 192.069 92.3395 191.889 92.3395C191.742 92.3395 191.615 92.3029 191.509 92.2295C191.409 92.1495 191.325 92.0529 191.259 91.9395L190.869 91.2395ZM203.417 89.8195V100.02H201.267V89.8195H203.417ZM203.777 86.7395C203.777 86.9329 203.737 87.1162 203.657 87.2895C203.584 87.4629 203.481 87.6162 203.347 87.7495C203.214 87.8762 203.057 87.9795 202.877 88.0595C202.704 88.1329 202.517 88.1695 202.317 88.1695C202.124 88.1695 201.941 88.1329 201.767 88.0595C201.601 87.9795 201.454 87.8762 201.327 87.7495C201.201 87.6162 201.097 87.4629 201.017 87.2895C200.944 87.1162 200.907 86.9329 200.907 86.7395C200.907 86.5395 200.944 86.3529 201.017 86.1795C201.097 86.0062 201.201 85.8562 201.327 85.7295C201.454 85.5962 201.601 85.4929 201.767 85.4195C201.941 85.3395 202.124 85.2995 202.317 85.2995C202.517 85.2995 202.704 85.3395 202.877 85.4195C203.057 85.4929 203.214 85.5962 203.347 85.7295C203.481 85.8562 203.584 86.0062 203.657 86.1795C203.737 86.3529 203.777 86.5395 203.777 86.7395ZM208.309 85.2195V100.02H206.159V85.2195H208.309ZM217.052 91.6695C216.999 91.7629 216.939 91.8295 216.872 91.8695C216.806 91.9095 216.722 91.9295 216.622 91.9295C216.509 91.9295 216.386 91.8962 216.252 91.8295C216.119 91.7562 215.962 91.6762 215.782 91.5895C215.602 91.5029 215.389 91.4262 215.142 91.3595C214.902 91.2862 214.619 91.2495 214.292 91.2495C214.026 91.2495 213.782 91.2829 213.562 91.3495C213.349 91.4095 213.166 91.4995 213.012 91.6195C212.866 91.7329 212.752 91.8695 212.672 92.0295C212.592 92.1829 212.552 92.3495 212.552 92.5295C212.552 92.7695 212.626 92.9695 212.772 93.1295C212.919 93.2895 213.112 93.4295 213.352 93.5495C213.592 93.6629 213.866 93.7662 214.172 93.8595C214.479 93.9529 214.792 94.0529 215.112 94.1595C215.432 94.2662 215.746 94.3895 216.052 94.5295C216.359 94.6695 216.632 94.8429 216.872 95.0495C217.112 95.2495 217.306 95.4962 217.452 95.7895C217.599 96.0762 217.672 96.4262 217.672 96.8395C217.672 97.3195 217.586 97.7629 217.412 98.1695C217.239 98.5762 216.986 98.9295 216.652 99.2295C216.319 99.5295 215.902 99.7629 215.402 99.9295C214.909 100.096 214.342 100.18 213.702 100.18C213.349 100.18 213.006 100.146 212.672 100.08C212.346 100.02 212.032 99.9362 211.732 99.8295C211.439 99.7162 211.162 99.5829 210.902 99.4295C210.649 99.2762 210.422 99.1095 210.222 98.9295L210.722 98.1095C210.782 98.0095 210.856 97.9329 210.942 97.8795C211.036 97.8195 211.149 97.7895 211.282 97.7895C211.422 97.7895 211.559 97.8362 211.692 97.9295C211.832 98.0162 211.992 98.1129 212.172 98.2195C212.359 98.3262 212.582 98.4262 212.842 98.5195C213.102 98.6062 213.426 98.6495 213.812 98.6495C214.132 98.6495 214.409 98.6129 214.642 98.5395C214.876 98.4595 215.069 98.3529 215.222 98.2195C215.376 98.0862 215.489 97.9362 215.562 97.7695C215.636 97.5962 215.672 97.4129 215.672 97.2195C215.672 96.9595 215.599 96.7462 215.452 96.5795C215.306 96.4129 215.109 96.2695 214.862 96.1495C214.622 96.0295 214.346 95.9229 214.032 95.8295C213.726 95.7362 213.412 95.6362 213.092 95.5295C212.772 95.4229 212.456 95.2995 212.142 95.1595C211.836 95.0195 211.559 94.8429 211.312 94.6295C211.072 94.4095 210.879 94.1462 210.732 93.8395C210.586 93.5262 210.512 93.1462 210.512 92.6995C210.512 92.2929 210.592 91.9062 210.752 91.5395C210.919 91.1729 211.159 90.8495 211.472 90.5695C211.792 90.2895 212.182 90.0695 212.642 89.9095C213.109 89.7429 213.646 89.6595 214.252 89.6595C214.939 89.6595 215.562 89.7695 216.122 89.9895C216.682 90.2095 217.152 90.5095 217.532 90.8895L217.052 91.6695Z" fill="#797F94"/>
<path opacity="0.3" d="M569.73 98.3295C569.923 98.3295 570.077 98.3862 570.19 98.4995C570.303 98.6129 570.36 98.7595 570.36 98.9395V100.02H560.8V99.4095C560.8 99.2829 560.827 99.1529 560.88 99.0195C560.933 98.8862 561.017 98.7629 561.13 98.6495L565.72 94.0395C566.1 93.6529 566.447 93.2829 566.76 92.9295C567.073 92.5695 567.34 92.2095 567.56 91.8495C567.78 91.4895 567.95 91.1262 568.07 90.7595C568.19 90.3862 568.25 89.9895 568.25 89.5695C568.25 89.1495 568.183 88.7829 568.05 88.4695C567.917 88.1495 567.733 87.8862 567.5 87.6795C567.273 87.4729 567.003 87.3195 566.69 87.2195C566.377 87.1129 566.04 87.0595 565.68 87.0595C565.313 87.0595 564.977 87.1129 564.67 87.2195C564.363 87.3262 564.09 87.4762 563.85 87.6695C563.617 87.8562 563.42 88.0795 563.26 88.3395C563.1 88.5995 562.987 88.8862 562.92 89.1995C562.84 89.4329 562.73 89.5895 562.59 89.6695C562.457 89.7429 562.267 89.7629 562.02 89.7295L561.09 89.5695C561.183 88.9162 561.363 88.3395 561.63 87.8395C561.903 87.3329 562.243 86.9095 562.65 86.5695C563.063 86.2295 563.533 85.9729 564.06 85.7995C564.587 85.6195 565.157 85.5295 565.77 85.5295C566.377 85.5295 566.943 85.6195 567.47 85.7995C567.997 85.9795 568.453 86.2429 568.84 86.5895C569.227 86.9295 569.53 87.3462 569.75 87.8395C569.97 88.3329 570.08 88.8929 570.08 89.5195C570.08 90.0529 570 90.5495 569.84 91.0095C569.68 91.4629 569.463 91.8962 569.19 92.3095C568.917 92.7229 568.6 93.1262 568.24 93.5195C567.887 93.9129 567.51 94.3095 567.11 94.7095L563.33 98.5695C563.597 98.4962 563.867 98.4395 564.14 98.3995C564.413 98.3529 564.677 98.3295 564.93 98.3295H569.73ZM580.349 100.02H578.409V85.6895H580.349V100.02ZM598.924 85.6895V100.02H597.224V89.4895C597.224 89.3495 597.227 89.1995 597.234 89.0395C597.247 88.8795 597.261 88.7162 597.274 88.5495L592.354 97.5095C592.201 97.8095 591.967 97.9595 591.654 97.9595H591.374C591.061 97.9595 590.827 97.8095 590.674 97.5095L585.654 88.5095C585.694 88.8629 585.714 89.1895 585.714 89.4895V100.02H584.014V85.6895H585.444C585.617 85.6895 585.751 85.7062 585.844 85.7395C585.937 85.7729 586.027 85.8662 586.114 86.0195L591.064 94.8395C591.144 94.9995 591.221 95.1662 591.294 95.3395C591.374 95.5129 591.447 95.6895 591.514 95.8695C591.581 95.6895 591.651 95.5129 591.724 95.3395C591.797 95.1595 591.877 94.9895 591.964 94.8295L596.824 86.0195C596.904 85.8662 596.991 85.7729 597.084 85.7395C597.184 85.7062 597.321 85.6895 597.494 85.6895H598.924ZM611.428 98.4395L611.418 100.02H602.588V85.6895H611.418V87.2695H604.528V92.0295H610.108V93.5495H604.528V98.4395H611.428ZM616.071 100.02H614.131V85.6895H616.071V100.02ZM624.924 91.5595C624.844 91.7062 624.72 91.7795 624.554 91.7795C624.454 91.7795 624.34 91.7429 624.214 91.6695C624.087 91.5962 623.93 91.5162 623.744 91.4295C623.564 91.3362 623.347 91.2529 623.094 91.1795C622.84 91.0995 622.54 91.0595 622.194 91.0595C621.894 91.0595 621.624 91.0995 621.384 91.1795C621.144 91.2529 620.937 91.3562 620.764 91.4895C620.597 91.6229 620.467 91.7795 620.374 91.9595C620.287 92.1329 620.244 92.3229 620.244 92.5295C620.244 92.7895 620.317 93.0062 620.464 93.1795C620.617 93.3529 620.817 93.5029 621.064 93.6295C621.31 93.7562 621.59 93.8695 621.904 93.9695C622.217 94.0629 622.537 94.1662 622.864 94.2795C623.197 94.3862 623.52 94.5062 623.834 94.6395C624.147 94.7729 624.427 94.9395 624.674 95.1395C624.92 95.3395 625.117 95.5862 625.264 95.8795C625.417 96.1662 625.494 96.5129 625.494 96.9195C625.494 97.3862 625.41 97.8195 625.244 98.2195C625.077 98.6129 624.83 98.9562 624.504 99.2495C624.177 99.5362 623.777 99.7629 623.304 99.9295C622.83 100.096 622.284 100.18 621.664 100.18C620.957 100.18 620.317 100.066 619.744 99.8395C619.17 99.6062 618.684 99.3095 618.284 98.9495L618.704 98.2695C618.757 98.1829 618.82 98.1162 618.894 98.0695C618.967 98.0229 619.06 97.9995 619.174 97.9995C619.294 97.9995 619.42 98.0462 619.554 98.1395C619.687 98.2329 619.847 98.3362 620.034 98.4495C620.227 98.5629 620.46 98.6662 620.734 98.7595C621.007 98.8529 621.347 98.8995 621.754 98.8995C622.1 98.8995 622.404 98.8562 622.664 98.7695C622.924 98.6762 623.14 98.5529 623.314 98.3995C623.487 98.2462 623.614 98.0695 623.694 97.8695C623.78 97.6695 623.824 97.4562 623.824 97.2295C623.824 96.9495 623.747 96.7195 623.594 96.5395C623.447 96.3529 623.25 96.1962 623.004 96.0695C622.757 95.9362 622.474 95.8229 622.154 95.7295C621.84 95.6295 621.517 95.5262 621.184 95.4195C620.857 95.3129 620.534 95.1929 620.214 95.0595C619.9 94.9195 619.62 94.7462 619.374 94.5395C619.127 94.3329 618.927 94.0795 618.774 93.7795C618.627 93.4729 618.554 93.1029 618.554 92.6695C618.554 92.2829 618.634 91.9129 618.794 91.5595C618.954 91.1995 619.187 90.8862 619.494 90.6195C619.8 90.3462 620.177 90.1295 620.624 89.9695C621.07 89.8095 621.58 89.7295 622.154 89.7295C622.82 89.7295 623.417 89.8362 623.944 90.0495C624.477 90.2562 624.937 90.5429 625.324 90.9095L624.924 91.5595Z" fill="#797F94"/>
<mask id="path-4-inside-1_45_603" fill="white">
<path d="M65 120.02H653V330.02H65V120.02Z"/>
</mask>
<path d="M65 122.02H653V118.02H65V122.02Z" fill="#FAFAFA" mask="url(#path-4-inside-1_45_603)"/>
<rect width="154" height="171" rx="8" transform="matrix(1 0 0 -1 91 321)" fill="#FAFAFA"/>
<rect width="89" height="14" rx="7" transform="matrix(1 0 0 -1 270 164)" fill="#FAFAFA"/>
<rect width="54" height="14" rx="7" transform="matrix(1 0 0 -1 270 230)" fill="#FAFAFA"/>
<rect width="357" height="14" rx="7" transform="matrix(1 0 0 -1 270 188)" fill="#FAFAFA"/>
<rect width="357" height="14" rx="7" transform="matrix(1 0 0 -1 270 254)" fill="#FAFAFA"/>
</g>
</g>
<rect opacity="0.6" x="65" y="212" width="588" height="188" fill="url(#paint0_linear_45_603)"/>
<defs>
<filter id="filter0_d_45_603" x="0" y="0.0195312" width="718" height="395" filterUnits="userSpaceOnUse" color-interpolation-filters="sRGB">
<feFlood flood-opacity="0" result="BackgroundImageFix"/>
<feColorMatrix in="SourceAlpha" type="matrix" values="0 0 0 0 0 0 0 0 0 0 0 0 0 0 0 0 0 0 127 0" result="hardAlpha"/>
<feOffset/>
<feGaussianBlur stdDeviation="32.5"/>
<feComposite in2="hardAlpha" operator="out"/>
<feColorMatrix type="matrix" values="0 0 0 0 0.262915 0 0 0 0 0.280239 0 0 0 0 0.347609 0 0 0 0.06 0"/>
<feBlend mode="normal" in2="BackgroundImageFix" result="effect1_dropShadow_45_603"/>
<feBlend mode="normal" in="SourceGraphic" in2="effect1_dropShadow_45_603" result="shape"/>
</filter>
<linearGradient id="paint0_linear_45_603" x1="359" y1="400" x2="359" y2="212" gradientUnits="userSpaceOnUse">
<stop stop-color="#BCBEC2"/>
<stop offset="1" stop-color="#B9BDC5" stop-opacity="0"/>
</linearGradient>
<clipPath id="clip0_45_603">
<rect x="65" y="65.0195" width="588" height="265" rx="24" fill="white"/>
</clipPath>
</defs>
</svg>
