<svg xmlns="http://www.w3.org/2000/svg" width="21" height="21" viewBox="0 0 21 21" fill="none">
  <g clip-path="url(#clip0_48_2306)">
    <path d="M10.4116 0.5C4.88882 0.5 0.411621 4.9772 0.411621 10.5C0.411621 15.1896 3.64042 19.1248 7.99602 20.2056V13.556H5.93402V10.5H7.99602V9.1832C7.99602 5.7796 9.53642 4.202 12.878 4.202C13.5116 4.202 14.6048 4.3264 15.052 4.4504V7.2204C14.816 7.1956 14.406 7.1832 13.8968 7.1832C12.2572 7.1832 11.6236 7.8044 11.6236 9.4192V10.5H14.89L14.3288 13.556H11.6236V20.4268C16.5752 19.8288 20.412 15.6128 20.412 10.5C20.4116 4.9772 15.9344 0.5 10.4116 0.5Z" fill="#9098A0"/>
  </g>
  <defs>
    <clipPath id="clip0_48_2306">
      <rect width="20" height="20" fill="white" transform="translate(0.411621 0.5)"/>
    </clipPath>
  </defs>
</svg>