<svg width="558" height="510" viewBox="0 0 558 510" fill="none" xmlns="http://www.w3.org/2000/svg">
<rect width="558" height="510" fill="white"/>
<g opacity="0.8">
<rect x="229" y="70" width="103" height="30" rx="15" stroke="#20294C" stroke-width="2"/>
<rect x="96" y="188" width="4" height="28" rx="1" stroke="#20294C" stroke-width="2"/>
<rect x="96" y="244" width="4" height="53" rx="1" stroke="#20294C" stroke-width="2"/>
<rect x="461" y="282" width="4" height="53" rx="1" stroke="#20294C" stroke-width="2"/>
<rect x="116" y="59" width="329" height="314" rx="49" stroke="#20294C" stroke-width="2"/>
<rect x="105" y="48" width="351" height="336" rx="58" stroke="#20294C" stroke-width="2"/>
<rect x="100" y="43" width="361" height="346" rx="63" stroke="#20294C" stroke-width="2"/>
</g>
<path opacity="0.04" d="M460.469 491.617L97.5628 491.681C83.4925 491.684 72.0846 479.921 72.082 465.409L72.0613 348.703C72.0587 334.19 83.4625 322.424 97.5328 322.421L460.439 322.357C474.509 322.354 485.917 334.117 485.92 348.63L485.94 465.335C485.943 479.848 474.539 491.614 460.469 491.617Z" fill="#20294C"/>
<path d="M462.413 484.066H95.5836C81.3612 484.066 69.832 472.537 69.832 458.315V343.943C69.832 329.721 81.3612 318.191 95.5836 318.191H462.413C476.635 318.191 488.165 329.721 488.165 343.943V458.315C488.165 472.537 476.635 484.066 462.413 484.066Z" fill="white"/>
<path opacity="0.3" d="M462.413 484.066H95.5836C81.3612 484.066 69.832 472.537 69.832 458.315V343.943C69.832 329.721 81.3612 318.191 95.5836 318.191H462.413C476.635 318.191 488.165 329.721 488.165 343.943V458.315C488.165 472.537 476.635 484.066 462.413 484.066Z" stroke="#797F94" stroke-miterlimit="10"/>
<path d="M466.174 478.248L91.8579 478.314C77.3453 478.317 65.5787 466.554 65.5761 452.041L65.5554 335.336C65.5529 320.823 77.3153 309.057 91.8279 309.054L466.144 308.988C480.656 308.985 492.423 320.747 492.425 335.26L492.446 451.966C492.449 466.478 480.686 478.245 466.174 478.248Z" fill="white"/>
<path d="M105.888 435.512L101.216 447L99.688 447L95.016 435.512L96.376 435.512C96.5253 435.512 96.6453 435.549 96.736 435.624C96.832 435.699 96.904 435.795 96.952 435.912L100.056 443.72C100.131 443.912 100.203 444.123 100.272 444.352C100.347 444.581 100.413 444.821 100.472 445.072C100.525 444.821 100.584 444.581 100.648 444.352C100.712 444.123 100.781 443.912 100.856 443.72L103.952 435.912C103.989 435.805 104.056 435.712 104.152 435.632C104.253 435.552 104.376 435.512 104.52 435.512L105.888 435.512ZM112.551 442.72L110.847 438.264C110.725 437.96 110.602 437.576 110.479 437.112C110.421 437.341 110.359 437.555 110.295 437.752C110.237 437.949 110.178 438.125 110.119 438.28L108.423 442.72L112.551 442.72ZM115.919 447L114.607 447C114.458 447 114.335 446.963 114.239 446.888C114.143 446.813 114.074 446.717 114.031 446.6L113.015 443.936L107.951 443.936L106.935 446.6C106.898 446.701 106.829 446.795 106.727 446.88C106.626 446.96 106.503 447 106.359 447L105.047 447L109.623 435.512L111.343 435.512L115.919 447ZM123.93 445.568L123.93 447L117.354 447L117.354 435.512L119.058 435.512L119.058 445.568L123.93 445.568ZM127.3 447L125.588 447L125.588 435.512L127.3 435.512L127.3 447ZM140.159 441.256C140.159 442.115 140.02 442.896 139.743 443.6C139.471 444.304 139.084 444.909 138.583 445.416C138.081 445.917 137.481 446.307 136.783 446.584C136.084 446.861 135.308 447 134.455 447L130.135 447L130.135 435.512L134.455 435.512C135.308 435.512 136.084 435.651 136.783 435.928C137.481 436.205 138.081 436.597 138.583 437.104C139.084 437.605 139.471 438.211 139.743 438.92C140.02 439.624 140.159 440.403 140.159 441.256ZM138.415 441.256C138.415 440.573 138.321 439.963 138.135 439.424C137.948 438.88 137.681 438.421 137.335 438.048C136.993 437.669 136.577 437.381 136.087 437.184C135.601 436.987 135.057 436.888 134.455 436.888L131.847 436.888L131.847 445.624L134.455 445.624C135.057 445.624 135.601 445.525 136.087 445.328C136.577 445.131 136.993 444.845 137.335 444.472C137.681 444.093 137.948 443.635 138.135 443.096C138.321 442.557 138.415 441.944 138.415 441.256ZM148.066 447L146.354 447L146.354 435.512L148.066 435.512L148.066 447ZM162.98 435.512L162.98 447L161.492 447L161.492 438.824C161.492 438.701 161.495 438.571 161.5 438.432C161.511 438.293 161.522 438.152 161.532 438.008L157.708 445.024C157.575 445.285 157.37 445.416 157.092 445.416L156.852 445.416C156.575 445.416 156.372 445.285 156.244 445.024L152.348 437.984C152.38 438.283 152.396 438.563 152.396 438.824L152.396 447L150.9 447L150.9 435.512L152.164 435.512C152.314 435.512 152.428 435.528 152.508 435.56C152.594 435.587 152.674 435.667 152.748 435.8L156.588 442.68C156.663 442.819 156.732 442.965 156.796 443.12C156.86 443.275 156.922 443.429 156.98 443.584C157.092 443.269 157.223 442.965 157.372 442.672L161.14 435.8C161.21 435.667 161.284 435.587 161.364 435.56C161.45 435.528 161.567 435.512 161.716 435.512L162.98 435.512ZM172.95 445.616L172.942 447L165.822 447L165.822 435.512L172.942 435.512L172.942 436.896L167.534 436.896L167.534 440.536L171.886 440.536L171.886 441.872L167.534 441.872L167.534 445.616L172.95 445.616ZM176.769 447L175.057 447L175.057 435.512L176.769 435.512L176.769 447Z" fill="#797F94"/>
<path opacity="0.5" d="M333.621 442.864L333.621 438.136C333.621 437.997 333.627 437.845 333.637 437.68C333.648 437.515 333.664 437.347 333.685 437.176L329.509 442.864L333.621 442.864ZM336.605 442.864L336.605 443.68C336.605 443.765 336.579 443.837 336.525 443.896C336.477 443.955 336.4 443.984 336.293 443.984L334.869 443.984L334.869 447L333.621 447L333.621 443.984L328.533 443.984C328.427 443.984 328.333 443.955 328.253 443.896C328.179 443.832 328.131 443.755 328.109 443.664L327.965 442.936L333.541 435.536L334.869 435.536L334.869 442.864L336.605 442.864ZM341.703 445.992C342.076 445.992 342.409 445.941 342.703 445.84C343.001 445.733 343.252 445.587 343.455 445.4C343.663 445.208 343.82 444.981 343.927 444.72C344.039 444.453 344.095 444.16 344.095 443.84C344.095 443.445 344.028 443.109 343.895 442.832C343.767 442.549 343.591 442.32 343.367 442.144C343.148 441.968 342.895 441.84 342.607 441.76C342.319 441.675 342.017 441.632 341.703 441.632C341.388 441.632 341.087 441.675 340.799 441.76C340.511 441.84 340.255 441.968 340.031 442.144C339.812 442.32 339.636 442.549 339.503 442.832C339.375 443.109 339.311 443.445 339.311 443.84C339.311 444.16 339.364 444.453 339.471 444.72C339.583 444.981 339.74 445.208 339.943 445.4C340.151 445.587 340.401 445.733 340.695 445.84C340.993 445.941 341.329 445.992 341.703 445.992ZM341.703 436.512C341.361 436.512 341.06 436.563 340.799 436.664C340.543 436.765 340.327 436.904 340.151 437.08C339.98 437.256 339.849 437.461 339.759 437.696C339.673 437.931 339.631 438.181 339.631 438.448C339.631 438.709 339.668 438.963 339.743 439.208C339.817 439.453 339.937 439.672 340.103 439.864C340.268 440.051 340.481 440.203 340.743 440.32C341.009 440.432 341.329 440.488 341.703 440.488C342.076 440.488 342.393 440.432 342.655 440.32C342.921 440.203 343.137 440.051 343.303 439.864C343.468 439.672 343.588 439.453 343.663 439.208C343.737 438.963 343.775 438.709 343.775 438.448C343.775 438.181 343.729 437.931 343.639 437.696C343.553 437.461 343.423 437.256 343.247 437.08C343.076 436.904 342.86 436.765 342.599 436.664C342.343 436.563 342.044 436.512 341.703 436.512ZM343.343 441.024C344.057 441.227 344.607 441.565 344.991 442.04C345.375 442.515 345.567 443.123 345.567 443.864C345.567 444.365 345.471 444.819 345.279 445.224C345.092 445.624 344.828 445.965 344.487 446.248C344.151 446.531 343.745 446.749 343.271 446.904C342.796 447.053 342.273 447.128 341.703 447.128C341.132 447.128 340.609 447.053 340.135 446.904C339.66 446.749 339.252 446.531 338.911 446.248C338.569 445.965 338.305 445.624 338.118 445.224C337.932 444.819 337.839 444.365 337.839 443.864C337.839 443.123 338.031 442.515 338.415 442.04C338.799 441.565 339.348 441.227 340.063 441.024C339.46 440.8 339.004 440.467 338.695 440.024C338.391 439.576 338.238 439.043 338.238 438.424C338.238 438.003 338.321 437.608 338.487 437.24C338.652 436.872 338.887 436.552 339.191 436.28C339.495 436.008 339.857 435.795 340.279 435.64C340.705 435.485 341.18 435.408 341.703 435.408C342.22 435.408 342.692 435.485 343.119 435.64C343.545 435.795 343.911 436.008 344.215 436.28C344.519 436.552 344.753 436.872 344.919 437.24C345.084 437.608 345.167 438.003 345.167 438.424C345.167 439.043 345.012 439.576 344.703 440.024C344.399 440.467 343.945 440.8 343.343 441.024ZM355.144 441.272C355.144 442.275 355.034 443.144 354.816 443.88C354.602 444.611 354.309 445.216 353.936 445.696C353.562 446.176 353.12 446.533 352.608 446.768C352.101 447.003 351.557 447.12 350.976 447.12C350.389 447.12 349.842 447.003 349.336 446.768C348.834 446.533 348.397 446.176 348.024 445.696C347.65 445.216 347.357 444.611 347.144 443.88C346.93 443.144 346.824 442.275 346.824 441.272C346.824 440.269 346.93 439.4 347.144 438.664C347.357 437.928 347.65 437.32 348.024 436.84C348.397 436.355 348.834 435.995 349.336 435.76C349.842 435.525 350.389 435.408 350.976 435.408C351.557 435.408 352.101 435.525 352.608 435.76C353.12 435.995 353.562 436.355 353.936 436.84C354.309 437.32 354.602 437.928 354.816 438.664C355.034 439.4 355.144 440.269 355.144 441.272ZM353.664 441.272C353.664 440.397 353.589 439.664 353.44 439.072C353.296 438.475 353.098 437.995 352.848 437.632C352.602 437.269 352.317 437.011 351.992 436.856C351.666 436.696 351.328 436.616 350.976 436.616C350.624 436.616 350.285 436.696 349.96 436.856C349.634 437.011 349.349 437.269 349.104 437.632C348.858 437.995 348.661 438.475 348.512 439.072C348.368 439.664 348.296 440.397 348.296 441.272C348.296 442.147 348.368 442.88 348.512 443.472C348.661 444.064 348.858 444.541 349.104 444.904C349.349 445.267 349.634 445.528 349.96 445.688C350.285 445.843 350.624 445.92 350.976 445.92C351.328 445.92 351.666 445.843 351.992 445.688C352.317 445.528 352.602 445.267 352.848 444.904C353.098 444.541 353.296 444.064 353.44 443.472C353.589 442.88 353.664 442.147 353.664 441.272ZM358.521 439.864C359.118 439.736 359.668 439.672 360.169 439.672C360.766 439.672 361.294 439.76 361.753 439.936C362.212 440.112 362.593 440.355 362.897 440.664C363.206 440.973 363.438 441.339 363.593 441.76C363.753 442.181 363.833 442.64 363.833 443.136C363.833 443.744 363.726 444.293 363.513 444.784C363.305 445.275 363.014 445.696 362.641 446.048C362.273 446.395 361.838 446.661 361.337 446.848C360.836 447.035 360.294 447.128 359.713 447.128C359.377 447.128 359.054 447.093 358.745 447.024C358.436 446.96 358.145 446.872 357.873 446.76C357.606 446.648 357.358 446.52 357.129 446.376C356.9 446.232 356.697 446.08 356.521 445.92L356.961 445.312C357.057 445.173 357.182 445.104 357.337 445.104C357.444 445.104 357.564 445.147 357.697 445.232C357.83 445.312 357.993 445.403 358.185 445.504C358.377 445.605 358.601 445.699 358.857 445.784C359.118 445.864 359.428 445.904 359.785 445.904C360.185 445.904 360.545 445.84 360.865 445.712C361.185 445.584 361.46 445.403 361.689 445.168C361.918 444.928 362.094 444.643 362.217 444.312C362.34 443.981 362.401 443.611 362.401 443.2C362.401 442.843 362.348 442.52 362.241 442.232C362.14 441.944 361.982 441.699 361.769 441.496C361.561 441.293 361.3 441.136 360.985 441.024C360.67 440.912 360.302 440.856 359.881 440.856C359.593 440.856 359.292 440.88 358.977 440.928C358.668 440.976 358.35 441.053 358.025 441.16L357.129 440.896L358.049 435.536L363.481 435.536L363.481 436.16C363.481 436.363 363.417 436.531 363.289 436.664C363.166 436.792 362.953 436.856 362.649 436.856L359.049 436.856L358.521 439.864ZM369.53 445.944C369.914 445.944 370.261 445.883 370.57 445.76C370.885 445.637 371.152 445.467 371.37 445.248C371.594 445.029 371.765 444.771 371.882 444.472C372.005 444.173 372.066 443.848 372.066 443.496C372.066 443.123 372.008 442.787 371.89 442.488C371.773 442.184 371.605 441.928 371.386 441.72C371.173 441.507 370.917 441.344 370.618 441.232C370.32 441.12 369.992 441.064 369.634 441.064C369.25 441.064 368.904 441.131 368.594 441.264C368.285 441.392 368.021 441.568 367.802 441.792C367.589 442.011 367.424 442.267 367.306 442.56C367.194 442.848 367.138 443.149 367.138 443.464C367.138 443.832 367.192 444.168 367.298 444.472C367.405 444.776 367.56 445.037 367.762 445.256C367.97 445.475 368.221 445.645 368.514 445.768C368.813 445.885 369.152 445.944 369.53 445.944ZM368.698 439.832C368.597 439.96 368.498 440.085 368.402 440.208C368.312 440.325 368.224 440.443 368.138 440.56C368.41 440.373 368.709 440.229 369.034 440.128C369.36 440.027 369.714 439.976 370.098 439.976C370.562 439.976 371 440.053 371.41 440.208C371.821 440.357 372.178 440.579 372.482 440.872C372.792 441.16 373.037 441.517 373.218 441.944C373.4 442.365 373.49 442.848 373.49 443.392C373.49 443.92 373.394 444.411 373.202 444.864C373.01 445.317 372.741 445.712 372.394 446.048C372.053 446.384 371.64 446.648 371.154 446.84C370.674 447.032 370.144 447.128 369.562 447.128C368.986 447.128 368.464 447.037 367.994 446.856C367.525 446.669 367.125 446.408 366.794 446.072C366.469 445.731 366.216 445.32 366.034 444.84C365.858 444.355 365.77 443.813 365.77 443.216C365.77 442.715 365.88 442.181 366.098 441.616C366.322 441.045 366.677 440.437 367.162 439.792L370.074 435.88C370.149 435.784 370.25 435.704 370.378 435.64C370.512 435.571 370.664 435.536 370.834 435.536L372.098 435.536L368.698 439.832ZM377.084 439.864C377.681 439.736 378.23 439.672 378.732 439.672C379.329 439.672 379.857 439.76 380.316 439.936C380.774 440.112 381.156 440.355 381.46 440.664C381.769 440.973 382.001 441.339 382.156 441.76C382.316 442.181 382.396 442.64 382.396 443.136C382.396 443.744 382.289 444.293 382.076 444.784C381.868 445.275 381.577 445.696 381.204 446.048C380.836 446.395 380.401 446.661 379.9 446.848C379.398 447.035 378.857 447.128 378.276 447.128C377.94 447.128 377.617 447.093 377.308 447.024C376.998 446.96 376.708 446.872 376.436 446.76C376.169 446.648 375.921 446.52 375.692 446.376C375.462 446.232 375.26 446.08 375.084 445.92L375.524 445.312C375.62 445.173 375.745 445.104 375.9 445.104C376.006 445.104 376.126 445.147 376.26 445.232C376.393 445.312 376.556 445.403 376.748 445.504C376.94 445.605 377.164 445.699 377.42 445.784C377.681 445.864 377.99 445.904 378.348 445.904C378.748 445.904 379.108 445.84 379.428 445.712C379.748 445.584 380.022 445.403 380.252 445.168C380.481 444.928 380.657 444.643 380.78 444.312C380.902 443.981 380.964 443.611 380.964 443.2C380.964 442.843 380.91 442.52 380.804 442.232C380.702 441.944 380.545 441.699 380.332 441.496C380.124 441.293 379.862 441.136 379.548 441.024C379.233 440.912 378.865 440.856 378.444 440.856C378.156 440.856 377.854 440.88 377.54 440.928C377.23 440.976 376.913 441.053 376.588 441.16L375.692 440.896L376.612 435.536L382.044 435.536L382.044 436.16C382.044 436.363 381.98 436.531 381.852 436.664C381.729 436.792 381.516 436.856 381.212 436.856L377.612 436.856L377.084 439.864ZM391.365 445.648C391.519 445.648 391.642 445.693 391.733 445.784C391.823 445.875 391.869 445.992 391.869 446.136L391.869 447L384.221 447L384.221 446.512C384.221 446.411 384.242 446.307 384.285 446.2C384.327 446.093 384.394 445.995 384.485 445.904L388.157 442.216C388.461 441.907 388.738 441.611 388.989 441.328C389.239 441.04 389.453 440.752 389.629 440.464C389.805 440.176 389.941 439.885 390.037 439.592C390.133 439.293 390.181 438.976 390.181 438.64C390.181 438.304 390.127 438.011 390.021 437.76C389.914 437.504 389.767 437.293 389.581 437.128C389.399 436.963 389.183 436.84 388.933 436.76C388.682 436.675 388.413 436.632 388.125 436.632C387.831 436.632 387.562 436.675 387.317 436.76C387.071 436.845 386.853 436.965 386.661 437.12C386.474 437.269 386.317 437.448 386.189 437.656C386.061 437.864 385.97 438.093 385.917 438.344C385.853 438.531 385.765 438.656 385.653 438.72C385.546 438.779 385.394 438.795 385.197 438.768L384.453 438.64C384.527 438.117 384.671 437.656 384.885 437.256C385.103 436.851 385.375 436.512 385.701 436.24C386.031 435.968 386.407 435.763 386.829 435.624C387.25 435.48 387.706 435.408 388.197 435.408C388.682 435.408 389.135 435.48 389.557 435.624C389.978 435.768 390.343 435.979 390.653 436.256C390.962 436.528 391.205 436.861 391.381 437.256C391.557 437.651 391.645 438.099 391.645 438.6C391.645 439.027 391.581 439.424 391.453 439.792C391.325 440.155 391.151 440.501 390.933 440.832C390.714 441.163 390.461 441.485 390.173 441.8C389.89 442.115 389.589 442.432 389.269 442.752L386.245 445.84C386.458 445.781 386.674 445.736 386.893 445.704C387.111 445.667 387.322 445.648 387.525 445.648L391.365 445.648ZM401.398 435.536L401.398 436.176C401.398 436.357 401.377 436.507 401.334 436.624C401.297 436.741 401.259 436.84 401.222 436.92L396.47 446.496C396.401 446.635 396.305 446.755 396.182 446.856C396.059 446.952 395.897 447 395.694 447L394.67 447L399.486 437.544C399.555 437.411 399.627 437.288 399.702 437.176C399.777 437.064 399.857 436.957 399.942 436.856L393.958 436.856C393.867 436.856 393.787 436.821 393.718 436.752C393.649 436.677 393.614 436.595 393.614 436.504L393.614 435.536L401.398 435.536ZM404.295 438.904C404.295 439.267 404.346 439.592 404.447 439.88C404.554 440.163 404.703 440.403 404.895 440.6C405.093 440.797 405.33 440.947 405.607 441.048C405.89 441.149 406.205 441.2 406.551 441.2C406.935 441.2 407.274 441.139 407.567 441.016C407.866 440.888 408.117 440.72 408.319 440.512C408.522 440.304 408.677 440.064 408.783 439.792C408.89 439.52 408.943 439.237 408.943 438.944C408.943 438.587 408.885 438.264 408.767 437.976C408.655 437.683 408.498 437.435 408.295 437.232C408.093 437.029 407.85 436.875 407.567 436.768C407.29 436.656 406.983 436.6 406.647 436.6C406.295 436.6 405.975 436.659 405.687 436.776C405.399 436.888 405.151 437.045 404.943 437.248C404.735 437.451 404.575 437.693 404.463 437.976C404.351 438.259 404.295 438.568 404.295 438.904ZM407.623 442.432C407.741 442.277 407.85 442.131 407.951 441.992C408.053 441.853 408.149 441.715 408.239 441.576C407.946 441.811 407.615 441.989 407.247 442.112C406.879 442.235 406.49 442.296 406.079 442.296C405.647 442.296 405.237 442.224 404.847 442.08C404.463 441.936 404.125 441.725 403.831 441.448C403.538 441.165 403.303 440.821 403.127 440.416C402.957 440.005 402.871 439.536 402.871 439.008C402.871 438.507 402.965 438.037 403.151 437.6C403.338 437.163 403.599 436.781 403.935 436.456C404.271 436.131 404.671 435.875 405.135 435.688C405.599 435.501 406.109 435.408 406.663 435.408C407.213 435.408 407.711 435.499 408.159 435.68C408.607 435.861 408.991 436.115 409.311 436.44C409.631 436.765 409.877 437.155 410.047 437.608C410.223 438.061 410.311 438.563 410.311 439.112C410.311 439.443 410.279 439.757 410.215 440.056C410.157 440.349 410.069 440.64 409.951 440.928C409.839 441.211 409.701 441.493 409.535 441.776C409.37 442.053 409.183 442.339 408.975 442.632L406.183 446.664C406.114 446.765 406.015 446.848 405.887 446.912C405.759 446.971 405.613 447 405.447 447L404.135 447L407.623 442.432ZM417.153 442.864L417.153 438.136C417.153 437.997 417.158 437.845 417.169 437.68C417.179 437.515 417.195 437.347 417.217 437.176L413.041 442.864L417.153 442.864ZM420.137 442.864L420.137 443.68C420.137 443.765 420.11 443.837 420.057 443.896C420.009 443.955 419.931 443.984 419.825 443.984L418.401 443.984L418.401 447L417.153 447L417.153 443.984L412.065 443.984C411.958 443.984 411.865 443.955 411.785 443.896C411.71 443.832 411.662 443.755 411.641 443.664L411.497 442.936L417.073 435.536L418.401 435.536L418.401 442.864L420.137 442.864ZM428.738 445.912L428.738 447L422.594 447L422.594 445.912L425.05 445.912L425.05 438.096C425.05 437.861 425.058 437.624 425.074 437.384L423.034 439.136C422.964 439.195 422.895 439.232 422.826 439.248C422.756 439.259 422.692 439.259 422.634 439.248C422.575 439.237 422.519 439.216 422.466 439.184C422.418 439.152 422.38 439.117 422.354 439.08L421.906 438.464L425.322 435.512L426.482 435.512L426.482 445.912L428.738 445.912ZM438.675 441.272C438.675 442.275 438.566 443.144 438.347 443.88C438.134 444.611 437.84 445.216 437.467 445.696C437.094 446.176 436.651 446.533 436.139 446.768C435.632 447.003 435.088 447.12 434.507 447.12C433.92 447.12 433.374 447.003 432.867 446.768C432.366 446.533 431.928 446.176 431.555 445.696C431.182 445.216 430.888 444.611 430.675 443.88C430.462 443.144 430.355 442.275 430.355 441.272C430.355 440.269 430.462 439.4 430.675 438.664C430.888 437.928 431.182 437.32 431.555 436.84C431.928 436.355 432.366 435.995 432.867 435.76C433.374 435.525 433.92 435.408 434.507 435.408C435.088 435.408 435.632 435.525 436.139 435.76C436.651 435.995 437.094 436.355 437.467 436.84C437.84 437.32 438.134 437.928 438.347 438.664C438.566 439.4 438.675 440.269 438.675 441.272ZM437.195 441.272C437.195 440.397 437.12 439.664 436.971 439.072C436.827 438.475 436.63 437.995 436.379 437.632C436.134 437.269 435.848 437.011 435.523 436.856C435.198 436.696 434.859 436.616 434.507 436.616C434.155 436.616 433.816 436.696 433.491 436.856C433.166 437.011 432.88 437.269 432.635 437.632C432.39 437.995 432.192 438.475 432.043 439.072C431.899 439.664 431.827 440.397 431.827 441.272C431.827 442.147 431.899 442.88 432.043 443.472C432.192 444.064 432.39 444.541 432.635 444.904C432.88 445.267 433.166 445.528 433.491 445.688C433.816 445.843 434.155 445.92 434.507 445.92C434.859 445.92 435.198 445.843 435.523 445.688C435.848 445.528 436.134 445.267 436.379 444.904C436.63 444.541 436.827 444.064 436.971 443.472C437.12 442.88 437.195 442.147 437.195 441.272ZM447.052 445.648C447.207 445.648 447.33 445.693 447.42 445.784C447.511 445.875 447.556 445.992 447.556 446.136L447.556 447L439.908 447L439.908 446.512C439.908 446.411 439.93 446.307 439.972 446.2C440.015 446.093 440.082 445.995 440.172 445.904L443.844 442.216C444.148 441.907 444.426 441.611 444.676 441.328C444.927 441.04 445.14 440.752 445.316 440.464C445.492 440.176 445.628 439.885 445.724 439.592C445.82 439.293 445.868 438.976 445.868 438.64C445.868 438.304 445.815 438.011 445.708 437.76C445.602 437.504 445.455 437.293 445.268 437.128C445.087 436.963 444.871 436.84 444.62 436.76C444.37 436.675 444.1 436.632 443.812 436.632C443.519 436.632 443.25 436.675 443.004 436.76C442.759 436.845 442.54 436.965 442.348 437.12C442.162 437.269 442.004 437.448 441.876 437.656C441.748 437.864 441.658 438.093 441.604 438.344C441.54 438.531 441.452 438.656 441.34 438.72C441.234 438.779 441.082 438.795 440.884 438.768L440.14 438.64C440.215 438.117 440.359 437.656 440.572 437.256C440.791 436.851 441.063 436.512 441.388 436.24C441.719 435.968 442.095 435.763 442.516 435.624C442.938 435.48 443.394 435.408 443.884 435.408C444.37 435.408 444.823 435.48 445.244 435.624C445.666 435.768 446.031 435.979 446.34 436.256C446.65 436.528 446.892 436.861 447.068 437.256C447.244 437.651 447.332 438.099 447.332 438.6C447.332 439.027 447.268 439.424 447.14 439.792C447.012 440.155 446.839 440.501 446.62 440.832C446.402 441.163 446.148 441.485 445.86 441.8C445.578 442.115 445.276 442.432 444.956 442.752L441.932 445.84C442.146 445.781 442.362 445.736 442.58 445.704C442.799 445.667 443.01 445.648 443.212 445.648L447.052 445.648ZM456.582 445.912L456.582 447L450.437 447L450.437 445.912L452.894 445.912L452.894 438.096C452.894 437.861 452.902 437.624 452.918 437.384L450.878 439.136C450.808 439.195 450.739 439.232 450.67 439.248C450.6 439.259 450.536 439.259 450.478 439.248C450.419 439.237 450.363 439.216 450.31 439.184C450.262 439.152 450.224 439.117 450.198 439.08L449.75 438.464L453.166 435.512L454.326 435.512L454.326 445.912L456.582 445.912ZM466.367 435.536L466.367 436.176C466.367 436.357 466.345 436.507 466.303 436.624C466.265 436.741 466.228 436.84 466.191 436.92L461.439 446.496C461.369 446.635 461.273 446.755 461.151 446.856C461.028 446.952 460.865 447 460.663 447L459.639 447L464.455 437.544C464.524 437.411 464.596 437.288 464.671 437.176C464.745 437.064 464.825 436.957 464.911 436.856L458.927 436.856C458.836 436.856 458.756 436.821 458.687 436.752C458.617 436.677 458.583 436.595 458.583 436.504L458.583 435.536L466.367 435.536Z" fill="#797F94"/>
<path d="M114.272 406.289L114.272 422.25L111.357 422.25L111.357 412.449C111.357 412.244 111.361 412.024 111.368 411.789C111.383 411.554 111.405 411.316 111.434 411.074L106.869 419.731C106.62 420.208 106.235 420.446 105.714 420.446L105.252 420.446C104.995 420.446 104.768 420.387 104.57 420.27C104.372 420.145 104.214 419.966 104.097 419.731L99.51 411.041C99.532 411.298 99.5503 411.547 99.565 411.789C99.5797 412.024 99.587 412.244 99.587 412.449L99.587 422.25L96.672 422.25L96.672 406.289L99.18 406.289C99.3193 406.289 99.444 406.293 99.554 406.3C99.664 406.307 99.7593 406.329 99.84 406.366C99.928 406.395 100.005 406.447 100.071 406.52C100.144 406.586 100.214 406.681 100.28 406.806L104.746 415.32C104.885 415.577 105.014 415.841 105.131 416.112C105.256 416.383 105.373 416.662 105.483 416.948C105.593 416.655 105.707 416.369 105.824 416.09C105.949 415.811 106.081 415.544 106.22 415.287L110.653 406.806C110.719 406.681 110.789 406.586 110.862 406.52C110.935 406.447 111.012 406.395 111.093 406.366C111.181 406.329 111.276 406.307 111.379 406.3C111.489 406.293 111.617 406.289 111.764 406.289L114.272 406.289ZM133.02 414.264C133.02 415.43 132.822 416.512 132.426 417.509C132.037 418.506 131.483 419.368 130.765 420.094C130.053 420.82 129.195 421.392 128.191 421.81C127.186 422.221 126.071 422.426 124.847 422.426C123.622 422.426 122.507 422.221 121.503 421.81C120.498 421.392 119.636 420.82 118.918 420.094C118.199 419.368 117.642 418.506 117.246 417.509C116.857 416.512 116.663 415.43 116.663 414.264C116.663 413.098 116.857 412.02 117.246 411.03C117.642 410.033 118.199 409.171 118.918 408.445C119.636 407.719 120.498 407.151 121.503 406.74C122.507 406.322 123.622 406.113 124.847 406.113C126.071 406.113 127.186 406.322 128.191 406.74C129.195 407.151 130.053 407.723 130.765 408.456C131.483 409.182 132.037 410.044 132.426 411.041C132.822 412.031 133.02 413.105 133.02 414.264ZM129.643 414.264C129.643 413.428 129.533 412.68 129.313 412.02C129.093 411.353 128.774 410.788 128.356 410.326C127.945 409.857 127.443 409.501 126.849 409.259C126.262 409.01 125.595 408.885 124.847 408.885C124.099 408.885 123.428 409.01 122.834 409.259C122.24 409.501 121.734 409.857 121.316 410.326C120.905 410.788 120.59 411.353 120.37 412.02C120.15 412.68 120.04 413.428 120.04 414.264C120.04 415.107 120.15 415.863 120.37 416.53C120.59 417.19 120.905 417.751 121.316 418.213C121.734 418.675 122.24 419.031 122.834 419.28C123.428 419.522 124.099 419.643 124.847 419.643C125.595 419.643 126.262 419.522 126.849 419.28C127.443 419.031 127.945 418.675 128.356 418.213C128.774 417.751 129.093 417.19 129.313 416.53C129.533 415.863 129.643 415.107 129.643 414.264ZM141.557 419.72C142.085 419.72 142.517 419.658 142.855 419.533C143.199 419.401 143.474 419.229 143.68 419.016C143.885 418.803 144.028 418.561 144.109 418.29C144.189 418.011 144.23 417.725 144.23 417.432C144.23 417.109 144.182 416.82 144.087 416.563C143.991 416.306 143.837 416.09 143.625 415.914C143.412 415.731 143.133 415.591 142.789 415.496C142.451 415.401 142.033 415.353 141.535 415.353L138.73 415.353L138.73 419.72L141.557 419.72ZM138.73 408.797L138.73 413.109L140.897 413.109C141.359 413.109 141.769 413.072 142.129 412.999C142.488 412.918 142.789 412.794 143.031 412.625C143.273 412.456 143.456 412.236 143.581 411.965C143.713 411.686 143.779 411.353 143.779 410.964C143.779 410.568 143.724 410.231 143.614 409.952C143.511 409.673 143.35 409.45 143.13 409.281C142.91 409.112 142.631 408.991 142.294 408.918C141.956 408.837 141.557 408.797 141.095 408.797L138.73 408.797ZM141.095 406.289C142.165 406.289 143.078 406.392 143.834 406.597C144.596 406.795 145.216 407.081 145.693 407.455C146.177 407.822 146.529 408.269 146.749 408.797C146.969 409.325 147.079 409.915 147.079 410.568C147.079 410.935 147.024 411.287 146.914 411.624C146.811 411.961 146.646 412.28 146.419 412.581C146.199 412.874 145.913 413.142 145.561 413.384C145.209 413.626 144.791 413.831 144.307 414C145.392 414.257 146.195 414.675 146.716 415.254C147.236 415.833 147.497 416.585 147.497 417.509C147.497 418.184 147.365 418.811 147.101 419.39C146.844 419.969 146.466 420.472 145.968 420.897C145.469 421.322 144.853 421.656 144.12 421.898C143.394 422.133 142.558 422.25 141.612 422.25L135.43 422.25L135.43 406.289L141.095 406.289ZM153.34 422.25L150.018 422.25L150.018 406.289L153.34 406.289L153.34 422.25ZM166.149 419.566L166.149 422.25L156.678 422.25L156.678 406.289L159.978 406.289L159.978 419.566L166.149 419.566ZM171.494 408.874L171.494 412.977L176.818 412.977L176.818 415.474L171.494 415.474L171.494 419.665L178.336 419.665L178.336 422.25L168.172 422.25L168.172 406.289L178.336 406.289L178.336 408.874L171.494 408.874ZM200.337 414.264C200.337 415.43 200.139 416.504 199.743 417.487C199.354 418.462 198.8 419.302 198.082 420.006C197.37 420.71 196.512 421.26 195.508 421.656C194.503 422.052 193.388 422.25 192.164 422.25L186.026 422.25L186.026 406.289L192.164 406.289C193.388 406.289 194.503 406.487 195.508 406.883C196.512 407.279 197.37 407.833 198.082 408.544C198.8 409.248 199.354 410.088 199.743 411.063C200.139 412.038 200.337 413.105 200.337 414.264ZM196.949 414.264C196.949 413.428 196.839 412.676 196.619 412.009C196.399 411.342 196.083 410.777 195.673 410.315C195.262 409.853 194.76 409.497 194.166 409.248C193.579 408.999 192.912 408.874 192.164 408.874L189.348 408.874L189.348 419.665L192.164 419.665C192.912 419.665 193.579 419.544 194.166 419.302C194.76 419.053 195.262 418.697 195.673 418.235C196.083 417.766 196.399 417.197 196.619 416.53C196.839 415.863 196.949 415.107 196.949 414.264ZM206.084 408.874L206.084 412.977L211.408 412.977L211.408 415.474L206.084 415.474L206.084 419.665L212.926 419.665L212.926 422.25L202.762 422.25L202.762 406.289L212.926 406.289L212.926 408.874L206.084 408.874ZM229.365 406.289L222.941 422.25L219.949 422.25L213.525 406.289L216.187 406.289C216.473 406.289 216.704 406.359 216.88 406.498C217.063 406.63 217.199 406.802 217.287 407.015L220.741 416.211C220.873 416.556 221.001 416.933 221.126 417.344C221.258 417.747 221.379 418.173 221.489 418.62C221.584 418.173 221.687 417.747 221.797 417.344C221.914 416.933 222.039 416.556 222.171 416.211L225.603 407.015C225.676 406.832 225.804 406.667 225.988 406.52C226.178 406.366 226.413 406.289 226.692 406.289L229.365 406.289ZM234.164 422.25L230.842 422.25L230.842 406.289L234.164 406.289L234.164 422.25ZM248.37 418.323C248.553 418.323 248.707 418.389 248.832 418.521L250.141 419.918C249.496 420.739 248.693 421.363 247.732 421.788C246.779 422.213 245.642 422.426 244.322 422.426C243.127 422.426 242.052 422.224 241.099 421.821C240.146 421.41 239.335 420.842 238.668 420.116C238.001 419.39 237.487 418.528 237.128 417.531C236.769 416.534 236.589 415.445 236.589 414.264C236.589 413.472 236.673 412.72 236.842 412.009C237.018 411.29 237.271 410.63 237.601 410.029C237.931 409.428 238.327 408.885 238.789 408.401C239.258 407.917 239.786 407.506 240.373 407.169C240.96 406.824 241.598 406.564 242.287 406.388C242.984 406.205 243.724 406.113 244.509 406.113C245.096 406.113 245.649 406.164 246.17 406.267C246.698 406.37 247.189 406.513 247.644 406.696C248.099 406.879 248.517 407.103 248.898 407.367C249.287 407.624 249.635 407.906 249.943 408.214L248.832 409.732C248.766 409.827 248.682 409.912 248.579 409.985C248.476 410.058 248.337 410.095 248.161 410.095C247.985 410.095 247.805 410.033 247.622 409.908C247.446 409.783 247.226 409.644 246.962 409.49C246.705 409.336 246.379 409.197 245.983 409.072C245.594 408.947 245.099 408.885 244.498 408.885C243.831 408.885 243.218 409.006 242.661 409.248C242.104 409.49 241.623 409.842 241.22 410.304C240.824 410.759 240.516 411.32 240.296 411.987C240.076 412.654 239.966 413.413 239.966 414.264C239.966 415.122 240.083 415.888 240.318 416.563C240.56 417.23 240.886 417.795 241.297 418.257C241.715 418.719 242.199 419.071 242.749 419.313C243.306 419.548 243.9 419.665 244.531 419.665C244.905 419.665 245.242 419.647 245.543 419.61C245.851 419.573 246.133 419.511 246.39 419.423C246.654 419.335 246.9 419.221 247.127 419.082C247.362 418.943 247.596 418.767 247.831 418.554C247.912 418.488 247.996 418.433 248.084 418.389C248.172 418.345 248.267 418.323 248.37 418.323ZM255.326 408.874L255.326 412.977L260.65 412.977L260.65 415.474L255.326 415.474L255.326 419.665L262.168 419.665L262.168 422.25L252.004 422.25L252.004 406.289L262.168 406.289L262.168 408.874L255.326 408.874Z" fill="#20294C"/>
<path opacity="0.3" d="M466.174 478.248L91.8579 478.314C77.3453 478.316 65.5787 466.554 65.5761 452.041L65.5554 335.336C65.5529 320.823 77.3153 309.057 91.8279 309.054L466.144 308.988C480.656 308.985 492.423 320.747 492.425 335.26L492.446 451.966C492.449 466.478 480.686 478.245 466.174 478.248Z" stroke="#797F94" stroke-miterlimit="10"/>
<path opacity="0.2" d="M447.675 381.53L103.175 381.591C88.3848 381.594 76.3941 369.607 76.3915 354.817C76.3888 340.028 88.3754 328.037 103.165 328.034L447.665 327.973C462.455 327.971 474.446 339.957 474.448 354.747C474.451 369.537 462.464 381.527 447.675 381.53Z" fill="#00953F"/>
<path opacity="0.08" d="M470.36 355.678C470.362 368.172 460.235 378.303 447.741 378.305C435.246 378.307 425.116 368.18 425.113 355.686C425.111 343.191 435.238 333.061 447.733 333.058C460.227 333.056 470.358 343.183 470.36 355.678Z" fill="#1D2025"/>
<path opacity="0.06" d="M470.36 358.934C470.362 371.428 460.235 381.558 447.741 381.561C435.246 381.563 425.116 371.436 425.113 358.942C425.111 346.447 435.238 336.317 447.733 336.314C460.227 336.312 470.358 346.439 470.36 358.934Z" fill="#1D2025"/>
<path d="M470.746 354.453C470.766 367.163 460.479 377.483 447.77 377.503C435.06 377.523 424.74 367.236 424.72 354.527C424.7 341.817 434.987 331.497 447.696 331.477C460.406 331.457 470.726 341.744 470.746 354.453Z" fill="#00953F"/>
<path d="M439.831 356.82L445.42 362.391C445.42 362.391 453.552 350.832 455.917 347.47" stroke="white" stroke-width="1.86" stroke-linecap="round" stroke-linejoin="round"/>
<path d="M418.442 382.355C418.725 382.067 419.141 381.644 419.652 381.127" stroke="#00953F" stroke-width="1.86" stroke-linecap="round"/>
<path d="M406.366 354.192C406.769 354.189 407.363 354.184 408.09 354.18" stroke="#00953F" stroke-width="1.86" stroke-linecap="round"/>
<path d="M417.745 325.739C418.032 326.022 418.455 326.438 418.973 326.949" stroke="#00953F" stroke-width="1.86" stroke-linecap="round"/>
<path d="M445.91 313.664C445.913 314.068 445.917 314.661 445.922 315.389" stroke="#00953F" stroke-width="1.86" stroke-linecap="round"/>
<path d="M474.359 325.042C474.076 325.329 473.659 325.752 473.148 326.27" stroke="#00953F" stroke-width="1.86" stroke-linecap="round"/>
<path d="M486.435 353.205C486.032 353.207 485.438 353.212 484.711 353.217" stroke="#00953F" stroke-width="1.86" stroke-linecap="round"/>
<path d="M475.06 381.658C474.772 381.374 474.35 380.958 473.832 380.447" stroke="#00953F" stroke-width="1.86" stroke-linecap="round"/>
<path d="M446.895 393.732C446.892 393.328 446.887 392.735 446.883 392.008" stroke="#00953F" stroke-width="1.86" stroke-linecap="round"/>
<g opacity="0.8">
<rect x="179.5" y="236.5" width="199" height="47" rx="23.5" stroke="#1D2025"/>
<path d="M271.98 260.24C271.98 261.093 271.841 261.875 271.564 262.584C271.287 263.288 270.895 263.893 270.388 264.4C269.887 264.907 269.281 265.301 268.572 265.584C267.868 265.861 267.084 266 266.22 266H261.868V254.48H266.22C267.084 254.48 267.868 254.621 268.572 254.904C269.281 255.181 269.887 255.573 270.388 256.08C270.895 256.587 271.287 257.195 271.564 257.904C271.841 258.608 271.98 259.387 271.98 260.24ZM270.068 260.24C270.068 259.579 269.977 258.984 269.796 258.456C269.62 257.928 269.364 257.483 269.028 257.12C268.697 256.757 268.295 256.48 267.82 256.288C267.345 256.091 266.812 255.992 266.22 255.992H263.748V264.488H266.22C266.812 264.488 267.345 264.392 267.82 264.2C268.295 264.008 268.697 263.731 269.028 263.368C269.364 263 269.62 262.555 269.796 262.032C269.977 261.504 270.068 260.907 270.068 260.24ZM275.92 266H274.04V254.48H275.92V266ZM284.745 261.68L283.161 257.472C283.033 257.147 282.903 256.733 282.769 256.232C282.711 256.483 282.647 256.715 282.577 256.928C282.508 257.136 282.444 257.32 282.385 257.48L280.801 261.68H284.745ZM288.289 266H286.841C286.676 266 286.543 265.96 286.441 265.88C286.34 265.795 286.263 265.691 286.209 265.568L285.249 263.024H280.289L279.329 265.568C279.287 265.675 279.212 265.773 279.105 265.864C278.999 265.955 278.865 266 278.705 266H277.257L281.825 254.48H283.721L288.289 266ZM296.29 264.432V266H289.634V254.48H291.506V264.432H296.29Z" fill="#1D2025"/>
</g>
<rect x="179" y="152.25" width="200" height="54" rx="27" fill="#FAFAFA"/>
<path d="M248.966 175.365L248.306 176.49L245.711 174.99C245.531 174.88 245.371 174.77 245.231 174.66C245.091 174.55 244.966 174.41 244.856 174.24C245.016 174.57 245.096 174.935 245.096 175.335L245.096 178.305L243.776 178.305L243.776 175.35C243.776 175.15 243.786 174.965 243.806 174.795C243.836 174.625 243.891 174.46 243.971 174.3C243.861 174.44 243.741 174.565 243.611 174.675C243.481 174.785 243.331 174.89 243.161 174.99L240.581 176.475L239.921 175.35L242.501 173.85C242.881 173.62 243.261 173.5 243.641 173.49C243.441 173.47 243.246 173.435 243.056 173.385C242.876 173.325 242.691 173.235 242.501 173.115L239.906 171.6L240.566 170.475L243.161 171.975C243.341 172.085 243.501 172.2 243.641 172.32C243.781 172.44 243.906 172.585 244.016 172.755C243.856 172.405 243.776 172.03 243.776 171.63L243.776 168.66L245.096 168.66L245.096 171.615C245.096 171.815 245.081 172.005 245.051 172.185C245.031 172.355 244.981 172.52 244.901 172.68C245.011 172.54 245.131 172.415 245.261 172.305C245.391 172.195 245.541 172.085 245.711 171.975L248.291 170.49L248.951 171.615L246.371 173.115C246.201 173.225 246.031 173.31 245.861 173.37C245.691 173.43 245.511 173.47 245.321 173.49C245.511 173.51 245.691 173.55 245.861 173.61C246.031 173.66 246.201 173.74 246.371 173.85L248.966 175.365ZM261.755 178.05L258.05 178.05L257.075 182.94L260.78 182.94L261.755 178.05ZM267.425 176.085L267.23 177.21C267.18 177.5 267.06 177.715 266.87 177.855C266.69 177.985 266.41 178.05 266.03 178.05L263.96 178.05L262.985 182.94L265.67 182.94C265.96 182.94 266.165 183.025 266.285 183.195C266.415 183.355 266.45 183.64 266.39 184.05L266.255 184.905L262.7 184.905L261.44 191.25L260.225 191.25C260.095 191.25 259.975 191.22 259.865 191.16C259.755 191.1 259.66 191.02 259.58 190.92C259.51 190.82 259.46 190.7 259.43 190.56C259.4 190.42 259.4 190.265 259.43 190.095L260.495 184.905L256.79 184.905L255.725 190.23C255.665 190.6 255.52 190.865 255.29 191.025C255.06 191.175 254.8 191.25 254.51 191.25L253.31 191.25L254.585 184.905L252.395 184.905C252.115 184.905 251.91 184.825 251.78 184.665C251.66 184.495 251.63 184.205 251.69 183.795L251.81 182.94L254.87 182.94L255.845 178.05L252.365 178.05L252.56 176.94C252.61 176.65 252.725 176.435 252.905 176.295C253.095 176.155 253.38 176.085 253.76 176.085L256.13 176.085L257.21 170.715C257.27 170.415 257.405 170.18 257.615 170.01C257.835 169.84 258.095 169.755 258.395 169.755L259.595 169.755L258.335 176.085L262.04 176.085L263.3 169.755L264.485 169.755C264.775 169.755 265 169.85 265.16 170.04C265.33 170.23 265.39 170.47 265.34 170.76L264.245 176.085L267.425 176.085ZM284.707 180.51C284.707 182.39 284.502 184.02 284.092 185.4C283.692 186.77 283.142 187.905 282.442 188.805C281.742 189.705 280.912 190.375 279.952 190.815C279.002 191.255 277.982 191.475 276.892 191.475C275.792 191.475 274.767 191.255 273.817 190.815C272.877 190.375 272.057 189.705 271.357 188.805C270.657 187.905 270.107 186.77 269.707 185.4C269.307 184.02 269.107 182.39 269.107 180.51C269.107 178.63 269.307 177 269.707 175.62C270.107 174.24 270.657 173.1 271.357 172.2C272.057 171.29 272.877 170.615 273.817 170.175C274.767 169.735 275.792 169.515 276.892 169.515C277.982 169.515 279.002 169.735 279.952 170.175C280.912 170.615 281.742 171.29 282.442 172.2C283.142 173.1 283.692 174.24 284.092 175.62C284.502 177 284.707 178.63 284.707 180.51ZM281.932 180.51C281.932 178.87 281.792 177.495 281.512 176.385C281.242 175.265 280.872 174.365 280.402 173.685C279.942 173.005 279.407 172.52 278.797 172.23C278.187 171.93 277.552 171.78 276.892 171.78C276.232 171.78 275.597 171.93 274.987 172.23C274.377 172.52 273.842 173.005 273.382 173.685C272.922 174.365 272.552 175.265 272.272 176.385C272.002 177.495 271.867 178.87 271.867 180.51C271.867 182.15 272.002 183.525 272.272 184.635C272.552 185.745 272.922 186.64 273.382 187.32C273.842 188 274.377 188.49 274.987 188.79C275.597 189.08 276.232 189.225 276.892 189.225C277.552 189.225 278.187 189.08 278.797 188.79C279.407 188.49 279.942 188 280.402 187.32C280.872 186.64 281.242 185.745 281.512 184.635C281.792 183.525 281.932 182.15 281.932 180.51ZM294.279 189.27C294.999 189.27 295.649 189.155 296.229 188.925C296.819 188.695 297.319 188.375 297.729 187.965C298.149 187.555 298.469 187.07 298.689 186.51C298.919 185.95 299.034 185.34 299.034 184.68C299.034 183.98 298.924 183.35 298.704 182.79C298.484 182.22 298.169 181.74 297.759 181.35C297.359 180.95 296.879 180.645 296.319 180.435C295.759 180.225 295.144 180.12 294.474 180.12C293.754 180.12 293.104 180.245 292.524 180.495C291.944 180.735 291.449 181.065 291.039 181.485C290.639 181.895 290.329 182.375 290.109 182.925C289.899 183.465 289.794 184.03 289.794 184.62C289.794 185.31 289.894 185.94 290.094 186.51C290.294 187.08 290.584 187.57 290.964 187.98C291.354 188.39 291.824 188.71 292.374 188.94C292.934 189.16 293.569 189.27 294.279 189.27ZM292.719 177.81C292.529 178.05 292.344 178.285 292.164 178.515C291.994 178.735 291.829 178.955 291.669 179.175C292.179 178.825 292.739 178.555 293.349 178.365C293.959 178.175 294.624 178.08 295.344 178.08C296.214 178.08 297.034 178.225 297.804 178.515C298.574 178.795 299.244 179.21 299.814 179.76C300.394 180.3 300.854 180.97 301.194 181.77C301.534 182.56 301.704 183.465 301.704 184.485C301.704 185.475 301.524 186.395 301.164 187.245C300.804 188.095 300.299 188.835 299.649 189.465C299.009 190.095 298.234 190.59 297.324 190.95C296.424 191.31 295.429 191.49 294.339 191.49C293.259 191.49 292.279 191.32 291.399 190.98C290.519 190.63 289.769 190.14 289.149 189.51C288.539 188.87 288.064 188.1 287.724 187.2C287.394 186.29 287.229 185.275 287.229 184.155C287.229 183.215 287.434 182.215 287.844 181.155C288.264 180.085 288.929 178.945 289.839 177.735L295.299 170.4C295.439 170.22 295.629 170.07 295.869 169.95C296.119 169.82 296.404 169.755 296.724 169.755L299.094 169.755L292.719 177.81ZM313.962 178.05L310.257 178.05L309.282 182.94L312.987 182.94L313.962 178.05ZM319.632 176.085L319.437 177.21C319.387 177.5 319.267 177.715 319.077 177.855C318.897 177.985 318.617 178.05 318.237 178.05L316.167 178.05L315.192 182.94L317.877 182.94C318.167 182.94 318.372 183.025 318.492 183.195C318.622 183.355 318.657 183.64 318.597 184.05L318.462 184.905L314.907 184.905L313.647 191.25L312.432 191.25C312.302 191.25 312.182 191.22 312.072 191.16C311.962 191.1 311.867 191.02 311.787 190.92C311.717 190.82 311.667 190.7 311.637 190.56C311.607 190.42 311.607 190.265 311.637 190.095L312.702 184.905L308.997 184.905L307.932 190.23C307.872 190.6 307.727 190.865 307.497 191.025C307.267 191.175 307.007 191.25 306.717 191.25L305.517 191.25L306.792 184.905L304.602 184.905C304.322 184.905 304.117 184.825 303.987 184.665C303.867 184.495 303.837 184.205 303.897 183.795L304.017 182.94L307.077 182.94L308.052 178.05L304.572 178.05L304.767 176.94C304.817 176.65 304.932 176.435 305.112 176.295C305.302 176.155 305.587 176.085 305.967 176.085L308.337 176.085L309.417 170.715C309.477 170.415 309.612 170.18 309.822 170.01C310.042 169.84 310.302 169.755 310.602 169.755L311.802 169.755L310.542 176.085L314.247 176.085L315.507 169.755L316.692 169.755C316.982 169.755 317.207 169.85 317.367 170.04C317.537 170.23 317.597 170.47 317.547 170.76L316.452 176.085L319.632 176.085Z" fill="#797F94"/>
</svg>
