<svg xmlns="http://www.w3.org/2000/svg" width="21" height="21" viewBox="0 0 21 21" fill="none">
  <g clip-path="url(#clip0_48_2309)">
    <path d="M10.4116 2.30078C13.0835 2.30078 13.3999 2.3125 14.4507 2.35937C15.4272 2.40234 15.9546 2.56641 16.3062 2.70313C16.771 2.88281 17.1069 3.10156 17.4546 3.44922C17.8062 3.80078 18.021 4.13281 18.2007 4.59766C18.3374 4.94922 18.5015 5.48047 18.5444 6.45312C18.5913 7.50781 18.603 7.82422 18.603 10.4922C18.603 13.1641 18.5913 13.4805 18.5444 14.5313C18.5015 15.5078 18.3374 16.0352 18.2007 16.3867C18.021 16.8516 17.8022 17.1875 17.4546 17.5352C17.103 17.8867 16.771 18.1016 16.3062 18.2813C15.9546 18.418 15.4233 18.582 14.4507 18.625C13.396 18.6719 13.0796 18.6836 10.4116 18.6836C7.73975 18.6836 7.42334 18.6719 6.37256 18.625C5.396 18.582 4.86865 18.418 4.51709 18.2813C4.05225 18.1016 3.71631 17.8828 3.36865 17.5352C3.01709 17.1836 2.80225 16.8516 2.62256 16.3867C2.48584 16.0352 2.32178 15.5039 2.27881 14.5313C2.23193 13.4766 2.22022 13.1602 2.22022 10.4922C2.22022 7.82031 2.23193 7.50391 2.27881 6.45312C2.32178 5.47656 2.48584 4.94922 2.62256 4.59766C2.80225 4.13281 3.021 3.79688 3.36865 3.44922C3.72022 3.09766 4.05225 2.88281 4.51709 2.70313C4.86865 2.56641 5.3999 2.40234 6.37256 2.35937C7.42334 2.3125 7.73975 2.30078 10.4116 2.30078ZM10.4116 0.5C7.69678 0.5 7.35693 0.511719 6.29053 0.558594C5.22803 0.605469 4.49756 0.777344 3.86475 1.02344C3.20459 1.28125 2.646 1.62109 2.09131 2.17969C1.53272 2.73438 1.19287 3.29297 0.935059 3.94922C0.688965 4.58594 0.51709 5.3125 0.470215 6.375C0.42334 7.44531 0.411621 7.78516 0.411621 10.5C0.411621 13.2148 0.42334 13.5547 0.470215 14.6211C0.51709 15.6836 0.688965 16.4141 0.935059 17.0469C1.19287 17.707 1.53272 18.2656 2.09131 18.8203C2.646 19.375 3.20459 19.7188 3.86084 19.9727C4.49756 20.2188 5.22412 20.3906 6.28662 20.4375C7.35303 20.4844 7.69287 20.4961 10.4077 20.4961C13.1226 20.4961 13.4624 20.4844 14.5288 20.4375C15.5913 20.3906 16.3218 20.2188 16.9546 19.9727C17.6108 19.7188 18.1694 19.375 18.7241 18.8203C19.2788 18.2656 19.6226 17.707 19.8765 17.0508C20.1226 16.4141 20.2944 15.6875 20.3413 14.625C20.3882 13.5586 20.3999 13.2188 20.3999 10.5039C20.3999 7.78906 20.3882 7.44922 20.3413 6.38281C20.2944 5.32031 20.1226 4.58984 19.8765 3.95703C19.6304 3.29297 19.2905 2.73438 18.7319 2.17969C18.1772 1.625 17.6187 1.28125 16.9624 1.02734C16.3257 0.78125 15.5991 0.609375 14.5366 0.5625C13.4663 0.511719 13.1265 0.5 10.4116 0.5Z" fill="#9098A0"/>
    <path d="M10.4116 5.36328C7.57568 5.36328 5.2749 7.66406 5.2749 10.5C5.2749 13.3359 7.57568 15.6367 10.4116 15.6367C13.2476 15.6367 15.5483 13.3359 15.5483 10.5C15.5483 7.66406 13.2476 5.36328 10.4116 5.36328ZM10.4116 13.832C8.57178 13.832 7.07959 12.3398 7.07959 10.5C7.07959 8.66016 8.57178 7.16797 10.4116 7.16797C12.2515 7.16797 13.7437 8.66016 13.7437 10.5C13.7437 12.3398 12.2515 13.832 10.4116 13.832Z" fill="#9098A0"/>
    <path d="M16.9507 5.16016C16.9507 5.82422 16.4116 6.35938 15.7515 6.35938C15.0874 6.35938 14.5522 5.82031 14.5522 5.16016C14.5522 4.49609 15.0913 3.96094 15.7515 3.96094C16.4116 3.96094 16.9507 4.5 16.9507 5.16016Z" fill="#9098A0"/>
  </g>
  <defs>
    <clipPath id="clip0_48_2309">
      <rect width="20" height="20" fill="white" transform="translate(0.411621 0.5)"/>
    </clipPath>
  </defs>
</svg>