<svg xmlns="http://www.w3.org/2000/svg" width="23" height="25" viewBox="0 0 23 25" fill="none">
  <g opacity="0.9">
    <path d="M20.1252 2.46045H3.28267C2.47588 2.46045 1.82349 3.0974 1.82349 3.88491V20.7969C1.82349 21.5844 2.47588 22.2252 3.28267 22.2252H20.1252C20.932 22.2252 21.5882 21.5844 21.5882 20.8007V3.88491C21.5882 3.0974 20.932 2.46045 20.1252 2.46045ZM7.68728 19.3028H4.75345V9.86836H7.68728V19.3028ZM6.22036 8.58288C5.27846 8.58288 4.51797 7.8224 4.51797 6.88435C4.51797 5.94629 5.27846 5.18582 6.22036 5.18582C7.15842 5.18582 7.9189 5.94629 7.9189 6.88435C7.9189 7.81853 7.15842 8.58288 6.22036 8.58288ZM18.666 19.3028H15.736V14.7169C15.736 13.6244 15.7167 12.2154 14.2112 12.2154C12.6864 12.2154 12.4547 13.4082 12.4547 14.6396V19.3028H9.52863V9.86836H12.3389V11.1577H12.3775C12.7674 10.4165 13.7248 9.63288 15.1493 9.63288C18.1178 9.63288 18.666 11.5862 18.666 14.1263V19.3028Z" fill="#9098A0"/>
  </g>
</svg>