<svg width="144" height="31" viewBox="0 0 144 31" fill="none" xmlns="http://www.w3.org/2000/svg">
<g clip-path="url(#clip0_5037_292)">
<path d="M47.2854 8.22818L32.7784 27.431C32.0691 28.37 30.9604 28.9219 29.7836 28.9219C26.6847 28.9219 24.9208 25.3788 26.7888 22.9061L41.2958 3.70328C42.0051 2.76432 43.1138 2.2124 44.2906 2.2124C47.3895 2.2124 49.1534 5.75552 47.2854 8.22818Z" fill="#EC011A"/>
<path d="M22.8264 8.22818L8.31943 27.431C7.61008 28.37 6.50142 28.9219 5.32463 28.9219C2.22569 28.9219 0.461837 25.3788 2.32983 22.9061L16.8368 3.70328C17.5462 2.76432 18.6548 2.2124 19.8316 2.2124C22.9306 2.2124 24.6944 5.75552 22.8264 8.22818Z" fill="#EC011A"/>
<path d="M35.3023 8.50131L20.4256 27.4362C19.6886 28.3742 18.5618 28.9219 17.3689 28.9219C14.1252 28.9219 12.3082 25.1836 14.3122 22.633L29.1889 3.69812C29.9258 2.76011 31.0527 2.2124 32.2456 2.2124C35.4893 2.2124 37.3063 5.95072 35.3023 8.50131Z" fill="white"/>
<mask id="path-4-outside-1_5037_292" maskUnits="userSpaceOnUse" x="52.8301" y="6.06738" width="88" height="23" fill="black">
<rect fill="white" x="52.8301" y="6.06738" width="88" height="23"/>
<path d="M53.5176 18.2061V17.6787C53.5176 15.8857 53.6055 14.3828 53.7812 13.1699C53.957 11.9482 54.2603 10.9551 54.6909 10.1904C55.1216 9.42578 55.7061 8.84131 56.4443 8.43701C57.1914 8.03271 58.1274 7.76025 59.2524 7.61963C60.3774 7.47021 61.731 7.39551 63.313 7.39551H68.626C70.4365 7.39551 71.9614 7.4834 73.2007 7.65918C74.4487 7.82617 75.4507 8.16455 76.2065 8.67432C76.9712 9.17529 77.5249 9.91797 77.8677 10.9023C78.2104 11.8779 78.3818 13.1743 78.3818 14.7915H75.8506C75.8506 13.5171 75.7363 12.5283 75.5078 11.8252C75.2793 11.1133 74.8926 10.5991 74.3477 10.2827C73.8115 9.96631 73.0776 9.77295 72.146 9.70264C71.2144 9.62354 70.041 9.58398 68.626 9.58398H63.313C62.0562 9.58398 60.9971 9.62354 60.1357 9.70264C59.2744 9.77295 58.5713 9.94434 58.0264 10.2168C57.4902 10.4805 57.0771 10.9023 56.7871 11.4824C56.5059 12.0625 56.3125 12.8535 56.207 13.8555C56.1016 14.8574 56.0488 16.1318 56.0488 17.6787V18.2061C56.0488 19.7002 56.1016 20.9395 56.207 21.9238C56.3125 22.9082 56.5059 23.6948 56.7871 24.2837C57.0771 24.8726 57.4902 25.312 58.0264 25.6021C58.5713 25.8921 59.2744 26.0811 60.1357 26.1689C60.9971 26.2568 62.0562 26.3008 63.313 26.3008H68.626C70.041 26.3008 71.2144 26.27 72.146 26.2085C73.0776 26.147 73.8115 25.9668 74.3477 25.668C74.8926 25.3691 75.2793 24.8726 75.5078 24.1782C75.7363 23.4751 75.8506 22.4907 75.8506 21.2251H78.3818C78.3818 22.8423 78.2104 24.1343 77.8677 25.1011C77.5249 26.0679 76.9712 26.7974 76.2065 27.2896C75.4507 27.7729 74.4487 28.0938 73.2007 28.252C71.9614 28.4102 70.4365 28.4893 68.626 28.4893H63.313C61.3354 28.4893 59.7095 28.353 58.4351 28.0806C57.1606 27.8169 56.1631 27.3247 55.4424 26.604C54.7305 25.8833 54.2295 24.8462 53.9395 23.4927C53.6582 22.1392 53.5176 20.377 53.5176 18.2061ZM83.7333 28.0674V7.81738H103.614V9.92676H86.2646V16.6768H102.889V18.7861H86.2646V25.958H103.983V28.0674H83.7333ZM108.438 28.0674V7.81738H110.97V28.0674H108.438ZM117.165 7.81738H130.718C132.695 7.81738 134.286 7.90527 135.49 8.08105C136.703 8.25684 137.621 8.56006 138.245 8.99072C138.869 9.42139 139.291 10.0103 139.511 10.7573C139.731 11.5044 139.841 12.4492 139.841 13.5918V14.1191C139.841 15.1738 139.713 16.0835 139.458 16.8481C139.212 17.604 138.733 18.2192 138.021 18.6938C137.309 19.1597 136.255 19.4893 134.857 19.6826L139.261 28.0674H136.729L132.418 19.8672C132.242 19.876 132.058 19.8804 131.865 19.8804C131.68 19.8804 131.487 19.8804 131.284 19.8804H119.696V28.0674H117.165V7.81738ZM119.696 17.6919H130.889C132.392 17.6919 133.574 17.6436 134.435 17.5469C135.305 17.4414 135.943 17.2612 136.347 17.0063C136.76 16.7515 137.024 16.3911 137.138 15.9253C137.252 15.4595 137.309 14.8574 137.309 14.1191V13.5918C137.309 12.7568 137.23 12.0977 137.072 11.6143C136.914 11.1309 136.597 10.7749 136.123 10.5464C135.648 10.3179 134.941 10.1729 134 10.1113C133.06 10.041 131.803 10.0059 130.23 10.0059H119.696V17.6919Z"/>
</mask>
<path d="M53.5176 18.2061V17.6787C53.5176 15.8857 53.6055 14.3828 53.7812 13.1699C53.957 11.9482 54.2603 10.9551 54.6909 10.1904C55.1216 9.42578 55.7061 8.84131 56.4443 8.43701C57.1914 8.03271 58.1274 7.76025 59.2524 7.61963C60.3774 7.47021 61.731 7.39551 63.313 7.39551H68.626C70.4365 7.39551 71.9614 7.4834 73.2007 7.65918C74.4487 7.82617 75.4507 8.16455 76.2065 8.67432C76.9712 9.17529 77.5249 9.91797 77.8677 10.9023C78.2104 11.8779 78.3818 13.1743 78.3818 14.7915H75.8506C75.8506 13.5171 75.7363 12.5283 75.5078 11.8252C75.2793 11.1133 74.8926 10.5991 74.3477 10.2827C73.8115 9.96631 73.0776 9.77295 72.146 9.70264C71.2144 9.62354 70.041 9.58398 68.626 9.58398H63.313C62.0562 9.58398 60.9971 9.62354 60.1357 9.70264C59.2744 9.77295 58.5713 9.94434 58.0264 10.2168C57.4902 10.4805 57.0771 10.9023 56.7871 11.4824C56.5059 12.0625 56.3125 12.8535 56.207 13.8555C56.1016 14.8574 56.0488 16.1318 56.0488 17.6787V18.2061C56.0488 19.7002 56.1016 20.9395 56.207 21.9238C56.3125 22.9082 56.5059 23.6948 56.7871 24.2837C57.0771 24.8726 57.4902 25.312 58.0264 25.6021C58.5713 25.8921 59.2744 26.0811 60.1357 26.1689C60.9971 26.2568 62.0562 26.3008 63.313 26.3008H68.626C70.041 26.3008 71.2144 26.27 72.146 26.2085C73.0776 26.147 73.8115 25.9668 74.3477 25.668C74.8926 25.3691 75.2793 24.8726 75.5078 24.1782C75.7363 23.4751 75.8506 22.4907 75.8506 21.2251H78.3818C78.3818 22.8423 78.2104 24.1343 77.8677 25.1011C77.5249 26.0679 76.9712 26.7974 76.2065 27.2896C75.4507 27.7729 74.4487 28.0938 73.2007 28.252C71.9614 28.4102 70.4365 28.4893 68.626 28.4893H63.313C61.3354 28.4893 59.7095 28.353 58.4351 28.0806C57.1606 27.8169 56.1631 27.3247 55.4424 26.604C54.7305 25.8833 54.2295 24.8462 53.9395 23.4927C53.6582 22.1392 53.5176 20.377 53.5176 18.2061ZM83.7333 28.0674V7.81738H103.614V9.92676H86.2646V16.6768H102.889V18.7861H86.2646V25.958H103.983V28.0674H83.7333ZM108.438 28.0674V7.81738H110.97V28.0674H108.438ZM117.165 7.81738H130.718C132.695 7.81738 134.286 7.90527 135.49 8.08105C136.703 8.25684 137.621 8.56006 138.245 8.99072C138.869 9.42139 139.291 10.0103 139.511 10.7573C139.731 11.5044 139.841 12.4492 139.841 13.5918V14.1191C139.841 15.1738 139.713 16.0835 139.458 16.8481C139.212 17.604 138.733 18.2192 138.021 18.6938C137.309 19.1597 136.255 19.4893 134.857 19.6826L139.261 28.0674H136.729L132.418 19.8672C132.242 19.876 132.058 19.8804 131.865 19.8804C131.68 19.8804 131.487 19.8804 131.284 19.8804H119.696V28.0674H117.165V7.81738ZM119.696 17.6919H130.889C132.392 17.6919 133.574 17.6436 134.435 17.5469C135.305 17.4414 135.943 17.2612 136.347 17.0063C136.76 16.7515 137.024 16.3911 137.138 15.9253C137.252 15.4595 137.309 14.8574 137.309 14.1191V13.5918C137.309 12.7568 137.23 12.0977 137.072 11.6143C136.914 11.1309 136.597 10.7749 136.123 10.5464C135.648 10.3179 134.941 10.1729 134 10.1113C133.06 10.041 131.803 10.0059 130.23 10.0059H119.696V17.6919Z" fill="#030303"/>
<path d="M53.7812 13.1699L54.2234 13.234L54.2235 13.2336L53.7812 13.1699ZM56.4443 8.43701L56.2317 8.04405L56.2297 8.04512L56.4443 8.43701ZM59.2524 7.61963L59.3079 8.063L59.3113 8.06255L59.2524 7.61963ZM73.2007 7.65918L73.1379 8.10157L73.1414 8.10204L73.2007 7.65918ZM76.2065 8.67432L75.9567 9.04479L75.9617 9.04805L76.2065 8.67432ZM77.8677 10.9023L77.4457 11.0493L77.4461 11.0505L77.8677 10.9023ZM78.3818 14.7915V15.2383H78.8286V14.7915H78.3818ZM75.8506 14.7915H75.4038V15.2383H75.8506V14.7915ZM75.5078 11.8252L75.0824 11.9618L75.0829 11.9633L75.5078 11.8252ZM74.3477 10.2827L74.1206 10.6675L74.1233 10.6691L74.3477 10.2827ZM72.146 9.70264L72.1082 10.1479L72.1124 10.1482L72.146 9.70264ZM60.1357 9.70264L60.1721 10.148L60.1766 10.1476L60.1357 9.70264ZM58.0264 10.2168L58.2236 10.6177L58.2262 10.6164L58.0264 10.2168ZM56.7871 11.4824L56.3874 11.2826L56.3851 11.2875L56.7871 11.4824ZM56.7871 24.2837L56.3839 24.4763L56.3863 24.4811L56.7871 24.2837ZM58.0264 25.6021L57.8138 25.995L57.8164 25.9965L58.0264 25.6021ZM74.3477 25.668L74.1328 25.2762L74.1301 25.2777L74.3477 25.668ZM75.5078 24.1782L75.9322 24.3179L75.9327 24.3163L75.5078 24.1782ZM75.8506 21.2251V20.7783H75.4038V21.2251H75.8506ZM78.3818 21.2251H78.8286V20.7783H78.3818V21.2251ZM76.2065 27.2896L76.4473 27.666L76.4484 27.6653L76.2065 27.2896ZM73.2007 28.252L73.1445 27.8087L73.1441 27.8087L73.2007 28.252ZM58.4351 28.0806L58.5285 27.6436L58.5256 27.643L58.4351 28.0806ZM55.4424 26.604L55.1245 26.918L55.1264 26.9199L55.4424 26.604ZM53.9395 23.4927L53.502 23.5836L53.5026 23.5863L53.9395 23.4927ZM53.5176 18.2061H53.9644V17.6787H53.5176H53.0708V18.2061H53.5176ZM53.5176 17.6787H53.9644C53.9644 15.8983 54.0518 14.4184 54.2234 13.234L53.7812 13.1699L53.3391 13.1058C53.1592 14.3472 53.0708 15.8732 53.0708 17.6787H53.5176ZM53.7812 13.1699L54.2235 13.2336C54.3944 12.046 54.6853 11.1109 55.0802 10.4097L54.6909 10.1904L54.3016 9.97116C53.8352 10.7992 53.5197 11.8505 53.339 13.1063L53.7812 13.1699ZM54.6909 10.1904L55.0802 10.4097C55.4718 9.71453 55.9971 9.19135 56.6589 8.82891L56.4443 8.43701L56.2297 8.04512C55.415 8.49126 54.7714 9.13704 54.3016 9.97116L54.6909 10.1904ZM56.4443 8.43701L56.657 8.82997C57.3419 8.45931 58.2206 8.1989 59.3079 8.06299L59.2524 7.61963L59.197 7.17627C58.0343 7.32161 57.0409 7.60612 56.2317 8.04406L56.4443 8.43701ZM59.2524 7.61963L59.3113 8.06255C60.4109 7.91651 61.7436 7.84232 63.313 7.84232V7.39551V6.9487C61.7183 6.9487 60.344 7.02392 59.1936 7.17671L59.2524 7.61963ZM63.313 7.39551V7.84232H68.626V7.39551V6.9487H63.313V7.39551ZM68.626 7.39551V7.84232C70.4239 7.84232 71.9264 7.92971 73.1379 8.10156L73.2007 7.65918L73.2634 7.2168C71.9965 7.03709 70.4491 6.9487 68.626 6.9487V7.39551ZM73.2007 7.65918L73.1414 8.10204C74.3458 8.26319 75.2754 8.58529 75.9567 9.04475L76.2065 8.67432L76.4564 8.30388C75.6259 7.74381 74.5517 7.38916 73.2599 7.21632L73.2007 7.65918ZM76.2065 8.67432L75.9617 9.04805C76.6326 9.48759 77.1306 10.1443 77.4457 11.0493L77.8677 10.9023L78.2896 10.7554C77.9192 9.69165 77.3098 8.86299 76.4514 8.30058L76.2065 8.67432ZM77.8677 10.9023L77.4461 11.0505C77.7655 11.9594 77.935 13.1996 77.935 14.7915H78.3818H78.8286C78.8286 13.149 78.6554 11.7964 78.2892 10.7542L77.8677 10.9023ZM78.3818 14.7915V14.3447H75.8506V14.7915V15.2383H78.3818V14.7915ZM75.8506 14.7915H76.2974C76.2974 13.4989 76.1826 12.4557 75.9327 11.6871L75.5078 11.8252L75.0829 11.9633C75.2901 12.6009 75.4038 13.5352 75.4038 14.7915H75.8506ZM75.5078 11.8252L75.9332 11.6886C75.6776 10.8922 75.2299 10.2783 74.572 9.89632L74.3477 10.2827L74.1233 10.6691C74.5553 10.9199 74.881 11.3344 75.0824 11.9618L75.5078 11.8252ZM74.3477 10.2827L74.5747 9.89792C73.9575 9.53366 73.1483 9.3302 72.1796 9.2571L72.146 9.70264L72.1124 10.1482C73.007 10.2157 73.6655 10.399 74.1206 10.6675L74.3477 10.2827ZM72.146 9.70264L72.1838 9.25743C71.235 9.17687 70.0479 9.13718 68.626 9.13718V9.58398V10.0308C70.0341 10.0308 71.1937 10.0702 72.1082 10.1478L72.146 9.70264ZM68.626 9.58398V9.13718H63.313V9.58398V10.0308H68.626V9.58398ZM63.313 9.58398V9.13718C62.048 9.13718 60.9744 9.17693 60.0949 9.2577L60.1357 9.70264L60.1766 10.1476C61.0198 10.0701 62.0643 10.0308 63.313 10.0308V9.58398ZM60.1357 9.70264L60.0994 9.25731C59.2031 9.33047 58.4391 9.51087 57.8265 9.81716L58.0264 10.2168L58.2262 10.6164C58.7035 10.3778 59.3457 10.2154 60.1721 10.148L60.1357 9.70264ZM58.0264 10.2168L57.8292 9.81585C57.1978 10.1264 56.7172 10.6231 56.3875 11.2826L56.7871 11.4824L57.1867 11.6822C57.4371 11.1816 57.7827 10.8345 58.2236 10.6177L58.0264 10.2168ZM56.7871 11.4824L56.3851 11.2875C56.0722 11.9327 55.8709 12.7809 55.7627 13.8087L56.207 13.8555L56.6514 13.9022C56.7541 12.9261 56.9395 12.1923 57.1892 11.6774L56.7871 11.4824ZM56.207 13.8555L55.7627 13.8087C55.655 14.8321 55.602 16.1235 55.602 17.6787H56.0488H56.4956C56.4956 16.1402 56.5482 14.8828 56.6514 13.9022L56.207 13.8555ZM56.0488 17.6787H55.602V18.2061H56.0488H56.4956V17.6787H56.0488ZM56.0488 18.2061H55.602C55.602 19.709 55.655 20.9655 55.7628 21.9714L56.207 21.9238L56.6513 21.8762C56.5481 20.9134 56.4956 19.6914 56.4956 18.2061H56.0488ZM56.207 21.9238L55.7628 21.9714C55.8711 22.9828 56.0727 23.8246 56.3839 24.4763L56.7871 24.2837L57.1903 24.0911C56.9391 23.5651 56.7539 22.8336 56.6513 21.8762L56.207 21.9238ZM56.7871 24.2837L56.3863 24.4811C56.7139 25.1464 57.1898 25.6575 57.8138 25.995L58.0264 25.6021L58.239 25.2091C57.7907 24.9666 57.4404 24.5987 57.1879 24.0863L56.7871 24.2837ZM58.0264 25.6021L57.8164 25.9965C58.4286 26.3223 59.193 26.5219 60.0904 26.6134L60.1357 26.1689L60.1811 25.7244C59.3559 25.6402 58.714 25.4619 58.2363 25.2076L58.0264 25.6021ZM60.1357 26.1689L60.0904 26.6134C60.9718 26.7034 62.0471 26.7476 63.313 26.7476V26.3008V25.854C62.0652 25.854 61.0223 25.8103 60.1811 25.7244L60.1357 26.1689ZM63.313 26.3008V26.7476H68.626V26.3008V25.854H63.313V26.3008ZM68.626 26.3008V26.7476C70.0464 26.7476 71.2304 26.7167 72.1754 26.6543L72.146 26.2085L72.1166 25.7627C71.1983 25.8233 70.0356 25.854 68.626 25.854V26.3008ZM72.146 26.2085L72.1754 26.6543C73.1419 26.5905 73.949 26.4017 74.5652 26.0582L74.3477 25.668L74.1301 25.2777C73.674 25.5319 73.0134 25.7034 72.1166 25.7627L72.146 26.2085ZM74.3477 25.668L74.5625 26.0597C75.2239 25.697 75.675 25.0996 75.9322 24.3179L75.5078 24.1782L75.0834 24.0385C74.8836 24.6455 74.5613 25.0412 74.1328 25.2762L74.3477 25.668ZM75.5078 24.1782L75.9327 24.3163C76.1825 23.5479 76.2974 22.5093 76.2974 21.2251H75.8506H75.4038C75.4038 22.4722 75.2902 23.4023 75.0829 24.0401L75.5078 24.1782ZM75.8506 21.2251V21.6719H78.3818V21.2251V20.7783H75.8506V21.2251ZM78.3818 21.2251H77.935C77.935 22.8173 77.7654 24.0524 77.4466 24.9518L77.8677 25.1011L78.2888 25.2504C78.6555 24.2162 78.8286 22.8673 78.8286 21.2251H78.3818ZM77.8677 25.1011L77.4466 24.9518C77.1324 25.8379 76.6356 26.482 75.9647 26.9138L76.2065 27.2896L76.4484 27.6653C77.3067 27.1127 77.9174 26.2979 78.2888 25.2504L77.8677 25.1011ZM76.2065 27.2896L75.9658 26.9131C75.2835 27.3495 74.3516 27.6557 73.1445 27.8087L73.2007 28.252L73.2569 28.6952C74.5459 28.5318 75.6179 28.1964 76.4473 27.666L76.2065 27.2896ZM73.2007 28.252L73.1441 27.8087C71.9299 27.9637 70.4252 28.0424 68.626 28.0424V28.4893V28.9361C70.4478 28.9361 71.993 28.8566 73.2573 28.6952L73.2007 28.252ZM68.626 28.4893V28.0424H63.313V28.4893V28.9361H68.626V28.4893ZM63.313 28.4893V28.0424C61.3525 28.0424 59.7608 27.9071 58.5285 27.6436L58.4351 28.0806L58.3416 28.5175C59.6582 28.799 61.3184 28.9361 63.313 28.9361V28.4893ZM58.4351 28.0806L58.5256 27.643C57.3131 27.3922 56.4024 26.9321 55.7583 26.2881L55.4424 26.604L55.1264 26.9199C55.9238 27.7173 57.0082 28.2416 58.3445 28.5181L58.4351 28.0806ZM55.4424 26.604L55.7603 26.29C55.1264 25.6483 54.6549 24.6988 54.3763 23.3991L53.9395 23.4927L53.5026 23.5863C53.8041 24.9936 54.3345 26.1183 55.1245 26.918L55.4424 26.604ZM53.9395 23.4927L54.3769 23.4018C54.1044 22.09 53.9644 20.3616 53.9644 18.2061H53.5176H53.0708C53.0708 20.3923 53.2121 22.1883 53.502 23.5836L53.9395 23.4927ZM83.7333 28.0674H83.2865V28.5142H83.7333V28.0674ZM83.7333 7.81738V7.37057H83.2865V7.81738H83.7333ZM103.614 7.81738H104.061V7.37057H103.614V7.81738ZM103.614 9.92676V10.3736H104.061V9.92676H103.614ZM86.2646 9.92676V9.47995H85.8178V9.92676H86.2646ZM86.2646 16.6768H85.8178V17.1236H86.2646V16.6768ZM102.889 16.6768H103.336V16.2299H102.889V16.6768ZM102.889 18.7861V19.2329H103.336V18.7861H102.889ZM86.2646 18.7861V18.3393H85.8178V18.7861H86.2646ZM86.2646 25.958H85.8178V26.4048H86.2646V25.958ZM103.983 25.958H104.43V25.5112H103.983V25.958ZM103.983 28.0674V28.5142H104.43V28.0674H103.983ZM83.7333 28.0674H84.1801V7.81738H83.7333H83.2865V28.0674H83.7333ZM83.7333 7.81738V8.26419H103.614V7.81738V7.37057H83.7333V7.81738ZM103.614 7.81738H103.167V9.92676H103.614H104.061V7.81738H103.614ZM103.614 9.92676V9.47995H86.2646V9.92676V10.3736H103.614V9.92676ZM86.2646 9.92676H85.8178V16.6768H86.2646H86.7114V9.92676H86.2646ZM86.2646 16.6768V17.1236H102.889V16.6768V16.2299H86.2646V16.6768ZM102.889 16.6768H102.442V18.7861H102.889H103.336V16.6768H102.889ZM102.889 18.7861V18.3393H86.2646V18.7861V19.2329H102.889V18.7861ZM86.2646 18.7861H85.8178V25.958H86.2646H86.7114V18.7861H86.2646ZM86.2646 25.958V26.4048H103.983V25.958V25.5112H86.2646V25.958ZM103.983 25.958H103.537V28.0674H103.983H104.43V25.958H103.983ZM103.983 28.0674V27.6206H83.7333V28.0674V28.5142H103.983V28.0674ZM108.438 28.0674H107.992V28.5142H108.438V28.0674ZM108.438 7.81738V7.37057H107.992V7.81738H108.438ZM110.97 7.81738H111.416V7.37057H110.97V7.81738ZM110.97 28.0674V28.5142H111.416V28.0674H110.97ZM108.438 28.0674H108.885V7.81738H108.438H107.992V28.0674H108.438ZM108.438 7.81738V8.26419H110.97V7.81738V7.37057H108.438V7.81738ZM110.97 7.81738H110.523V28.0674H110.97H111.416V7.81738H110.97ZM110.97 28.0674V27.6206H108.438V28.0674V28.5142H110.97V28.0674ZM117.165 7.81738V7.37057H116.718V7.81738H117.165ZM135.49 8.08105L135.425 8.52318L135.426 8.52324L135.49 8.08105ZM139.458 16.8481L139.034 16.7068L139.033 16.7098L139.458 16.8481ZM138.021 18.6938L138.266 19.0677L138.269 19.0656L138.021 18.6938ZM134.857 19.6826L134.796 19.24L134.166 19.3272L134.462 19.8904L134.857 19.6826ZM139.261 28.0674V28.5142H140L139.656 27.8596L139.261 28.0674ZM136.729 28.0674L136.334 28.2753L136.459 28.5142H136.729V28.0674ZM132.418 19.8672L132.814 19.6593L132.681 19.4067L132.396 19.4209L132.418 19.8672ZM119.696 19.8804V19.4336H119.249V19.8804H119.696ZM119.696 28.0674V28.5142H120.143V28.0674H119.696ZM117.165 28.0674H116.718V28.5142H117.165V28.0674ZM119.696 17.6919H119.249V18.1387H119.696V17.6919ZM134.435 17.5469L134.485 17.9909L134.489 17.9904L134.435 17.5469ZM136.347 17.0063L136.112 16.6261L136.109 16.6284L136.347 17.0063ZM137.072 11.6143L137.497 11.4753V11.4753L137.072 11.6143ZM134 10.1113L133.967 10.5569L133.971 10.5572L134 10.1113ZM119.696 10.0059V9.55905H119.249V10.0059H119.696ZM117.165 7.81738V8.26419H130.718V7.81738V7.37057H117.165V7.81738ZM130.718 7.81738V8.26419C132.685 8.26419 134.252 8.35183 135.425 8.52318L135.49 8.08105L135.555 7.63893C134.32 7.45872 132.705 7.37057 130.718 7.37057V7.81738ZM135.49 8.08105L135.426 8.52324C136.608 8.69456 137.449 8.98379 137.992 9.35846L138.245 8.99072L138.499 8.62299C137.794 8.13633 136.798 7.81912 135.554 7.63887L135.49 8.08105ZM138.245 8.99072L137.992 9.35846C138.529 9.72929 138.891 10.2317 139.082 10.8834L139.511 10.7573L139.94 10.6313C139.692 9.78886 139.21 9.11348 138.499 8.62299L138.245 8.99072ZM139.511 10.7573L139.082 10.8834C139.286 11.5753 139.394 12.4739 139.394 13.5918H139.841H140.287C140.287 12.4245 140.176 11.4335 139.94 10.6313L139.511 10.7573ZM139.841 13.5918H139.394V14.1191H139.841H140.287V13.5918H139.841ZM139.841 14.1191H139.394C139.394 15.1398 139.27 15.9993 139.034 16.7069L139.458 16.8481L139.882 16.9894C140.156 16.1676 140.287 15.2079 140.287 14.1191H139.841ZM139.458 16.8481L139.033 16.7098C138.821 17.3627 138.409 17.8986 137.773 18.3221L138.021 18.6938L138.269 19.0656C139.058 18.5398 139.603 17.8453 139.883 16.9865L139.458 16.8481ZM138.021 18.6938L137.777 18.32C137.145 18.7333 136.166 19.0505 134.796 19.24L134.857 19.6826L134.918 20.1252C136.344 19.928 137.474 19.586 138.266 19.0677L138.021 18.6938ZM134.857 19.6826L134.462 19.8904L138.865 28.2751L139.261 28.0674L139.656 27.8596L135.253 19.4749L134.857 19.6826ZM139.261 28.0674V27.6206H136.729V28.0674V28.5142H139.261V28.0674ZM136.729 28.0674L137.125 27.8595L132.814 19.6593L132.418 19.8672L132.023 20.0751L136.334 28.2753L136.729 28.0674ZM132.418 19.8672L132.396 19.4209C132.228 19.4293 132.051 19.4336 131.865 19.4336V19.8804V20.3272C132.065 20.3272 132.257 20.3226 132.441 20.3134L132.418 19.8672ZM131.865 19.8804V19.4336C131.864 19.4336 131.864 19.4336 131.863 19.4336C131.863 19.4336 131.863 19.4336 131.862 19.4336C131.862 19.4336 131.862 19.4336 131.861 19.4336C131.861 19.4336 131.861 19.4336 131.86 19.4336C131.86 19.4336 131.859 19.4336 131.859 19.4336C131.859 19.4336 131.858 19.4336 131.858 19.4336C131.858 19.4336 131.857 19.4336 131.857 19.4336C131.857 19.4336 131.856 19.4336 131.856 19.4336C131.855 19.4336 131.855 19.4336 131.855 19.4336C131.854 19.4336 131.854 19.4336 131.854 19.4336C131.853 19.4336 131.853 19.4336 131.853 19.4336C131.852 19.4336 131.852 19.4336 131.852 19.4336C131.851 19.4336 131.851 19.4336 131.85 19.4336C131.85 19.4336 131.85 19.4336 131.849 19.4336C131.849 19.4336 131.849 19.4336 131.848 19.4336C131.848 19.4336 131.848 19.4336 131.847 19.4336C131.847 19.4336 131.846 19.4336 131.846 19.4336C131.846 19.4336 131.845 19.4336 131.845 19.4336C131.845 19.4336 131.844 19.4336 131.844 19.4336C131.844 19.4336 131.843 19.4336 131.843 19.4336C131.842 19.4336 131.842 19.4336 131.842 19.4336C131.841 19.4336 131.841 19.4336 131.841 19.4336C131.84 19.4336 131.84 19.4336 131.84 19.4336C131.839 19.4336 131.839 19.4336 131.839 19.4336C131.838 19.4336 131.838 19.4336 131.837 19.4336C131.837 19.4336 131.837 19.4336 131.836 19.4336C131.836 19.4336 131.836 19.4336 131.835 19.4336C131.835 19.4336 131.835 19.4336 131.834 19.4336C131.834 19.4336 131.833 19.4336 131.833 19.4336C131.833 19.4336 131.832 19.4336 131.832 19.4336C131.832 19.4336 131.831 19.4336 131.831 19.4336C131.831 19.4336 131.83 19.4336 131.83 19.4336C131.829 19.4336 131.829 19.4336 131.829 19.4336C131.828 19.4336 131.828 19.4336 131.828 19.4336C131.827 19.4336 131.827 19.4336 131.827 19.4336C131.826 19.4336 131.826 19.4336 131.825 19.4336C131.825 19.4336 131.825 19.4336 131.824 19.4336C131.824 19.4336 131.824 19.4336 131.823 19.4336C131.823 19.4336 131.823 19.4336 131.822 19.4336C131.822 19.4336 131.821 19.4336 131.821 19.4336C131.821 19.4336 131.82 19.4336 131.82 19.4336C131.82 19.4336 131.819 19.4336 131.819 19.4336C131.819 19.4336 131.818 19.4336 131.818 19.4336C131.817 19.4336 131.817 19.4336 131.817 19.4336C131.816 19.4336 131.816 19.4336 131.816 19.4336C131.815 19.4336 131.815 19.4336 131.815 19.4336C131.814 19.4336 131.814 19.4336 131.813 19.4336C131.813 19.4336 131.813 19.4336 131.812 19.4336C131.812 19.4336 131.812 19.4336 131.811 19.4336C131.811 19.4336 131.811 19.4336 131.81 19.4336C131.81 19.4336 131.809 19.4336 131.809 19.4336C131.809 19.4336 131.808 19.4336 131.808 19.4336C131.808 19.4336 131.807 19.4336 131.807 19.4336C131.807 19.4336 131.806 19.4336 131.806 19.4336C131.805 19.4336 131.805 19.4336 131.805 19.4336C131.804 19.4336 131.804 19.4336 131.804 19.4336C131.803 19.4336 131.803 19.4336 131.803 19.4336C131.802 19.4336 131.802 19.4336 131.801 19.4336C131.801 19.4336 131.801 19.4336 131.8 19.4336C131.8 19.4336 131.8 19.4336 131.799 19.4336C131.799 19.4336 131.799 19.4336 131.798 19.4336C131.798 19.4336 131.797 19.4336 131.797 19.4336C131.797 19.4336 131.796 19.4336 131.796 19.4336C131.796 19.4336 131.795 19.4336 131.795 19.4336C131.795 19.4336 131.794 19.4336 131.794 19.4336C131.793 19.4336 131.793 19.4336 131.793 19.4336C131.792 19.4336 131.792 19.4336 131.792 19.4336C131.791 19.4336 131.791 19.4336 131.791 19.4336C131.79 19.4336 131.79 19.4336 131.789 19.4336C131.789 19.4336 131.789 19.4336 131.788 19.4336C131.788 19.4336 131.788 19.4336 131.787 19.4336C131.787 19.4336 131.786 19.4336 131.786 19.4336C131.786 19.4336 131.785 19.4336 131.785 19.4336C131.785 19.4336 131.784 19.4336 131.784 19.4336C131.784 19.4336 131.783 19.4336 131.783 19.4336C131.782 19.4336 131.782 19.4336 131.782 19.4336C131.781 19.4336 131.781 19.4336 131.781 19.4336C131.78 19.4336 131.78 19.4336 131.78 19.4336C131.779 19.4336 131.779 19.4336 131.778 19.4336C131.778 19.4336 131.778 19.4336 131.777 19.4336C131.777 19.4336 131.777 19.4336 131.776 19.4336C131.776 19.4336 131.776 19.4336 131.775 19.4336C131.775 19.4336 131.774 19.4336 131.774 19.4336C131.774 19.4336 131.773 19.4336 131.773 19.4336C131.773 19.4336 131.772 19.4336 131.772 19.4336C131.771 19.4336 131.771 19.4336 131.771 19.4336C131.77 19.4336 131.77 19.4336 131.77 19.4336C131.769 19.4336 131.769 19.4336 131.769 19.4336C131.768 19.4336 131.768 19.4336 131.767 19.4336C131.767 19.4336 131.767 19.4336 131.766 19.4336C131.766 19.4336 131.766 19.4336 131.765 19.4336C131.765 19.4336 131.765 19.4336 131.764 19.4336C131.764 19.4336 131.763 19.4336 131.763 19.4336C131.763 19.4336 131.762 19.4336 131.762 19.4336C131.762 19.4336 131.761 19.4336 131.761 19.4336C131.76 19.4336 131.76 19.4336 131.76 19.4336C131.759 19.4336 131.759 19.4336 131.759 19.4336C131.758 19.4336 131.758 19.4336 131.758 19.4336C131.757 19.4336 131.757 19.4336 131.756 19.4336C131.756 19.4336 131.756 19.4336 131.755 19.4336C131.755 19.4336 131.755 19.4336 131.754 19.4336C131.754 19.4336 131.754 19.4336 131.753 19.4336C131.753 19.4336 131.752 19.4336 131.752 19.4336C131.752 19.4336 131.751 19.4336 131.751 19.4336C131.751 19.4336 131.75 19.4336 131.75 19.4336C131.749 19.4336 131.749 19.4336 131.749 19.4336C131.748 19.4336 131.748 19.4336 131.748 19.4336C131.747 19.4336 131.747 19.4336 131.747 19.4336C131.746 19.4336 131.746 19.4336 131.745 19.4336C131.745 19.4336 131.745 19.4336 131.744 19.4336C131.744 19.4336 131.744 19.4336 131.743 19.4336C131.743 19.4336 131.742 19.4336 131.742 19.4336C131.742 19.4336 131.741 19.4336 131.741 19.4336C131.741 19.4336 131.74 19.4336 131.74 19.4336C131.74 19.4336 131.739 19.4336 131.739 19.4336C131.738 19.4336 131.738 19.4336 131.738 19.4336C131.737 19.4336 131.737 19.4336 131.737 19.4336C131.736 19.4336 131.736 19.4336 131.736 19.4336C131.735 19.4336 131.735 19.4336 131.734 19.4336C131.734 19.4336 131.734 19.4336 131.733 19.4336C131.733 19.4336 131.733 19.4336 131.732 19.4336C131.732 19.4336 131.731 19.4336 131.731 19.4336C131.731 19.4336 131.73 19.4336 131.73 19.4336C131.73 19.4336 131.729 19.4336 131.729 19.4336C131.729 19.4336 131.728 19.4336 131.728 19.4336C131.727 19.4336 131.727 19.4336 131.727 19.4336C131.726 19.4336 131.726 19.4336 131.726 19.4336C131.725 19.4336 131.725 19.4336 131.724 19.4336C131.724 19.4336 131.724 19.4336 131.723 19.4336C131.723 19.4336 131.723 19.4336 131.722 19.4336C131.722 19.4336 131.721 19.4336 131.721 19.4336C131.721 19.4336 131.72 19.4336 131.72 19.4336C131.72 19.4336 131.719 19.4336 131.719 19.4336C131.719 19.4336 131.718 19.4336 131.718 19.4336C131.717 19.4336 131.717 19.4336 131.717 19.4336C131.716 19.4336 131.716 19.4336 131.716 19.4336C131.715 19.4336 131.715 19.4336 131.714 19.4336C131.714 19.4336 131.714 19.4336 131.713 19.4336C131.713 19.4336 131.713 19.4336 131.712 19.4336C131.712 19.4336 131.712 19.4336 131.711 19.4336C131.711 19.4336 131.71 19.4336 131.71 19.4336C131.71 19.4336 131.709 19.4336 131.709 19.4336C131.709 19.4336 131.708 19.4336 131.708 19.4336C131.707 19.4336 131.707 19.4336 131.707 19.4336C131.706 19.4336 131.706 19.4336 131.706 19.4336C131.705 19.4336 131.705 19.4336 131.704 19.4336C131.704 19.4336 131.704 19.4336 131.703 19.4336C131.703 19.4336 131.703 19.4336 131.702 19.4336C131.702 19.4336 131.702 19.4336 131.701 19.4336C131.701 19.4336 131.7 19.4336 131.7 19.4336C131.7 19.4336 131.699 19.4336 131.699 19.4336C131.699 19.4336 131.698 19.4336 131.698 19.4336C131.697 19.4336 131.697 19.4336 131.697 19.4336C131.696 19.4336 131.696 19.4336 131.696 19.4336C131.695 19.4336 131.695 19.4336 131.694 19.4336C131.694 19.4336 131.694 19.4336 131.693 19.4336C131.693 19.4336 131.693 19.4336 131.692 19.4336C131.692 19.4336 131.691 19.4336 131.691 19.4336C131.691 19.4336 131.69 19.4336 131.69 19.4336C131.69 19.4336 131.689 19.4336 131.689 19.4336C131.689 19.4336 131.688 19.4336 131.688 19.4336C131.687 19.4336 131.687 19.4336 131.687 19.4336C131.686 19.4336 131.686 19.4336 131.686 19.4336C131.685 19.4336 131.685 19.4336 131.684 19.4336C131.684 19.4336 131.684 19.4336 131.683 19.4336C131.683 19.4336 131.683 19.4336 131.682 19.4336C131.682 19.4336 131.681 19.4336 131.681 19.4336C131.681 19.4336 131.68 19.4336 131.68 19.4336C131.68 19.4336 131.679 19.4336 131.679 19.4336C131.678 19.4336 131.678 19.4336 131.678 19.4336C131.677 19.4336 131.677 19.4336 131.677 19.4336C131.676 19.4336 131.676 19.4336 131.676 19.4336C131.675 19.4336 131.675 19.4336 131.674 19.4336C131.674 19.4336 131.674 19.4336 131.673 19.4336C131.673 19.4336 131.673 19.4336 131.672 19.4336C131.672 19.4336 131.671 19.4336 131.671 19.4336C131.671 19.4336 131.67 19.4336 131.67 19.4336C131.67 19.4336 131.669 19.4336 131.669 19.4336C131.668 19.4336 131.668 19.4336 131.668 19.4336C131.667 19.4336 131.667 19.4336 131.667 19.4336C131.666 19.4336 131.666 19.4336 131.665 19.4336C131.665 19.4336 131.665 19.4336 131.664 19.4336C131.664 19.4336 131.664 19.4336 131.663 19.4336C131.663 19.4336 131.662 19.4336 131.662 19.4336C131.662 19.4336 131.661 19.4336 131.661 19.4336C131.661 19.4336 131.66 19.4336 131.66 19.4336C131.66 19.4336 131.659 19.4336 131.659 19.4336C131.658 19.4336 131.658 19.4336 131.658 19.4336C131.657 19.4336 131.657 19.4336 131.657 19.4336C131.656 19.4336 131.656 19.4336 131.655 19.4336C131.655 19.4336 131.655 19.4336 131.654 19.4336C131.654 19.4336 131.654 19.4336 131.653 19.4336C131.653 19.4336 131.652 19.4336 131.652 19.4336C131.652 19.4336 131.651 19.4336 131.651 19.4336C131.651 19.4336 131.65 19.4336 131.65 19.4336C131.649 19.4336 131.649 19.4336 131.649 19.4336C131.648 19.4336 131.648 19.4336 131.648 19.4336C131.647 19.4336 131.647 19.4336 131.646 19.4336C131.646 19.4336 131.646 19.4336 131.645 19.4336C131.645 19.4336 131.645 19.4336 131.644 19.4336C131.644 19.4336 131.643 19.4336 131.643 19.4336C131.643 19.4336 131.642 19.4336 131.642 19.4336C131.642 19.4336 131.641 19.4336 131.641 19.4336C131.64 19.4336 131.64 19.4336 131.64 19.4336C131.639 19.4336 131.639 19.4336 131.639 19.4336C131.638 19.4336 131.638 19.4336 131.637 19.4336C131.637 19.4336 131.637 19.4336 131.636 19.4336C131.636 19.4336 131.636 19.4336 131.635 19.4336C131.635 19.4336 131.634 19.4336 131.634 19.4336C131.634 19.4336 131.633 19.4336 131.633 19.4336C131.633 19.4336 131.632 19.4336 131.632 19.4336C131.631 19.4336 131.631 19.4336 131.631 19.4336C131.63 19.4336 131.63 19.4336 131.63 19.4336C131.629 19.4336 131.629 19.4336 131.628 19.4336C131.628 19.4336 131.628 19.4336 131.627 19.4336C131.627 19.4336 131.627 19.4336 131.626 19.4336C131.626 19.4336 131.625 19.4336 131.625 19.4336C131.625 19.4336 131.624 19.4336 131.624 19.4336C131.624 19.4336 131.623 19.4336 131.623 19.4336C131.622 19.4336 131.622 19.4336 131.622 19.4336C131.621 19.4336 131.621 19.4336 131.621 19.4336C131.62 19.4336 131.62 19.4336 131.619 19.4336C131.619 19.4336 131.619 19.4336 131.618 19.4336C131.618 19.4336 131.618 19.4336 131.617 19.4336C131.617 19.4336 131.616 19.4336 131.616 19.4336C131.616 19.4336 131.615 19.4336 131.615 19.4336C131.615 19.4336 131.614 19.4336 131.614 19.4336C131.613 19.4336 131.613 19.4336 131.613 19.4336C131.612 19.4336 131.612 19.4336 131.612 19.4336C131.611 19.4336 131.611 19.4336 131.61 19.4336C131.61 19.4336 131.61 19.4336 131.609 19.4336C131.609 19.4336 131.609 19.4336 131.608 19.4336C131.608 19.4336 131.607 19.4336 131.607 19.4336C131.607 19.4336 131.606 19.4336 131.606 19.4336C131.606 19.4336 131.605 19.4336 131.605 19.4336C131.604 19.4336 131.604 19.4336 131.604 19.4336C131.603 19.4336 131.603 19.4336 131.603 19.4336C131.602 19.4336 131.602 19.4336 131.601 19.4336C131.601 19.4336 131.601 19.4336 131.6 19.4336C131.6 19.4336 131.6 19.4336 131.599 19.4336C131.599 19.4336 131.598 19.4336 131.598 19.4336C131.598 19.4336 131.597 19.4336 131.597 19.4336C131.597 19.4336 131.596 19.4336 131.596 19.4336C131.595 19.4336 131.595 19.4336 131.595 19.4336C131.594 19.4336 131.594 19.4336 131.594 19.4336C131.593 19.4336 131.593 19.4336 131.592 19.4336C131.592 19.4336 131.592 19.4336 131.591 19.4336C131.591 19.4336 131.59 19.4336 131.59 19.4336C131.59 19.4336 131.589 19.4336 131.589 19.4336C131.589 19.4336 131.588 19.4336 131.588 19.4336C131.587 19.4336 131.587 19.4336 131.587 19.4336C131.586 19.4336 131.586 19.4336 131.586 19.4336C131.585 19.4336 131.585 19.4336 131.584 19.4336C131.584 19.4336 131.584 19.4336 131.583 19.4336C131.583 19.4336 131.583 19.4336 131.582 19.4336C131.582 19.4336 131.581 19.4336 131.581 19.4336C131.581 19.4336 131.58 19.4336 131.58 19.4336C131.58 19.4336 131.579 19.4336 131.579 19.4336C131.578 19.4336 131.578 19.4336 131.578 19.4336C131.577 19.4336 131.577 19.4336 131.577 19.4336C131.576 19.4336 131.576 19.4336 131.575 19.4336C131.575 19.4336 131.575 19.4336 131.574 19.4336C131.574 19.4336 131.574 19.4336 131.573 19.4336C131.573 19.4336 131.572 19.4336 131.572 19.4336C131.572 19.4336 131.571 19.4336 131.571 19.4336C131.57 19.4336 131.57 19.4336 131.57 19.4336C131.569 19.4336 131.569 19.4336 131.569 19.4336C131.568 19.4336 131.568 19.4336 131.567 19.4336C131.567 19.4336 131.567 19.4336 131.566 19.4336C131.566 19.4336 131.566 19.4336 131.565 19.4336C131.565 19.4336 131.564 19.4336 131.564 19.4336C131.564 19.4336 131.563 19.4336 131.563 19.4336C131.563 19.4336 131.562 19.4336 131.562 19.4336C131.561 19.4336 131.561 19.4336 131.561 19.4336C131.56 19.4336 131.56 19.4336 131.56 19.4336C131.559 19.4336 131.559 19.4336 131.558 19.4336C131.558 19.4336 131.558 19.4336 131.557 19.4336C131.557 19.4336 131.556 19.4336 131.556 19.4336C131.556 19.4336 131.555 19.4336 131.555 19.4336C131.555 19.4336 131.554 19.4336 131.554 19.4336C131.553 19.4336 131.553 19.4336 131.553 19.4336C131.552 19.4336 131.552 19.4336 131.552 19.4336C131.551 19.4336 131.551 19.4336 131.55 19.4336C131.55 19.4336 131.55 19.4336 131.549 19.4336C131.549 19.4336 131.549 19.4336 131.548 19.4336C131.548 19.4336 131.547 19.4336 131.547 19.4336C131.547 19.4336 131.546 19.4336 131.546 19.4336C131.545 19.4336 131.545 19.4336 131.545 19.4336C131.544 19.4336 131.544 19.4336 131.544 19.4336C131.543 19.4336 131.543 19.4336 131.542 19.4336C131.542 19.4336 131.542 19.4336 131.541 19.4336C131.541 19.4336 131.541 19.4336 131.54 19.4336C131.54 19.4336 131.539 19.4336 131.539 19.4336C131.539 19.4336 131.538 19.4336 131.538 19.4336C131.537 19.4336 131.537 19.4336 131.537 19.4336C131.536 19.4336 131.536 19.4336 131.536 19.4336C131.535 19.4336 131.535 19.4336 131.534 19.4336C131.534 19.4336 131.534 19.4336 131.533 19.4336C131.533 19.4336 131.533 19.4336 131.532 19.4336C131.532 19.4336 131.531 19.4336 131.531 19.4336C131.531 19.4336 131.53 19.4336 131.53 19.4336C131.529 19.4336 131.529 19.4336 131.529 19.4336C131.528 19.4336 131.528 19.4336 131.528 19.4336C131.527 19.4336 131.527 19.4336 131.526 19.4336C131.526 19.4336 131.526 19.4336 131.525 19.4336C131.525 19.4336 131.525 19.4336 131.524 19.4336C131.524 19.4336 131.523 19.4336 131.523 19.4336C131.523 19.4336 131.522 19.4336 131.522 19.4336C131.521 19.4336 131.521 19.4336 131.521 19.4336C131.52 19.4336 131.52 19.4336 131.52 19.4336C131.519 19.4336 131.519 19.4336 131.518 19.4336C131.518 19.4336 131.518 19.4336 131.517 19.4336C131.517 19.4336 131.517 19.4336 131.516 19.4336C131.516 19.4336 131.515 19.4336 131.515 19.4336C131.515 19.4336 131.514 19.4336 131.514 19.4336C131.513 19.4336 131.513 19.4336 131.513 19.4336C131.512 19.4336 131.512 19.4336 131.512 19.4336C131.511 19.4336 131.511 19.4336 131.51 19.4336C131.51 19.4336 131.51 19.4336 131.509 19.4336C131.509 19.4336 131.509 19.4336 131.508 19.4336C131.508 19.4336 131.507 19.4336 131.507 19.4336C131.507 19.4336 131.506 19.4336 131.506 19.4336C131.505 19.4336 131.505 19.4336 131.505 19.4336C131.504 19.4336 131.504 19.4336 131.504 19.4336C131.503 19.4336 131.503 19.4336 131.502 19.4336C131.502 19.4336 131.502 19.4336 131.501 19.4336C131.501 19.4336 131.501 19.4336 131.5 19.4336C131.5 19.4336 131.499 19.4336 131.499 19.4336C131.499 19.4336 131.498 19.4336 131.498 19.4336C131.497 19.4336 131.497 19.4336 131.497 19.4336C131.496 19.4336 131.496 19.4336 131.496 19.4336C131.495 19.4336 131.495 19.4336 131.494 19.4336C131.494 19.4336 131.494 19.4336 131.493 19.4336C131.493 19.4336 131.492 19.4336 131.492 19.4336C131.492 19.4336 131.491 19.4336 131.491 19.4336C131.491 19.4336 131.49 19.4336 131.49 19.4336C131.489 19.4336 131.489 19.4336 131.489 19.4336C131.488 19.4336 131.488 19.4336 131.487 19.4336C131.487 19.4336 131.487 19.4336 131.486 19.4336C131.486 19.4336 131.486 19.4336 131.485 19.4336C131.485 19.4336 131.484 19.4336 131.484 19.4336C131.484 19.4336 131.483 19.4336 131.483 19.4336C131.483 19.4336 131.482 19.4336 131.482 19.4336C131.481 19.4336 131.481 19.4336 131.481 19.4336C131.48 19.4336 131.48 19.4336 131.479 19.4336C131.479 19.4336 131.479 19.4336 131.478 19.4336C131.478 19.4336 131.478 19.4336 131.477 19.4336C131.477 19.4336 131.476 19.4336 131.476 19.4336C131.476 19.4336 131.475 19.4336 131.475 19.4336C131.474 19.4336 131.474 19.4336 131.474 19.4336C131.473 19.4336 131.473 19.4336 131.473 19.4336C131.472 19.4336 131.472 19.4336 131.471 19.4336C131.471 19.4336 131.471 19.4336 131.47 19.4336C131.47 19.4336 131.469 19.4336 131.469 19.4336C131.469 19.4336 131.468 19.4336 131.468 19.4336C131.468 19.4336 131.467 19.4336 131.467 19.4336C131.466 19.4336 131.466 19.4336 131.466 19.4336C131.465 19.4336 131.465 19.4336 131.464 19.4336C131.464 19.4336 131.464 19.4336 131.463 19.4336C131.463 19.4336 131.463 19.4336 131.462 19.4336C131.462 19.4336 131.461 19.4336 131.461 19.4336C131.461 19.4336 131.46 19.4336 131.46 19.4336C131.459 19.4336 131.459 19.4336 131.459 19.4336C131.458 19.4336 131.458 19.4336 131.458 19.4336C131.457 19.4336 131.457 19.4336 131.456 19.4336C131.456 19.4336 131.456 19.4336 131.455 19.4336C131.455 19.4336 131.454 19.4336 131.454 19.4336C131.454 19.4336 131.453 19.4336 131.453 19.4336C131.453 19.4336 131.452 19.4336 131.452 19.4336C131.451 19.4336 131.451 19.4336 131.451 19.4336C131.45 19.4336 131.45 19.4336 131.449 19.4336C131.449 19.4336 131.449 19.4336 131.448 19.4336C131.448 19.4336 131.448 19.4336 131.447 19.4336C131.447 19.4336 131.446 19.4336 131.446 19.4336C131.446 19.4336 131.445 19.4336 131.445 19.4336C131.444 19.4336 131.444 19.4336 131.444 19.4336C131.443 19.4336 131.443 19.4336 131.443 19.4336C131.442 19.4336 131.442 19.4336 131.441 19.4336C131.441 19.4336 131.441 19.4336 131.44 19.4336C131.44 19.4336 131.439 19.4336 131.439 19.4336C131.439 19.4336 131.438 19.4336 131.438 19.4336C131.437 19.4336 131.437 19.4336 131.437 19.4336C131.436 19.4336 131.436 19.4336 131.436 19.4336C131.435 19.4336 131.435 19.4336 131.434 19.4336C131.434 19.4336 131.434 19.4336 131.433 19.4336C131.433 19.4336 131.432 19.4336 131.432 19.4336C131.432 19.4336 131.431 19.4336 131.431 19.4336C131.431 19.4336 131.43 19.4336 131.43 19.4336C131.429 19.4336 131.429 19.4336 131.429 19.4336C131.428 19.4336 131.428 19.4336 131.427 19.4336C131.427 19.4336 131.427 19.4336 131.426 19.4336C131.426 19.4336 131.426 19.4336 131.425 19.4336C131.425 19.4336 131.424 19.4336 131.424 19.4336C131.424 19.4336 131.423 19.4336 131.423 19.4336C131.422 19.4336 131.422 19.4336 131.422 19.4336C131.421 19.4336 131.421 19.4336 131.42 19.4336C131.42 19.4336 131.42 19.4336 131.419 19.4336C131.419 19.4336 131.419 19.4336 131.418 19.4336C131.418 19.4336 131.417 19.4336 131.417 19.4336C131.417 19.4336 131.416 19.4336 131.416 19.4336C131.415 19.4336 131.415 19.4336 131.415 19.4336C131.414 19.4336 131.414 19.4336 131.414 19.4336C131.413 19.4336 131.413 19.4336 131.412 19.4336C131.412 19.4336 131.412 19.4336 131.411 19.4336C131.411 19.4336 131.41 19.4336 131.41 19.4336C131.41 19.4336 131.409 19.4336 131.409 19.4336C131.408 19.4336 131.408 19.4336 131.408 19.4336C131.407 19.4336 131.407 19.4336 131.407 19.4336C131.406 19.4336 131.406 19.4336 131.405 19.4336C131.405 19.4336 131.405 19.4336 131.404 19.4336C131.404 19.4336 131.403 19.4336 131.403 19.4336C131.403 19.4336 131.402 19.4336 131.402 19.4336C131.401 19.4336 131.401 19.4336 131.401 19.4336C131.4 19.4336 131.4 19.4336 131.4 19.4336C131.399 19.4336 131.399 19.4336 131.398 19.4336C131.398 19.4336 131.398 19.4336 131.397 19.4336C131.397 19.4336 131.396 19.4336 131.396 19.4336C131.396 19.4336 131.395 19.4336 131.395 19.4336C131.395 19.4336 131.394 19.4336 131.394 19.4336C131.393 19.4336 131.393 19.4336 131.393 19.4336C131.392 19.4336 131.392 19.4336 131.391 19.4336C131.391 19.4336 131.391 19.4336 131.39 19.4336C131.39 19.4336 131.389 19.4336 131.389 19.4336C131.389 19.4336 131.388 19.4336 131.388 19.4336C131.387 19.4336 131.387 19.4336 131.387 19.4336C131.386 19.4336 131.386 19.4336 131.386 19.4336C131.385 19.4336 131.385 19.4336 131.384 19.4336C131.384 19.4336 131.384 19.4336 131.383 19.4336C131.383 19.4336 131.382 19.4336 131.382 19.4336C131.382 19.4336 131.381 19.4336 131.381 19.4336C131.38 19.4336 131.38 19.4336 131.38 19.4336C131.379 19.4336 131.379 19.4336 131.379 19.4336C131.378 19.4336 131.378 19.4336 131.377 19.4336C131.377 19.4336 131.377 19.4336 131.376 19.4336C131.376 19.4336 131.375 19.4336 131.375 19.4336C131.375 19.4336 131.374 19.4336 131.374 19.4336C131.373 19.4336 131.373 19.4336 131.373 19.4336C131.372 19.4336 131.372 19.4336 131.372 19.4336C131.371 19.4336 131.371 19.4336 131.37 19.4336C131.37 19.4336 131.37 19.4336 131.369 19.4336C131.369 19.4336 131.368 19.4336 131.368 19.4336C131.368 19.4336 131.367 19.4336 131.367 19.4336C131.366 19.4336 131.366 19.4336 131.366 19.4336C131.365 19.4336 131.365 19.4336 131.365 19.4336C131.364 19.4336 131.364 19.4336 131.363 19.4336C131.363 19.4336 131.363 19.4336 131.362 19.4336C131.362 19.4336 131.361 19.4336 131.361 19.4336C131.361 19.4336 131.36 19.4336 131.36 19.4336C131.359 19.4336 131.359 19.4336 131.359 19.4336C131.358 19.4336 131.358 19.4336 131.357 19.4336C131.357 19.4336 131.357 19.4336 131.356 19.4336C131.356 19.4336 131.356 19.4336 131.355 19.4336C131.355 19.4336 131.354 19.4336 131.354 19.4336C131.354 19.4336 131.353 19.4336 131.353 19.4336C131.352 19.4336 131.352 19.4336 131.352 19.4336C131.351 19.4336 131.351 19.4336 131.35 19.4336C131.35 19.4336 131.35 19.4336 131.349 19.4336C131.349 19.4336 131.348 19.4336 131.348 19.4336C131.348 19.4336 131.347 19.4336 131.347 19.4336C131.347 19.4336 131.346 19.4336 131.346 19.4336C131.345 19.4336 131.345 19.4336 131.345 19.4336C131.344 19.4336 131.344 19.4336 131.343 19.4336C131.343 19.4336 131.343 19.4336 131.342 19.4336C131.342 19.4336 131.341 19.4336 131.341 19.4336C131.341 19.4336 131.34 19.4336 131.34 19.4336C131.339 19.4336 131.339 19.4336 131.339 19.4336C131.338 19.4336 131.338 19.4336 131.338 19.4336C131.337 19.4336 131.337 19.4336 131.336 19.4336C131.336 19.4336 131.336 19.4336 131.335 19.4336C131.335 19.4336 131.334 19.4336 131.334 19.4336C131.334 19.4336 131.333 19.4336 131.333 19.4336C131.332 19.4336 131.332 19.4336 131.332 19.4336C131.331 19.4336 131.331 19.4336 131.33 19.4336C131.33 19.4336 131.33 19.4336 131.329 19.4336C131.329 19.4336 131.329 19.4336 131.328 19.4336C131.328 19.4336 131.327 19.4336 131.327 19.4336C131.327 19.4336 131.326 19.4336 131.326 19.4336C131.325 19.4336 131.325 19.4336 131.325 19.4336C131.324 19.4336 131.324 19.4336 131.323 19.4336C131.323 19.4336 131.323 19.4336 131.322 19.4336C131.322 19.4336 131.321 19.4336 131.321 19.4336C131.321 19.4336 131.32 19.4336 131.32 19.4336C131.319 19.4336 131.319 19.4336 131.319 19.4336C131.318 19.4336 131.318 19.4336 131.318 19.4336C131.317 19.4336 131.317 19.4336 131.316 19.4336C131.316 19.4336 131.316 19.4336 131.315 19.4336C131.315 19.4336 131.314 19.4336 131.314 19.4336C131.314 19.4336 131.313 19.4336 131.313 19.4336C131.312 19.4336 131.312 19.4336 131.312 19.4336C131.311 19.4336 131.311 19.4336 131.31 19.4336C131.31 19.4336 131.31 19.4336 131.309 19.4336C131.309 19.4336 131.308 19.4336 131.308 19.4336C131.308 19.4336 131.307 19.4336 131.307 19.4336C131.307 19.4336 131.306 19.4336 131.306 19.4336C131.305 19.4336 131.305 19.4336 131.305 19.4336C131.304 19.4336 131.304 19.4336 131.303 19.4336C131.303 19.4336 131.303 19.4336 131.302 19.4336C131.302 19.4336 131.301 19.4336 131.301 19.4336C131.301 19.4336 131.3 19.4336 131.3 19.4336C131.299 19.4336 131.299 19.4336 131.299 19.4336C131.298 19.4336 131.298 19.4336 131.297 19.4336C131.297 19.4336 131.297 19.4336 131.296 19.4336C131.296 19.4336 131.295 19.4336 131.295 19.4336C131.295 19.4336 131.294 19.4336 131.294 19.4336C131.294 19.4336 131.293 19.4336 131.293 19.4336C131.292 19.4336 131.292 19.4336 131.292 19.4336C131.291 19.4336 131.291 19.4336 131.29 19.4336C131.29 19.4336 131.29 19.4336 131.289 19.4336C131.289 19.4336 131.288 19.4336 131.288 19.4336C131.288 19.4336 131.287 19.4336 131.287 19.4336C131.286 19.4336 131.286 19.4336 131.286 19.4336C131.285 19.4336 131.285 19.4336 131.284 19.4336V19.8804V20.3272C131.285 20.3272 131.285 20.3272 131.286 20.3272C131.286 20.3272 131.286 20.3272 131.287 20.3272C131.287 20.3272 131.288 20.3272 131.288 20.3272C131.288 20.3272 131.289 20.3272 131.289 20.3272C131.29 20.3272 131.29 20.3272 131.29 20.3272C131.291 20.3272 131.291 20.3272 131.292 20.3272C131.292 20.3272 131.292 20.3272 131.293 20.3272C131.293 20.3272 131.294 20.3272 131.294 20.3272C131.294 20.3272 131.295 20.3272 131.295 20.3272C131.295 20.3272 131.296 20.3272 131.296 20.3272C131.297 20.3272 131.297 20.3272 131.297 20.3272C131.298 20.3272 131.298 20.3272 131.299 20.3272C131.299 20.3272 131.299 20.3272 131.3 20.3272C131.3 20.3272 131.301 20.3272 131.301 20.3272C131.301 20.3272 131.302 20.3272 131.302 20.3272C131.303 20.3272 131.303 20.3272 131.303 20.3272C131.304 20.3272 131.304 20.3272 131.305 20.3272C131.305 20.3272 131.305 20.3272 131.306 20.3272C131.306 20.3272 131.307 20.3272 131.307 20.3272C131.307 20.3272 131.308 20.3272 131.308 20.3272C131.308 20.3272 131.309 20.3272 131.309 20.3272C131.31 20.3272 131.31 20.3272 131.31 20.3272C131.311 20.3272 131.311 20.3272 131.312 20.3272C131.312 20.3272 131.312 20.3272 131.313 20.3272C131.313 20.3272 131.314 20.3272 131.314 20.3272C131.314 20.3272 131.315 20.3272 131.315 20.3272C131.316 20.3272 131.316 20.3272 131.316 20.3272C131.317 20.3272 131.317 20.3272 131.318 20.3272C131.318 20.3272 131.318 20.3272 131.319 20.3272C131.319 20.3272 131.319 20.3272 131.32 20.3272C131.32 20.3272 131.321 20.3272 131.321 20.3272C131.321 20.3272 131.322 20.3272 131.322 20.3272C131.323 20.3272 131.323 20.3272 131.323 20.3272C131.324 20.3272 131.324 20.3272 131.325 20.3272C131.325 20.3272 131.325 20.3272 131.326 20.3272C131.326 20.3272 131.327 20.3272 131.327 20.3272C131.327 20.3272 131.328 20.3272 131.328 20.3272C131.329 20.3272 131.329 20.3272 131.329 20.3272C131.33 20.3272 131.33 20.3272 131.33 20.3272C131.331 20.3272 131.331 20.3272 131.332 20.3272C131.332 20.3272 131.332 20.3272 131.333 20.3272C131.333 20.3272 131.334 20.3272 131.334 20.3272C131.334 20.3272 131.335 20.3272 131.335 20.3272C131.336 20.3272 131.336 20.3272 131.336 20.3272C131.337 20.3272 131.337 20.3272 131.338 20.3272C131.338 20.3272 131.338 20.3272 131.339 20.3272C131.339 20.3272 131.339 20.3272 131.34 20.3272C131.34 20.3272 131.341 20.3272 131.341 20.3272C131.341 20.3272 131.342 20.3272 131.342 20.3272C131.343 20.3272 131.343 20.3272 131.343 20.3272C131.344 20.3272 131.344 20.3272 131.345 20.3272C131.345 20.3272 131.345 20.3272 131.346 20.3272C131.346 20.3272 131.347 20.3272 131.347 20.3272C131.347 20.3272 131.348 20.3272 131.348 20.3272C131.348 20.3272 131.349 20.3272 131.349 20.3272C131.35 20.3272 131.35 20.3272 131.35 20.3272C131.351 20.3272 131.351 20.3272 131.352 20.3272C131.352 20.3272 131.352 20.3272 131.353 20.3272C131.353 20.3272 131.354 20.3272 131.354 20.3272C131.354 20.3272 131.355 20.3272 131.355 20.3272C131.356 20.3272 131.356 20.3272 131.356 20.3272C131.357 20.3272 131.357 20.3272 131.357 20.3272C131.358 20.3272 131.358 20.3272 131.359 20.3272C131.359 20.3272 131.359 20.3272 131.36 20.3272C131.36 20.3272 131.361 20.3272 131.361 20.3272C131.361 20.3272 131.362 20.3272 131.362 20.3272C131.363 20.3272 131.363 20.3272 131.363 20.3272C131.364 20.3272 131.364 20.3272 131.365 20.3272C131.365 20.3272 131.365 20.3272 131.366 20.3272C131.366 20.3272 131.366 20.3272 131.367 20.3272C131.367 20.3272 131.368 20.3272 131.368 20.3272C131.368 20.3272 131.369 20.3272 131.369 20.3272C131.37 20.3272 131.37 20.3272 131.37 20.3272C131.371 20.3272 131.371 20.3272 131.372 20.3272C131.372 20.3272 131.372 20.3272 131.373 20.3272C131.373 20.3272 131.373 20.3272 131.374 20.3272C131.374 20.3272 131.375 20.3272 131.375 20.3272C131.375 20.3272 131.376 20.3272 131.376 20.3272C131.377 20.3272 131.377 20.3272 131.377 20.3272C131.378 20.3272 131.378 20.3272 131.379 20.3272C131.379 20.3272 131.379 20.3272 131.38 20.3272C131.38 20.3272 131.38 20.3272 131.381 20.3272C131.381 20.3272 131.382 20.3272 131.382 20.3272C131.382 20.3272 131.383 20.3272 131.383 20.3272C131.384 20.3272 131.384 20.3272 131.384 20.3272C131.385 20.3272 131.385 20.3272 131.386 20.3272C131.386 20.3272 131.386 20.3272 131.387 20.3272C131.387 20.3272 131.387 20.3272 131.388 20.3272C131.388 20.3272 131.389 20.3272 131.389 20.3272C131.389 20.3272 131.39 20.3272 131.39 20.3272C131.391 20.3272 131.391 20.3272 131.391 20.3272C131.392 20.3272 131.392 20.3272 131.393 20.3272C131.393 20.3272 131.393 20.3272 131.394 20.3272C131.394 20.3272 131.395 20.3272 131.395 20.3272C131.395 20.3272 131.396 20.3272 131.396 20.3272C131.396 20.3272 131.397 20.3272 131.397 20.3272C131.398 20.3272 131.398 20.3272 131.398 20.3272C131.399 20.3272 131.399 20.3272 131.4 20.3272C131.4 20.3272 131.4 20.3272 131.401 20.3272C131.401 20.3272 131.401 20.3272 131.402 20.3272C131.402 20.3272 131.403 20.3272 131.403 20.3272C131.403 20.3272 131.404 20.3272 131.404 20.3272C131.405 20.3272 131.405 20.3272 131.405 20.3272C131.406 20.3272 131.406 20.3272 131.407 20.3272C131.407 20.3272 131.407 20.3272 131.408 20.3272C131.408 20.3272 131.408 20.3272 131.409 20.3272C131.409 20.3272 131.41 20.3272 131.41 20.3272C131.41 20.3272 131.411 20.3272 131.411 20.3272C131.412 20.3272 131.412 20.3272 131.412 20.3272C131.413 20.3272 131.413 20.3272 131.414 20.3272C131.414 20.3272 131.414 20.3272 131.415 20.3272C131.415 20.3272 131.415 20.3272 131.416 20.3272C131.416 20.3272 131.417 20.3272 131.417 20.3272C131.417 20.3272 131.418 20.3272 131.418 20.3272C131.419 20.3272 131.419 20.3272 131.419 20.3272C131.42 20.3272 131.42 20.3272 131.42 20.3272C131.421 20.3272 131.421 20.3272 131.422 20.3272C131.422 20.3272 131.422 20.3272 131.423 20.3272C131.423 20.3272 131.424 20.3272 131.424 20.3272C131.424 20.3272 131.425 20.3272 131.425 20.3272C131.426 20.3272 131.426 20.3272 131.426 20.3272C131.427 20.3272 131.427 20.3272 131.427 20.3272C131.428 20.3272 131.428 20.3272 131.429 20.3272C131.429 20.3272 131.429 20.3272 131.43 20.3272C131.43 20.3272 131.431 20.3272 131.431 20.3272C131.431 20.3272 131.432 20.3272 131.432 20.3272C131.432 20.3272 131.433 20.3272 131.433 20.3272C131.434 20.3272 131.434 20.3272 131.434 20.3272C131.435 20.3272 131.435 20.3272 131.436 20.3272C131.436 20.3272 131.436 20.3272 131.437 20.3272C131.437 20.3272 131.437 20.3272 131.438 20.3272C131.438 20.3272 131.439 20.3272 131.439 20.3272C131.439 20.3272 131.44 20.3272 131.44 20.3272C131.441 20.3272 131.441 20.3272 131.441 20.3272C131.442 20.3272 131.442 20.3272 131.443 20.3272C131.443 20.3272 131.443 20.3272 131.444 20.3272C131.444 20.3272 131.444 20.3272 131.445 20.3272C131.445 20.3272 131.446 20.3272 131.446 20.3272C131.446 20.3272 131.447 20.3272 131.447 20.3272C131.448 20.3272 131.448 20.3272 131.448 20.3272C131.449 20.3272 131.449 20.3272 131.449 20.3272C131.45 20.3272 131.45 20.3272 131.451 20.3272C131.451 20.3272 131.451 20.3272 131.452 20.3272C131.452 20.3272 131.453 20.3272 131.453 20.3272C131.453 20.3272 131.454 20.3272 131.454 20.3272C131.454 20.3272 131.455 20.3272 131.455 20.3272C131.456 20.3272 131.456 20.3272 131.456 20.3272C131.457 20.3272 131.457 20.3272 131.458 20.3272C131.458 20.3272 131.458 20.3272 131.459 20.3272C131.459 20.3272 131.459 20.3272 131.46 20.3272C131.46 20.3272 131.461 20.3272 131.461 20.3272C131.461 20.3272 131.462 20.3272 131.462 20.3272C131.463 20.3272 131.463 20.3272 131.463 20.3272C131.464 20.3272 131.464 20.3272 131.464 20.3272C131.465 20.3272 131.465 20.3272 131.466 20.3272C131.466 20.3272 131.466 20.3272 131.467 20.3272C131.467 20.3272 131.468 20.3272 131.468 20.3272C131.468 20.3272 131.469 20.3272 131.469 20.3272C131.469 20.3272 131.47 20.3272 131.47 20.3272C131.471 20.3272 131.471 20.3272 131.471 20.3272C131.472 20.3272 131.472 20.3272 131.473 20.3272C131.473 20.3272 131.473 20.3272 131.474 20.3272C131.474 20.3272 131.474 20.3272 131.475 20.3272C131.475 20.3272 131.476 20.3272 131.476 20.3272C131.476 20.3272 131.477 20.3272 131.477 20.3272C131.478 20.3272 131.478 20.3272 131.478 20.3272C131.479 20.3272 131.479 20.3272 131.479 20.3272C131.48 20.3272 131.48 20.3272 131.481 20.3272C131.481 20.3272 131.481 20.3272 131.482 20.3272C131.482 20.3272 131.483 20.3272 131.483 20.3272C131.483 20.3272 131.484 20.3272 131.484 20.3272C131.484 20.3272 131.485 20.3272 131.485 20.3272C131.486 20.3272 131.486 20.3272 131.486 20.3272C131.487 20.3272 131.487 20.3272 131.487 20.3272C131.488 20.3272 131.488 20.3272 131.489 20.3272C131.489 20.3272 131.489 20.3272 131.49 20.3272C131.49 20.3272 131.491 20.3272 131.491 20.3272C131.491 20.3272 131.492 20.3272 131.492 20.3272C131.492 20.3272 131.493 20.3272 131.493 20.3272C131.494 20.3272 131.494 20.3272 131.494 20.3272C131.495 20.3272 131.495 20.3272 131.496 20.3272C131.496 20.3272 131.496 20.3272 131.497 20.3272C131.497 20.3272 131.497 20.3272 131.498 20.3272C131.498 20.3272 131.499 20.3272 131.499 20.3272C131.499 20.3272 131.5 20.3272 131.5 20.3272C131.501 20.3272 131.501 20.3272 131.501 20.3272C131.502 20.3272 131.502 20.3272 131.502 20.3272C131.503 20.3272 131.503 20.3272 131.504 20.3272C131.504 20.3272 131.504 20.3272 131.505 20.3272C131.505 20.3272 131.505 20.3272 131.506 20.3272C131.506 20.3272 131.507 20.3272 131.507 20.3272C131.507 20.3272 131.508 20.3272 131.508 20.3272C131.509 20.3272 131.509 20.3272 131.509 20.3272C131.51 20.3272 131.51 20.3272 131.51 20.3272C131.511 20.3272 131.511 20.3272 131.512 20.3272C131.512 20.3272 131.512 20.3272 131.513 20.3272C131.513 20.3272 131.513 20.3272 131.514 20.3272C131.514 20.3272 131.515 20.3272 131.515 20.3272C131.515 20.3272 131.516 20.3272 131.516 20.3272C131.517 20.3272 131.517 20.3272 131.517 20.3272C131.518 20.3272 131.518 20.3272 131.518 20.3272C131.519 20.3272 131.519 20.3272 131.52 20.3272C131.52 20.3272 131.52 20.3272 131.521 20.3272C131.521 20.3272 131.521 20.3272 131.522 20.3272C131.522 20.3272 131.523 20.3272 131.523 20.3272C131.523 20.3272 131.524 20.3272 131.524 20.3272C131.525 20.3272 131.525 20.3272 131.525 20.3272C131.526 20.3272 131.526 20.3272 131.526 20.3272C131.527 20.3272 131.527 20.3272 131.528 20.3272C131.528 20.3272 131.528 20.3272 131.529 20.3272C131.529 20.3272 131.529 20.3272 131.53 20.3272C131.53 20.3272 131.531 20.3272 131.531 20.3272C131.531 20.3272 131.532 20.3272 131.532 20.3272C131.533 20.3272 131.533 20.3272 131.533 20.3272C131.534 20.3272 131.534 20.3272 131.534 20.3272C131.535 20.3272 131.535 20.3272 131.536 20.3272C131.536 20.3272 131.536 20.3272 131.537 20.3272C131.537 20.3272 131.537 20.3272 131.538 20.3272C131.538 20.3272 131.539 20.3272 131.539 20.3272C131.539 20.3272 131.54 20.3272 131.54 20.3272C131.541 20.3272 131.541 20.3272 131.541 20.3272C131.542 20.3272 131.542 20.3272 131.542 20.3272C131.543 20.3272 131.543 20.3272 131.544 20.3272C131.544 20.3272 131.544 20.3272 131.545 20.3272C131.545 20.3272 131.545 20.3272 131.546 20.3272C131.546 20.3272 131.547 20.3272 131.547 20.3272C131.547 20.3272 131.548 20.3272 131.548 20.3272C131.549 20.3272 131.549 20.3272 131.549 20.3272C131.55 20.3272 131.55 20.3272 131.55 20.3272C131.551 20.3272 131.551 20.3272 131.552 20.3272C131.552 20.3272 131.552 20.3272 131.553 20.3272C131.553 20.3272 131.553 20.3272 131.554 20.3272C131.554 20.3272 131.555 20.3272 131.555 20.3272C131.555 20.3272 131.556 20.3272 131.556 20.3272C131.556 20.3272 131.557 20.3272 131.557 20.3272C131.558 20.3272 131.558 20.3272 131.558 20.3272C131.559 20.3272 131.559 20.3272 131.56 20.3272C131.56 20.3272 131.56 20.3272 131.561 20.3272C131.561 20.3272 131.561 20.3272 131.562 20.3272C131.562 20.3272 131.563 20.3272 131.563 20.3272C131.563 20.3272 131.564 20.3272 131.564 20.3272C131.564 20.3272 131.565 20.3272 131.565 20.3272C131.566 20.3272 131.566 20.3272 131.566 20.3272C131.567 20.3272 131.567 20.3272 131.567 20.3272C131.568 20.3272 131.568 20.3272 131.569 20.3272C131.569 20.3272 131.569 20.3272 131.57 20.3272C131.57 20.3272 131.57 20.3272 131.571 20.3272C131.571 20.3272 131.572 20.3272 131.572 20.3272C131.572 20.3272 131.573 20.3272 131.573 20.3272C131.574 20.3272 131.574 20.3272 131.574 20.3272C131.575 20.3272 131.575 20.3272 131.575 20.3272C131.576 20.3272 131.576 20.3272 131.577 20.3272C131.577 20.3272 131.577 20.3272 131.578 20.3272C131.578 20.3272 131.578 20.3272 131.579 20.3272C131.579 20.3272 131.58 20.3272 131.58 20.3272C131.58 20.3272 131.581 20.3272 131.581 20.3272C131.581 20.3272 131.582 20.3272 131.582 20.3272C131.583 20.3272 131.583 20.3272 131.583 20.3272C131.584 20.3272 131.584 20.3272 131.584 20.3272C131.585 20.3272 131.585 20.3272 131.586 20.3272C131.586 20.3272 131.586 20.3272 131.587 20.3272C131.587 20.3272 131.587 20.3272 131.588 20.3272C131.588 20.3272 131.589 20.3272 131.589 20.3272C131.589 20.3272 131.59 20.3272 131.59 20.3272C131.59 20.3272 131.591 20.3272 131.591 20.3272C131.592 20.3272 131.592 20.3272 131.592 20.3272C131.593 20.3272 131.593 20.3272 131.594 20.3272C131.594 20.3272 131.594 20.3272 131.595 20.3272C131.595 20.3272 131.595 20.3272 131.596 20.3272C131.596 20.3272 131.597 20.3272 131.597 20.3272C131.597 20.3272 131.598 20.3272 131.598 20.3272C131.598 20.3272 131.599 20.3272 131.599 20.3272C131.6 20.3272 131.6 20.3272 131.6 20.3272C131.601 20.3272 131.601 20.3272 131.601 20.3272C131.602 20.3272 131.602 20.3272 131.603 20.3272C131.603 20.3272 131.603 20.3272 131.604 20.3272C131.604 20.3272 131.604 20.3272 131.605 20.3272C131.605 20.3272 131.606 20.3272 131.606 20.3272C131.606 20.3272 131.607 20.3272 131.607 20.3272C131.607 20.3272 131.608 20.3272 131.608 20.3272C131.609 20.3272 131.609 20.3272 131.609 20.3272C131.61 20.3272 131.61 20.3272 131.61 20.3272C131.611 20.3272 131.611 20.3272 131.612 20.3272C131.612 20.3272 131.612 20.3272 131.613 20.3272C131.613 20.3272 131.613 20.3272 131.614 20.3272C131.614 20.3272 131.615 20.3272 131.615 20.3272C131.615 20.3272 131.616 20.3272 131.616 20.3272C131.616 20.3272 131.617 20.3272 131.617 20.3272C131.618 20.3272 131.618 20.3272 131.618 20.3272C131.619 20.3272 131.619 20.3272 131.619 20.3272C131.62 20.3272 131.62 20.3272 131.621 20.3272C131.621 20.3272 131.621 20.3272 131.622 20.3272C131.622 20.3272 131.622 20.3272 131.623 20.3272C131.623 20.3272 131.624 20.3272 131.624 20.3272C131.624 20.3272 131.625 20.3272 131.625 20.3272C131.625 20.3272 131.626 20.3272 131.626 20.3272C131.627 20.3272 131.627 20.3272 131.627 20.3272C131.628 20.3272 131.628 20.3272 131.628 20.3272C131.629 20.3272 131.629 20.3272 131.63 20.3272C131.63 20.3272 131.63 20.3272 131.631 20.3272C131.631 20.3272 131.631 20.3272 131.632 20.3272C131.632 20.3272 131.633 20.3272 131.633 20.3272C131.633 20.3272 131.634 20.3272 131.634 20.3272C131.634 20.3272 131.635 20.3272 131.635 20.3272C131.636 20.3272 131.636 20.3272 131.636 20.3272C131.637 20.3272 131.637 20.3272 131.637 20.3272C131.638 20.3272 131.638 20.3272 131.639 20.3272C131.639 20.3272 131.639 20.3272 131.64 20.3272C131.64 20.3272 131.64 20.3272 131.641 20.3272C131.641 20.3272 131.642 20.3272 131.642 20.3272C131.642 20.3272 131.643 20.3272 131.643 20.3272C131.643 20.3272 131.644 20.3272 131.644 20.3272C131.645 20.3272 131.645 20.3272 131.645 20.3272C131.646 20.3272 131.646 20.3272 131.646 20.3272C131.647 20.3272 131.647 20.3272 131.648 20.3272C131.648 20.3272 131.648 20.3272 131.649 20.3272C131.649 20.3272 131.649 20.3272 131.65 20.3272C131.65 20.3272 131.651 20.3272 131.651 20.3272C131.651 20.3272 131.652 20.3272 131.652 20.3272C131.652 20.3272 131.653 20.3272 131.653 20.3272C131.654 20.3272 131.654 20.3272 131.654 20.3272C131.655 20.3272 131.655 20.3272 131.655 20.3272C131.656 20.3272 131.656 20.3272 131.657 20.3272C131.657 20.3272 131.657 20.3272 131.658 20.3272C131.658 20.3272 131.658 20.3272 131.659 20.3272C131.659 20.3272 131.66 20.3272 131.66 20.3272C131.66 20.3272 131.661 20.3272 131.661 20.3272C131.661 20.3272 131.662 20.3272 131.662 20.3272C131.662 20.3272 131.663 20.3272 131.663 20.3272C131.664 20.3272 131.664 20.3272 131.664 20.3272C131.665 20.3272 131.665 20.3272 131.665 20.3272C131.666 20.3272 131.666 20.3272 131.667 20.3272C131.667 20.3272 131.667 20.3272 131.668 20.3272C131.668 20.3272 131.668 20.3272 131.669 20.3272C131.669 20.3272 131.67 20.3272 131.67 20.3272C131.67 20.3272 131.671 20.3272 131.671 20.3272C131.671 20.3272 131.672 20.3272 131.672 20.3272C131.673 20.3272 131.673 20.3272 131.673 20.3272C131.674 20.3272 131.674 20.3272 131.674 20.3272C131.675 20.3272 131.675 20.3272 131.676 20.3272C131.676 20.3272 131.676 20.3272 131.677 20.3272C131.677 20.3272 131.677 20.3272 131.678 20.3272C131.678 20.3272 131.678 20.3272 131.679 20.3272C131.679 20.3272 131.68 20.3272 131.68 20.3272C131.68 20.3272 131.681 20.3272 131.681 20.3272C131.681 20.3272 131.682 20.3272 131.682 20.3272C131.683 20.3272 131.683 20.3272 131.683 20.3272C131.684 20.3272 131.684 20.3272 131.684 20.3272C131.685 20.3272 131.685 20.3272 131.686 20.3272C131.686 20.3272 131.686 20.3272 131.687 20.3272C131.687 20.3272 131.687 20.3272 131.688 20.3272C131.688 20.3272 131.689 20.3272 131.689 20.3272C131.689 20.3272 131.69 20.3272 131.69 20.3272C131.69 20.3272 131.691 20.3272 131.691 20.3272C131.691 20.3272 131.692 20.3272 131.692 20.3272C131.693 20.3272 131.693 20.3272 131.693 20.3272C131.694 20.3272 131.694 20.3272 131.694 20.3272C131.695 20.3272 131.695 20.3272 131.696 20.3272C131.696 20.3272 131.696 20.3272 131.697 20.3272C131.697 20.3272 131.697 20.3272 131.698 20.3272C131.698 20.3272 131.699 20.3272 131.699 20.3272C131.699 20.3272 131.7 20.3272 131.7 20.3272C131.7 20.3272 131.701 20.3272 131.701 20.3272C131.702 20.3272 131.702 20.3272 131.702 20.3272C131.703 20.3272 131.703 20.3272 131.703 20.3272C131.704 20.3272 131.704 20.3272 131.704 20.3272C131.705 20.3272 131.705 20.3272 131.706 20.3272C131.706 20.3272 131.706 20.3272 131.707 20.3272C131.707 20.3272 131.707 20.3272 131.708 20.3272C131.708 20.3272 131.709 20.3272 131.709 20.3272C131.709 20.3272 131.71 20.3272 131.71 20.3272C131.71 20.3272 131.711 20.3272 131.711 20.3272C131.712 20.3272 131.712 20.3272 131.712 20.3272C131.713 20.3272 131.713 20.3272 131.713 20.3272C131.714 20.3272 131.714 20.3272 131.714 20.3272C131.715 20.3272 131.715 20.3272 131.716 20.3272C131.716 20.3272 131.716 20.3272 131.717 20.3272C131.717 20.3272 131.717 20.3272 131.718 20.3272C131.718 20.3272 131.719 20.3272 131.719 20.3272C131.719 20.3272 131.72 20.3272 131.72 20.3272C131.72 20.3272 131.721 20.3272 131.721 20.3272C131.721 20.3272 131.722 20.3272 131.722 20.3272C131.723 20.3272 131.723 20.3272 131.723 20.3272C131.724 20.3272 131.724 20.3272 131.724 20.3272C131.725 20.3272 131.725 20.3272 131.726 20.3272C131.726 20.3272 131.726 20.3272 131.727 20.3272C131.727 20.3272 131.727 20.3272 131.728 20.3272C131.728 20.3272 131.729 20.3272 131.729 20.3272C131.729 20.3272 131.73 20.3272 131.73 20.3272C131.73 20.3272 131.731 20.3272 131.731 20.3272C131.731 20.3272 131.732 20.3272 131.732 20.3272C131.733 20.3272 131.733 20.3272 131.733 20.3272C131.734 20.3272 131.734 20.3272 131.734 20.3272C131.735 20.3272 131.735 20.3272 131.736 20.3272C131.736 20.3272 131.736 20.3272 131.737 20.3272C131.737 20.3272 131.737 20.3272 131.738 20.3272C131.738 20.3272 131.738 20.3272 131.739 20.3272C131.739 20.3272 131.74 20.3272 131.74 20.3272C131.74 20.3272 131.741 20.3272 131.741 20.3272C131.741 20.3272 131.742 20.3272 131.742 20.3272C131.742 20.3272 131.743 20.3272 131.743 20.3272C131.744 20.3272 131.744 20.3272 131.744 20.3272C131.745 20.3272 131.745 20.3272 131.745 20.3272C131.746 20.3272 131.746 20.3272 131.747 20.3272C131.747 20.3272 131.747 20.3272 131.748 20.3272C131.748 20.3272 131.748 20.3272 131.749 20.3272C131.749 20.3272 131.749 20.3272 131.75 20.3272C131.75 20.3272 131.751 20.3272 131.751 20.3272C131.751 20.3272 131.752 20.3272 131.752 20.3272C131.752 20.3272 131.753 20.3272 131.753 20.3272C131.754 20.3272 131.754 20.3272 131.754 20.3272C131.755 20.3272 131.755 20.3272 131.755 20.3272C131.756 20.3272 131.756 20.3272 131.756 20.3272C131.757 20.3272 131.757 20.3272 131.758 20.3272C131.758 20.3272 131.758 20.3272 131.759 20.3272C131.759 20.3272 131.759 20.3272 131.76 20.3272C131.76 20.3272 131.76 20.3272 131.761 20.3272C131.761 20.3272 131.762 20.3272 131.762 20.3272C131.762 20.3272 131.763 20.3272 131.763 20.3272C131.763 20.3272 131.764 20.3272 131.764 20.3272C131.765 20.3272 131.765 20.3272 131.765 20.3272C131.766 20.3272 131.766 20.3272 131.766 20.3272C131.767 20.3272 131.767 20.3272 131.767 20.3272C131.768 20.3272 131.768 20.3272 131.769 20.3272C131.769 20.3272 131.769 20.3272 131.77 20.3272C131.77 20.3272 131.77 20.3272 131.771 20.3272C131.771 20.3272 131.771 20.3272 131.772 20.3272C131.772 20.3272 131.773 20.3272 131.773 20.3272C131.773 20.3272 131.774 20.3272 131.774 20.3272C131.774 20.3272 131.775 20.3272 131.775 20.3272C131.776 20.3272 131.776 20.3272 131.776 20.3272C131.777 20.3272 131.777 20.3272 131.777 20.3272C131.778 20.3272 131.778 20.3272 131.778 20.3272C131.779 20.3272 131.779 20.3272 131.78 20.3272C131.78 20.3272 131.78 20.3272 131.781 20.3272C131.781 20.3272 131.781 20.3272 131.782 20.3272C131.782 20.3272 131.782 20.3272 131.783 20.3272C131.783 20.3272 131.784 20.3272 131.784 20.3272C131.784 20.3272 131.785 20.3272 131.785 20.3272C131.785 20.3272 131.786 20.3272 131.786 20.3272C131.786 20.3272 131.787 20.3272 131.787 20.3272C131.788 20.3272 131.788 20.3272 131.788 20.3272C131.789 20.3272 131.789 20.3272 131.789 20.3272C131.79 20.3272 131.79 20.3272 131.791 20.3272C131.791 20.3272 131.791 20.3272 131.792 20.3272C131.792 20.3272 131.792 20.3272 131.793 20.3272C131.793 20.3272 131.793 20.3272 131.794 20.3272C131.794 20.3272 131.795 20.3272 131.795 20.3272C131.795 20.3272 131.796 20.3272 131.796 20.3272C131.796 20.3272 131.797 20.3272 131.797 20.3272C131.797 20.3272 131.798 20.3272 131.798 20.3272C131.799 20.3272 131.799 20.3272 131.799 20.3272C131.8 20.3272 131.8 20.3272 131.8 20.3272C131.801 20.3272 131.801 20.3272 131.801 20.3272C131.802 20.3272 131.802 20.3272 131.803 20.3272C131.803 20.3272 131.803 20.3272 131.804 20.3272C131.804 20.3272 131.804 20.3272 131.805 20.3272C131.805 20.3272 131.805 20.3272 131.806 20.3272C131.806 20.3272 131.807 20.3272 131.807 20.3272C131.807 20.3272 131.808 20.3272 131.808 20.3272C131.808 20.3272 131.809 20.3272 131.809 20.3272C131.809 20.3272 131.81 20.3272 131.81 20.3272C131.811 20.3272 131.811 20.3272 131.811 20.3272C131.812 20.3272 131.812 20.3272 131.812 20.3272C131.813 20.3272 131.813 20.3272 131.813 20.3272C131.814 20.3272 131.814 20.3272 131.815 20.3272C131.815 20.3272 131.815 20.3272 131.816 20.3272C131.816 20.3272 131.816 20.3272 131.817 20.3272C131.817 20.3272 131.817 20.3272 131.818 20.3272C131.818 20.3272 131.819 20.3272 131.819 20.3272C131.819 20.3272 131.82 20.3272 131.82 20.3272C131.82 20.3272 131.821 20.3272 131.821 20.3272C131.821 20.3272 131.822 20.3272 131.822 20.3272C131.823 20.3272 131.823 20.3272 131.823 20.3272C131.824 20.3272 131.824 20.3272 131.824 20.3272C131.825 20.3272 131.825 20.3272 131.825 20.3272C131.826 20.3272 131.826 20.3272 131.827 20.3272C131.827 20.3272 131.827 20.3272 131.828 20.3272C131.828 20.3272 131.828 20.3272 131.829 20.3272C131.829 20.3272 131.829 20.3272 131.83 20.3272C131.83 20.3272 131.831 20.3272 131.831 20.3272C131.831 20.3272 131.832 20.3272 131.832 20.3272C131.832 20.3272 131.833 20.3272 131.833 20.3272C131.833 20.3272 131.834 20.3272 131.834 20.3272C131.835 20.3272 131.835 20.3272 131.835 20.3272C131.836 20.3272 131.836 20.3272 131.836 20.3272C131.837 20.3272 131.837 20.3272 131.837 20.3272C131.838 20.3272 131.838 20.3272 131.839 20.3272C131.839 20.3272 131.839 20.3272 131.84 20.3272C131.84 20.3272 131.84 20.3272 131.841 20.3272C131.841 20.3272 131.841 20.3272 131.842 20.3272C131.842 20.3272 131.842 20.3272 131.843 20.3272C131.843 20.3272 131.844 20.3272 131.844 20.3272C131.844 20.3272 131.845 20.3272 131.845 20.3272C131.845 20.3272 131.846 20.3272 131.846 20.3272C131.846 20.3272 131.847 20.3272 131.847 20.3272C131.848 20.3272 131.848 20.3272 131.848 20.3272C131.849 20.3272 131.849 20.3272 131.849 20.3272C131.85 20.3272 131.85 20.3272 131.85 20.3272C131.851 20.3272 131.851 20.3272 131.852 20.3272C131.852 20.3272 131.852 20.3272 131.853 20.3272C131.853 20.3272 131.853 20.3272 131.854 20.3272C131.854 20.3272 131.854 20.3272 131.855 20.3272C131.855 20.3272 131.855 20.3272 131.856 20.3272C131.856 20.3272 131.857 20.3272 131.857 20.3272C131.857 20.3272 131.858 20.3272 131.858 20.3272C131.858 20.3272 131.859 20.3272 131.859 20.3272C131.859 20.3272 131.86 20.3272 131.86 20.3272C131.861 20.3272 131.861 20.3272 131.861 20.3272C131.862 20.3272 131.862 20.3272 131.862 20.3272C131.863 20.3272 131.863 20.3272 131.863 20.3272C131.864 20.3272 131.864 20.3272 131.865 20.3272V19.8804ZM131.284 19.8804V19.4336H119.696V19.8804V20.3272H131.284V19.8804ZM119.696 19.8804H119.249V28.0674H119.696H120.143V19.8804H119.696ZM119.696 28.0674V27.6206H117.165V28.0674V28.5142H119.696V28.0674ZM117.165 28.0674H117.612V7.81738H117.165H116.718V28.0674H117.165ZM119.696 17.6919V18.1387H130.889V17.6919V17.2451H119.696V17.6919ZM130.889 17.6919V18.1387C132.398 18.1387 133.6 18.0903 134.485 17.9909L134.435 17.5469L134.385 17.1029C133.548 17.1968 132.385 17.2451 130.889 17.2451V17.6919ZM134.435 17.5469L134.489 17.9904C135.379 17.8826 136.096 17.6928 136.585 17.3843L136.347 17.0063L136.109 16.6284C135.789 16.8297 135.232 17.0002 134.382 17.1033L134.435 17.5469ZM136.347 17.0063L136.582 17.3866C137.093 17.071 137.429 16.613 137.572 16.0317L137.138 15.9253L136.704 15.8189C136.618 16.1693 136.427 16.432 136.112 16.6261L136.347 17.0063ZM137.138 15.9253L137.572 16.0317C137.698 15.5177 137.756 14.8763 137.756 14.1191H137.309H136.863C136.863 14.8386 136.806 15.4012 136.704 15.8189L137.138 15.9253ZM137.309 14.1191H137.756V13.5918H137.309H136.863V14.1191H137.309ZM137.309 13.5918H137.756C137.756 12.7358 137.676 12.023 137.497 11.4753L137.072 11.6143L136.647 11.7532C136.785 12.1723 136.863 12.7779 136.863 13.5918H137.309ZM137.072 11.6143L137.497 11.4753C137.299 10.8717 136.896 10.423 136.317 10.1438L136.123 10.5464L135.929 10.949C136.298 11.1268 136.529 11.39 136.647 11.7532L137.072 11.6143ZM136.123 10.5464L136.317 10.1438C135.765 9.87805 134.989 9.72826 134.029 9.66547L134 10.1113L133.971 10.5572C134.892 10.6174 135.532 10.7577 135.929 10.949L136.123 10.5464ZM134 10.1113L134.034 9.66576C133.077 9.59426 131.808 9.55905 130.23 9.55905V10.0059V10.4527C131.798 10.4527 133.042 10.4878 133.967 10.5569L134 10.1113ZM130.23 10.0059V9.55905H119.696V10.0059V10.4527H130.23V10.0059ZM119.696 10.0059H119.249V17.6919H119.696H120.143V10.0059H119.696Z" fill="black" mask="url(#path-4-outside-1_5037_292)"/>
<path d="M27.7691 16.9404C27.4845 16.7687 26.9595 16.4869 26.8188 16.3717C26.8188 16.3717 26.6729 16.2515 26.8239 16.1131C26.9739 15.9748 27.2893 16.1111 27.3952 16.1909C27.501 16.2707 27.6869 16.3061 27.7342 16.2313C27.7825 16.1566 27.6623 16.0434 27.5267 15.9727C27.39 15.902 27.1753 15.6414 27.0345 15.5333C26.8938 15.4253 26.7859 15.3616 26.5229 15.3717C26.5229 15.3717 26.4006 15.3647 26.4253 15.2546C26.4489 15.1445 26.5804 15.1414 26.6883 15.1414C26.7962 15.1414 27.2308 15.1576 27.3335 15.1293C27.3335 15.1293 27.4311 15.1101 27.4219 15.0495C27.4219 15.0495 27.4126 14.9677 27.1476 14.9061C27.1476 14.9061 26.6246 14.7768 26.5023 14.7445C26.3801 14.7111 26.3996 14.5424 26.4972 14.5192C26.5948 14.496 26.6811 14.5475 26.8671 14.5869C27.053 14.6273 27.1589 14.6202 27.1609 14.5535C27.163 14.4879 27.089 14.4263 26.9606 14.3677C26.8311 14.3091 26.452 14.0737 26.2825 13.9354C26.1129 13.797 25.8879 13.5899 25.6588 13.4727C25.6588 13.4727 25.5273 13.4051 25.5756 13.2939C25.6229 13.1838 25.8027 13.2374 25.9034 13.2939C26.004 13.3505 26.3472 13.4535 26.4243 13.3808C26.5003 13.3081 26.3236 13.2889 26.2136 13.2283C26.1037 13.1677 25.7975 12.9657 25.8191 12.8929C25.8407 12.8202 25.9506 12.8596 26.0462 12.8525C26.1417 12.8455 26.1612 12.796 26.0934 12.7303C26.0256 12.6647 25.6568 12.4253 25.5201 12.3636C25.3835 12.303 25.1698 12.2859 24.9756 12.2182C24.6365 12.101 24.5122 11.8051 24.3715 11.5C24.3715 11.5 24.1321 11.8404 23.9245 12.0333C23.717 12.2263 23.5352 12.3414 23.5064 12.3859C23.4776 12.4303 23.7047 12.3505 23.7355 12.4747C23.7663 12.599 23.3461 12.7263 23.1314 12.8859C23.1314 12.8859 23.041 12.9657 23.0738 13.0081C23.1078 13.0505 23.2054 13.0455 23.2413 13.0434C23.2773 13.0414 23.3348 13.0909 23.3153 13.1748C23.2958 13.2596 23.2362 13.2828 23.1725 13.2919C23.1078 13.301 23.0245 13.2869 22.9382 13.3667C22.8519 13.4465 22.8571 13.5758 22.6567 13.6909C22.4564 13.8061 21.9642 14.0384 21.9683 14.1586C21.9735 14.2788 22.1471 14.2737 22.2139 14.2333C22.2807 14.1929 22.5129 14.099 22.6269 14.2141C22.742 14.3293 22.6413 14.6111 22.5047 14.7283C22.368 14.8455 22.2488 14.895 22.1245 14.9424C22.0002 14.9899 21.8954 15.0384 21.7444 15.194C21.5944 15.3485 21.5173 15.4101 21.4721 15.4525C21.4269 15.495 21.3889 15.5606 21.4269 15.6071C21.4649 15.6546 21.6755 15.6818 21.8759 15.5253C22.0762 15.3677 22.2221 15.3727 22.2868 15.4758C22.3516 15.5788 22.3392 15.7202 22.2077 15.8071C22.0762 15.894 21.6776 16.0556 21.4916 16.2414C21.3057 16.4273 21.1783 16.594 21.0663 16.6333C20.9543 16.6738 20.8896 16.7061 20.9019 16.7576C20.9142 16.8091 21.017 16.8566 21.2697 16.7839C21.5224 16.7111 21.9149 16.5445 22.0577 16.4647C22.2005 16.3849 22.4595 16.2626 22.5694 16.4313C22.6793 16.6 22.2416 16.7839 22.144 16.8212C22.0464 16.8586 21.542 17.0253 21.43 17.0606C21.43 17.0606 21.2605 17.101 21.244 17.1667C21.2276 17.2323 21.2533 17.3263 21.4762 17.3142C21.6981 17.302 22.0999 17.2131 22.3146 17.1192C22.5293 17.0253 22.7831 16.9293 22.929 16.8606C23.0749 16.7929 23.3471 16.8131 23.4643 16.9637C23.5814 17.1142 23.5362 17.4142 23.4427 17.5626C23.3492 17.7101 23.1345 18.0788 22.8714 18.2293C22.6084 18.3798 22.1338 18.4778 22.219 18.6263C22.219 18.6263 22.2786 18.6849 22.3454 18.598C22.4122 18.5111 22.5201 18.4546 22.6485 18.4475C22.7779 18.4404 23.0523 18.4101 23.2074 18.3162C23.3626 18.2222 23.5444 18.0222 23.7571 17.9707C23.7571 17.9707 23.865 17.9354 23.9646 17.9899C23.9646 17.9899 24.0191 18.0394 24.091 18.0303C24.1629 18.0212 24.2369 17.9576 24.3324 17.9929C24.428 18.0283 24.4403 18.0748 24.4711 18.1475C24.502 18.2202 24.6211 18.3212 24.7146 18.3546C24.8081 18.3879 24.8225 18.4435 24.8626 18.4889C24.9037 18.5334 24.9386 18.5384 24.9602 18.5081C24.9818 18.4778 24.9458 18.297 25.0218 18.2707C25.0979 18.2445 25.215 18.2778 25.3301 18.2899C25.4451 18.302 25.6044 18.3344 25.6927 18.4374C25.7811 18.5404 25.9126 18.7455 26.0246 18.6909C26.1366 18.6374 26.0195 18.5192 25.9383 18.4606C25.8571 18.402 25.4893 18.1455 25.3598 17.9465C25.2304 17.7465 25.2027 17.3879 25.2027 17.1879C25.2027 16.9879 25.2027 16.796 25.3321 16.7202C25.4616 16.6445 25.6352 16.7152 25.8027 16.8162C25.9701 16.9172 26.1016 16.9152 26.2784 16.9081C26.4551 16.901 27.0047 16.8586 27.2 16.9616C27.3962 17.0647 27.7856 17.3233 27.8596 17.3637C27.9335 17.4041 28.0435 17.4202 28.0887 17.3637C28.1339 17.3071 28.0527 17.1101 27.7681 16.9384L27.7691 16.9404ZM22.6033 15.5465C22.4173 15.5556 22.3701 15.3232 22.3865 15.2596C22.4029 15.196 22.743 15.1667 22.8899 15.1596C23.0369 15.1525 23.043 15.1889 23.0708 15.2283C23.1869 15.3929 22.7893 15.5374 22.6033 15.5465ZM23.0584 14.3364C22.9269 14.395 22.8098 14.299 22.7502 14.1838C22.6906 14.0687 22.7862 13.9798 22.7862 13.9798C22.8745 13.9424 22.9701 13.9798 23.0461 14.0505C23.1221 14.1212 23.1889 14.2778 23.0584 14.3364ZM24.7444 12.9828C24.8451 12.9768 24.8564 13.0596 24.8595 13.0929C24.8616 13.1273 24.8503 13.204 24.765 13.2091C24.6797 13.2141 24.6643 13.1374 24.6561 13.1071C24.6561 13.1071 24.6437 12.9889 24.7444 12.9828ZM23.8393 13.2626C23.8968 13.2727 23.8783 13.3828 23.8783 13.3828C23.8783 13.3828 23.8783 13.4798 23.7674 13.5505C23.6564 13.6212 23.5341 13.6667 23.4982 13.6283C23.4622 13.5899 23.4499 13.5313 23.5506 13.4273C23.6513 13.3232 23.7817 13.2515 23.8393 13.2626ZM23.5167 12.8535C23.603 12.8465 23.6276 12.9253 23.6297 12.9667C23.6317 13.0071 23.6132 13.0798 23.5352 13.0879C23.456 13.097 23.4345 13.0293 23.4242 12.9788C23.4242 12.9788 23.4304 12.8606 23.5167 12.8535ZM23.228 14.101C23.228 14.101 23.1756 13.9556 23.2927 13.8919C23.4098 13.8283 23.531 13.904 23.5413 13.9636C23.5506 14.0232 23.5701 14.1131 23.4509 14.1586C23.3317 14.204 23.2516 14.1505 23.228 14.101ZM23.4591 16.3515C23.341 16.3707 23.2886 16.1808 23.2711 16.0677C23.2536 15.9546 23.3441 15.9354 23.3441 15.9354C23.4406 15.9192 23.5013 16.0253 23.53 16.094C23.5588 16.1626 23.5773 16.3313 23.4591 16.3515ZM23.716 14.9566C23.6071 14.9828 23.5208 14.8071 23.6143 14.7626C23.7078 14.7182 23.7612 14.8243 23.7612 14.8243C23.7612 14.8243 23.8259 14.9303 23.716 14.9566ZM23.9739 16.3131C23.9451 16.3364 23.8608 16.3626 23.8095 16.2586C23.7581 16.1546 23.8095 16.0929 23.8095 16.0929C23.8434 16.0667 23.8701 16.0859 23.9348 16.1434C23.9995 16.201 24.0026 16.2899 23.9739 16.3131ZM24.0468 13.2768C24.0468 13.2768 24.0201 13.198 24.0715 13.1414C24.1239 13.0849 24.3263 12.9919 24.428 13.0323C24.5297 13.0727 24.4876 13.2172 24.4157 13.2475C24.3437 13.2778 24.0807 13.3626 24.0468 13.2768ZM24.5112 13.8616C24.504 13.9404 24.4362 13.9758 24.3643 13.9707C24.2924 13.9657 24.2461 13.9071 24.2646 13.8313C24.2831 13.7556 24.3879 13.7243 24.4547 13.7525C24.5215 13.7808 24.5112 13.8616 24.5112 13.8616ZM24.0797 14.7838C24.0817 14.7323 24.09 14.6626 24.1814 14.6636C24.2728 14.6657 24.2492 14.7838 24.2492 14.7838C24.2328 14.8404 24.2184 14.8687 24.165 14.8737C24.1115 14.8788 24.0776 14.8354 24.0797 14.7838ZM24.4465 16.2818C24.3355 16.3344 24.2513 16.2576 24.2225 16.1546C24.1937 16.0525 24.28 16.001 24.28 16.001C24.4033 15.9606 24.5574 16.2293 24.4465 16.2818ZM24.5841 15.1768C24.4475 15.1929 24.4208 15.0657 24.4198 14.9445C24.4177 14.8232 24.5143 14.7929 24.5143 14.7929C24.5595 14.7647 24.6509 14.895 24.6735 14.9596C24.6972 15.0243 24.7198 15.1616 24.5841 15.1768ZM24.8461 15.1576C24.7711 15.1485 24.7866 15.0606 24.7866 15.0606C24.7866 15.0606 24.7886 14.9606 24.8616 14.9636C24.9345 14.9667 24.9663 15.1717 24.8461 15.1576ZM24.9263 13.8879C24.8944 13.9737 24.8174 14.0182 24.7311 13.9808C24.6448 13.9434 24.6879 13.8192 24.7434 13.7697C24.7989 13.7202 24.8564 13.7263 24.8883 13.7414C24.8883 13.7414 24.9581 13.802 24.9263 13.8879ZM25.8992 14.4253C26.0297 14.4091 26.041 14.5788 26.041 14.5788C26.0482 14.6828 26.0215 14.697 25.9712 14.7162C25.9208 14.7354 25.776 14.7303 25.7513 14.6354C25.7266 14.5404 25.7677 14.4414 25.8992 14.4253ZM25.0362 13.1152C25.0362 13.1152 25.0537 13.0061 25.1708 13.0121C25.2879 13.0182 25.2869 13.1293 25.2756 13.1687C25.2643 13.2081 25.254 13.2768 25.1482 13.2788C25.0424 13.2808 25.0259 13.1828 25.0362 13.1152ZM25.2027 14.1535C25.1184 14.1081 25.1297 13.9707 25.1297 13.9707C25.1246 13.897 25.2551 13.8364 25.4071 13.8566C25.5592 13.8768 25.6198 14.0273 25.552 14.1111C25.4842 14.196 25.2869 14.199 25.2027 14.1535ZM25.8992 15.9313C25.8263 15.9505 25.6075 15.9505 25.5736 15.8606C25.5736 15.8606 25.554 15.7546 25.667 15.6849C25.7801 15.6142 26.0451 15.5525 26.0986 15.6849C26.152 15.8172 25.9732 15.9121 25.8992 15.9313ZM26.6112 16.1051C26.5465 16.1354 26.3441 16.1707 26.2866 16.0626C26.2866 16.0626 26.2342 15.9839 26.3246 15.8849C26.414 15.7859 26.6164 15.696 26.7222 15.8041C26.828 15.9111 26.676 16.0758 26.6112 16.1051Z" fill="#00953F"/>
</g>
<defs>
<clipPath id="clip0_5037_292">
<rect width="144" height="31" fill="white"/>
</clipPath>
</defs>
</svg>
