<svg width="150" height="150" viewBox="0 0 150 150" fill="none" xmlns="http://www.w3.org/2000/svg">
<path opacity="0.08" d="M115.925 75.5325C115.929 97.9449 97.7638 116.117 75.3513 116.121C52.9388 116.125 34.767 97.9593 34.7631 75.5468C34.7591 53.1344 52.9244 34.9626 75.3369 34.9586C97.7494 34.9547 115.921 53.12 115.925 75.5325Z" fill="#1D2025"/>
<path opacity="0.06" d="M117.367 79.9358C117.37 102.348 99.2052 120.52 76.7927 120.524C54.3802 120.528 36.2084 102.363 36.2045 79.9502C36.2005 57.5377 54.3658 39.3659 76.7783 39.3619C99.1908 39.358 117.363 57.5233 117.367 79.9358Z" fill="#1D2025"/>
<path d="M116.62 73.3381C116.656 96.1365 98.2038 114.648 75.4055 114.684C52.6071 114.72 34.0961 96.2678 34.0598 73.4695C34.0235 50.6711 52.4758 32.16 75.2741 32.1238C98.0725 32.0875 116.584 50.5397 116.62 73.3381Z" fill="#FC7413"/>
<path d="M76.0039 94.501C63.5776 94.501 53.5039 84.4273 53.5039 72.001C53.5039 59.5746 63.5776 49.501 76.0039 49.501C86.0787 49.501 94.5118 56.1225 97.3789 65.251H91.7539" stroke="white" stroke-width="2.5" stroke-linecap="round" stroke-linejoin="round"/>
<path d="M75.7227 63.8447V72.8447L80.2227 77.3447" stroke="white" stroke-width="2.5" stroke-linecap="round" stroke-linejoin="round"/>
<path d="M98.5 72.001C98.5 72.7599 98.4658 73.5105 98.3989 74.251M82.75 94.501C83.5186 94.2481 84.2694 93.9529 85 93.6185M95.7789 83.251C96.2128 82.4149 96.5998 81.5484 96.9363 80.6549M92.1298 88.4406C91.442 89.1815 90.7081 89.8752 89.933 90.5167" stroke="white" stroke-width="2.5" stroke-linecap="round" stroke-linejoin="round"/>
<path d="M25.6299 125.562C26.4024 124.782 27.5373 123.636 28.9297 122.232" stroke="#FC7413" stroke-width="2.5" stroke-linecap="round"/>
<path d="M4.34375 75.8489C5.44104 75.8441 7.0541 75.8361 9.03125 75.8281" stroke="#FC7413" stroke-width="2.5" stroke-linecap="round"/>
<path d="M24.4384 25.6385C25.2177 26.4111 26.3639 27.546 27.7676 28.9385" stroke="#FC7413" stroke-width="2.5" stroke-linecap="round"/>
<path d="M74.1218 4.34375C74.1266 5.44104 74.1346 7.0541 74.1426 9.03125" stroke="#FC7413" stroke-width="2.5" stroke-linecap="round"/>
<path d="M124.351 24.4372C123.578 25.2165 122.443 26.3628 121.051 27.7666" stroke="#FC7413" stroke-width="2.5" stroke-linecap="round"/>
<path d="M145.656 74.1481C144.559 74.1529 142.946 74.1609 140.969 74.1689" stroke="#FC7413" stroke-width="2.5" stroke-linecap="round"/>
<path d="M125.552 124.364C124.773 123.592 123.626 122.457 122.223 121.064" stroke="#FC7413" stroke-width="2.5" stroke-linecap="round"/>
<path d="M75.8216 145.656C75.8168 144.559 75.8088 142.946 75.8008 140.969" stroke="#FC7413" stroke-width="2.5" stroke-linecap="round"/>
</svg>
