<svg xmlns="http://www.w3.org/2000/svg" width="80" height="80" viewBox="0 0 80 80" fill="none">
    <path
        d="M32.9297 25.0628C36.8349 21.6457 43.1666 21.6457 47.0718 25.0628C50.9771 28.4799 50.9771 34.0201 47.0718 37.4372C46.3921 38.0319 45.6389 38.5232 44.8378 38.9109C42.3521 40.1138 40.0008 42.2386 40.0008 45V47.5M70 40C70 56.5685 56.5685 70 40 70C23.4315 70 10 56.5685 10 40C10 23.4315 23.4315 10 40 10C56.5685 10 70 23.4315 70 40ZM40 57.5H40.025V57.525H40V57.5Z"
        stroke="#436C4D" stroke-width="5" stroke-linecap="round" stroke-linejoin="round" />
</svg>