<svg xmlns="http://www.w3.org/2000/svg" width="40" height="40" viewBox="0 0 40 40" fill="none">
    <path fill-rule="evenodd" clip-rule="evenodd"
        d="M20 2.5C16.7984 2.5 13.6396 2.68524 10.5337 3.04568C8.03806 3.33531 6.25 5.4787 6.25 7.92831V36.25C6.25 36.6648 6.45575 37.0525 6.79921 37.2851C7.14268 37.5176 7.57913 37.5646 7.96424 37.4106L13.75 35.0963L19.5358 37.4106C19.8338 37.5298 20.1662 37.5298 20.4642 37.4106L26.25 35.0963L32.0358 37.4106C32.4209 37.5646 32.8573 37.5176 33.2008 37.2851C33.5443 37.0525 33.75 36.6648 33.75 36.25V7.92831C33.75 5.4787 31.9619 3.33531 29.4663 3.04568C26.3604 2.68524 23.2016 2.5 20 2.5ZM25.8839 14.6339C26.372 14.1457 26.372 13.3543 25.8839 12.8661C25.3957 12.378 24.6043 12.378 24.1161 12.8661L14.1161 22.8661C13.628 23.3543 13.628 24.1457 14.1161 24.6339C14.6043 25.122 15.3957 25.122 15.8839 24.6339L25.8839 14.6339ZM14.375 15C14.375 13.9645 15.2145 13.125 16.25 13.125C17.2855 13.125 18.125 13.9645 18.125 15C18.125 16.0355 17.2855 16.875 16.25 16.875C15.2145 16.875 14.375 16.0355 14.375 15ZM23.75 20.625C22.7145 20.625 21.875 21.4645 21.875 22.5C21.875 23.5355 22.7145 24.375 23.75 24.375C24.7855 24.375 25.625 23.5355 25.625 22.5C25.625 21.4645 24.7855 20.625 23.75 20.625Z"
        fill="white" />
</svg>