<svg width="150" height="150" viewBox="0 0 150 150" fill="none" xmlns="http://www.w3.org/2000/svg">
<path opacity="0.08" d="M115.921 75.5315C115.925 97.944 97.76 116.116 75.3475 116.12C52.935 116.124 34.7632 97.9584 34.7593 75.5459C34.7553 53.1334 52.9206 34.9616 75.3331 34.9577C97.7456 34.9537 115.917 53.119 115.921 75.5315Z" fill="#1D2025"/>
<path opacity="0.06" d="M117.363 79.9348C117.367 102.347 99.2013 120.519 76.7888 120.523C54.3763 120.527 36.2045 102.362 36.2006 79.9492C36.1966 57.5367 54.3619 39.3649 76.7744 39.361C99.1869 39.357 117.359 57.5223 117.363 79.9348Z" fill="#1D2025"/>
<path d="M116.618 73.3371C116.654 96.1355 98.2019 114.647 75.4035 114.683C52.6052 114.719 34.0941 96.2668 34.0579 73.4685C34.0216 50.6701 52.4738 32.1591 75.2722 32.1228C98.0705 32.0865 116.582 50.5388 116.618 73.3371Z" fill="#DE1616"/>
<path d="M85.7074 84.2931C85.8004 84.386 85.8741 84.4963 85.9243 84.6177C85.9746 84.7391 86.0005 84.8692 86.0005 85.0006C86.0005 85.132 85.9746 85.2621 85.9243 85.3835C85.8741 85.5048 85.8004 85.6151 85.7074 85.7081C85.6145 85.801 85.5042 85.8747 85.3828 85.9249C85.2614 85.9752 85.1313 86.0011 84.9999 86.0011C84.8686 86.0011 84.7384 85.9752 84.6171 85.9249C84.4957 85.8747 84.3854 85.801 84.2924 85.7081L75.9999 77.4143L67.7074 85.7081C67.5198 85.8957 67.2653 86.0011 66.9999 86.0011C66.7346 86.0011 66.4801 85.8957 66.2924 85.7081C66.1048 85.5204 65.9994 85.2659 65.9994 85.0006C65.9994 84.7352 66.1048 84.4807 66.2924 84.2931L74.5862 76.0006L66.2924 67.7081C66.1048 67.5204 65.9994 67.2659 65.9994 67.0006C65.9994 66.7352 66.1048 66.4807 66.2924 66.2931C66.4801 66.1054 66.7346 66 66.9999 66C67.2653 66 67.5198 66.1054 67.7074 66.2931L75.9999 74.5868L84.2924 66.2931C84.4801 66.1054 84.7346 66 84.9999 66C85.2653 66 85.5198 66.1054 85.7074 66.2931C85.8951 66.4807 86.0005 66.7352 86.0005 67.0006C86.0005 67.2659 85.8951 67.5204 85.7074 67.7081L77.4137 76.0006L85.7074 84.2931Z" fill="white"/>
<path d="M25.6299 125.562C26.4024 124.782 27.5373 123.636 28.9297 122.232" stroke="#DE1616" stroke-width="2.5" stroke-linecap="round"/>
<path d="M4.34375 75.8489C5.44104 75.8441 7.0541 75.8361 9.03125 75.8281" stroke="#DE1616" stroke-width="2.5" stroke-linecap="round"/>
<path d="M24.4383 25.6385C25.2176 26.4111 26.3638 27.546 27.7675 28.9385" stroke="#DE1616" stroke-width="2.5" stroke-linecap="round"/>
<path d="M74.1218 4.34375C74.1266 5.44104 74.1346 7.0541 74.1426 9.03125" stroke="#DE1616" stroke-width="2.5" stroke-linecap="round"/>
<path d="M124.35 24.4372C123.578 25.2165 122.443 26.3628 121.051 27.7666" stroke="#DE1616" stroke-width="2.5" stroke-linecap="round"/>
<path d="M145.656 74.1481C144.559 74.1529 142.946 74.1609 140.969 74.1689" stroke="#DE1616" stroke-width="2.5" stroke-linecap="round"/>
<path d="M125.552 124.364C124.772 123.592 123.626 122.457 122.222 121.064" stroke="#DE1616" stroke-width="2.5" stroke-linecap="round"/>
<path d="M75.8215 145.656C75.8167 144.559 75.8087 142.946 75.8007 140.969" stroke="#DE1616" stroke-width="2.5" stroke-linecap="round"/>
</svg>
