<svg xmlns="http://www.w3.org/2000/svg" width="80" height="80" viewBox="0 0 80 80" fill="none">
<path d="M43.3337 73.3333H21.9699C16.8186 73.3333 12.7214 70.8267 9.04253 67.322C1.51155 60.147 13.8763 54.4133 18.5922 51.6053C26.5896 46.8433 36.142 45.525 45.0003 47.6507" stroke="#EC011A" stroke-width="4" stroke-linecap="round" stroke-linejoin="round"/>
<path d="M55 21.6667C55 29.9509 48.2843 36.6667 40 36.6667C31.7157 36.6667 25 29.9509 25 21.6667C25 13.3824 31.7157 6.66666 40 6.66666C48.2843 6.66666 55 13.3824 55 21.6667Z" stroke="#EC011A" stroke-width="4" stroke-linecap="round" stroke-linejoin="round"/>
<path d="M53.333 73.3333L63.333 63.3333M63.333 63.3333L73.333 53.3333M63.333 63.3333L53.333 53.3333M63.333 63.3333L73.333 73.3333" stroke="#EC011A" stroke-width="4" stroke-linecap="round" stroke-linejoin="round"/>
</svg>