<svg xmlns="http://www.w3.org/2000/svg" width="80" height="80" viewBox="0 0 80 80" fill="none">
    <path
        d="M52.5 52.5L44.205 44.205M44.205 44.205C46.2408 42.1691 47.5 39.3566 47.5 36.25C47.5 30.0368 42.4632 25 36.25 25C30.0368 25 25 30.0368 25 36.25C25 42.4632 30.0368 47.5 36.25 47.5C39.3566 47.5 42.1691 46.2408 44.205 44.205ZM70 40C70 56.5685 56.5685 70 40 70C23.4315 70 10 56.5685 10 40C10 23.4315 23.4315 10 40 10C56.5685 10 70 23.4315 70 40Z"
        stroke="#1672C0" stroke-width="4" stroke-linecap="round" stroke-linejoin="round" />
</svg>