<svg xmlns="http://www.w3.org/2000/svg" width="20" height="20" viewBox="0 0 20 20" fill="none">
  <path d="M14.1667 9.837C14.1667 9.54892 14.1667 9.40492 14.2101 9.27659C14.3361 8.90358 14.6682 8.75892 15.001 8.60734C15.3751 8.43692 15.5621 8.35175 15.7474 8.33675C15.9578 8.31973 16.1686 8.36508 16.3484 8.466C16.5868 8.59975 16.7531 8.854 16.9233 9.06075C17.7095 10.0156 18.1025 10.4931 18.2463 11.0196C18.3624 11.4444 18.3624 11.8888 18.2463 12.3136C18.0366 13.0815 17.3738 13.7253 16.8832 14.3211C16.6323 14.6258 16.5068 14.7783 16.3484 14.8672C16.1686 14.9681 15.9578 15.0134 15.7474 14.9964C15.5621 14.9814 15.3751 14.8963 15.001 14.7258C14.6682 14.5743 14.3361 14.4296 14.2101 14.0566C14.1667 13.9283 14.1667 13.7843 14.1667 13.4962V9.837Z" stroke="#20294C" stroke-width="1.3" stroke-linecap="round" stroke-linejoin="round"/>
  <path d="M5.83341 9.83706C5.83341 9.47439 5.82323 9.14839 5.53001 8.89339C5.42336 8.80064 5.28196 8.73623 4.99917 8.60739C4.62509 8.43706 4.43805 8.35189 4.25271 8.33689C3.69667 8.29189 3.39751 8.67139 3.07686 9.06089C2.29071 10.0157 1.89763 10.4931 1.7538 11.0196C1.63773 11.4446 1.63773 11.8889 1.7538 12.3137C1.96358 13.0816 2.62635 13.7253 3.11692 14.3212C3.42616 14.6968 3.72156 15.0395 4.25271 14.9966C4.43805 14.9816 4.62509 14.8963 4.99917 14.726C5.28196 14.5971 5.42336 14.5327 5.53001 14.44C5.82323 14.185 5.83341 13.8591 5.83341 13.4963V9.83706Z" stroke="#20294C" stroke-width="1.3" stroke-linecap="round" stroke-linejoin="round"/>
  <path d="M16.6666 8.75008V7.50008C16.6666 4.27842 13.6818 1.66675 9.99992 1.66675C6.31802 1.66675 3.33325 4.27842 3.33325 7.50008V8.75008" stroke="#20294C" stroke-width="1.3" stroke-linecap="round" stroke-linejoin="round"/>
  <path d="M16.6667 14.5833C16.6667 18.3333 13.3333 18.3333 10 18.3333" stroke="#20294C" stroke-width="1.3" stroke-linecap="round" stroke-linejoin="round"/>
</svg>