<svg xmlns="http://www.w3.org/2000/svg" width="41" height="40" viewBox="0 0 41 40" fill="none">
    <path fill-rule="evenodd" clip-rule="evenodd"
        d="M3.21875 9.375C3.21875 7.64911 4.61786 6.25 6.34375 6.25H35.0938C36.8196 6.25 38.2188 7.64911 38.2188 9.375V30.625C38.2188 32.3509 36.8196 33.75 35.0938 33.75H6.34375C4.61786 33.75 3.21875 32.3509 3.21875 30.625V9.375ZM35.7188 15.625C35.7188 15.2798 35.4389 15 35.0938 15H22.5938C22.2486 15 21.9688 15.2798 21.9688 15.625V18.125C21.9688 18.4702 22.2486 18.75 22.5938 18.75H35.0938C35.4389 18.75 35.7188 18.4702 35.7188 18.125V15.625ZM35.7188 21.875C35.7188 21.5298 35.4389 21.25 35.0938 21.25H22.5938C22.2486 21.25 21.9688 21.5298 21.9688 21.875V24.375C21.9688 24.7202 22.2486 25 22.5938 25H35.0938C35.4389 25 35.7188 24.7202 35.7188 24.375V21.875ZM35.7188 28.125C35.7188 27.7798 35.4389 27.5 35.0938 27.5H22.5938C22.2486 27.5 21.9688 27.7798 21.9688 28.125V30.625C21.9688 30.9702 22.2486 31.25 22.5938 31.25H35.0938C35.4389 31.25 35.7188 30.9702 35.7188 30.625V28.125ZM18.8438 31.25C19.1889 31.25 19.4688 30.9702 19.4688 30.625V28.125C19.4688 27.7798 19.1889 27.5 18.8438 27.5H6.34375C5.99857 27.5 5.71875 27.7798 5.71875 28.125V30.625C5.71875 30.9702 5.99857 31.25 6.34375 31.25H18.8438ZM6.34375 25H18.8438C19.1889 25 19.4688 24.7202 19.4688 24.375V21.875C19.4688 21.5298 19.1889 21.25 18.8438 21.25H6.34375C5.99857 21.25 5.71875 21.5298 5.71875 21.875V24.375C5.71875 24.7202 5.99857 25 6.34375 25ZM6.34375 18.75H18.8438C19.1889 18.75 19.4688 18.4702 19.4688 18.125V15.625C19.4688 15.2798 19.1889 15 18.8438 15H6.34375C5.99857 15 5.71875 15.2798 5.71875 15.625V18.125C5.71875 18.4702 5.99857 18.75 6.34375 18.75Z"
        fill="white" />
</svg>